<svg width="500" height="500" viewBox="0 0 500 500" fill="none" xmlns="http://www.w3.org/2000/svg">
<path d="M53.33 223.83V271.47C53.33 275.61 54.9746 279.58 57.902 282.508C60.8295 285.435 64.7999 287.08 68.94 287.08H239.75C243.888 287.077 247.856 285.432 250.781 282.504C253.707 279.577 255.35 275.608 255.35 271.47V231.22L276.62 208.88L69 208.23C66.9458 208.222 64.9103 208.62 63.0102 209.4C61.11 210.18 59.3825 211.328 57.9268 212.777C56.471 214.226 55.3156 215.949 54.5268 217.845C53.738 219.742 53.3313 221.776 53.33 223.83Z" fill="#F5F5F5"/>
<path d="M230.17 237.09L75.1799 236.37L75.1899 231.61L230.19 232.32L230.17 237.09Z" fill="#E0E0E0"/>
<path d="M230.17 252.76L75.1799 252.05L75.1899 247.28L230.19 248L230.17 252.76Z" fill="#E0E0E0"/>
<path d="M168.854 262.97L168.831 267.73L230.16 268.03L230.183 263.27L168.854 262.97Z" fill="#E0E0E0"/>
<path d="M211.6 388.43V436.07C211.6 440.21 213.245 444.181 216.172 447.108C219.099 450.036 223.07 451.68 227.21 451.68H398C402.138 451.677 406.106 450.032 409.031 447.105C411.957 444.177 413.6 440.208 413.6 436.07V395.82L434.87 373.48L227.24 372.83C225.188 372.826 223.156 373.227 221.259 374.009C219.363 374.791 217.639 375.939 216.186 377.388C214.734 378.837 213.581 380.558 212.794 382.453C212.007 384.347 211.601 386.378 211.6 388.43Z" fill="#F5F5F5"/>
<path d="M389.19 400.45L234.19 399.74L234.2 394.97L389.2 395.69L389.19 400.45Z" fill="#E0E0E0"/>
<path d="M389.19 416.12L234.19 415.41L234.2 410.64L389.2 411.36L389.19 416.12Z" fill="#E0E0E0"/>
<path d="M327.859 426.32L327.836 431.08L389.165 431.38L389.188 426.62L327.859 426.32Z" fill="#E0E0E0"/>
<path d="M144.63 44.39H245.37C247.757 44.39 250.046 45.3382 251.734 47.0261C253.422 48.7139 254.37 51.0031 254.37 53.39V102.66C254.37 105.047 253.422 107.336 251.734 109.024C250.046 110.712 247.757 111.66 245.37 111.66H159.89C157.503 111.66 155.214 110.712 153.526 109.024C151.838 107.336 150.89 105.047 150.89 102.66V50.62L144.63 44.39Z" fill="#F5F5F5"/>
<path d="M203 92.2901V123.89C203 126.635 201.909 129.268 199.968 131.209C198.027 133.15 195.395 134.24 192.65 134.24H79.3899C78.0278 134.244 76.6782 133.979 75.4184 133.461C74.1587 132.943 73.0135 132.181 72.0485 131.22C71.0834 130.258 70.3174 129.116 69.7943 127.859C69.2712 126.601 69.0013 125.252 68.9999 123.89V97.1901L54.9399 82.3701L192.65 81.9401C195.395 81.9401 198.027 83.0305 199.968 84.9715C201.909 86.9125 203 89.5451 203 92.2901Z" fill="#E0E0E0"/>
<path d="M85.74 101.08L188.54 100.61L188.53 97.45L85.73 97.93L85.74 101.08Z" fill="#F5F5F5"/>
<path d="M85.74 111.48L188.54 111L188.53 107.85L85.73 108.32L85.74 111.48Z" fill="#F5F5F5"/>
<path d="M125.83 118.87H85.1499V122.03H125.83V118.87Z" fill="#F5F5F5"/>
<path d="M417.64 238.8V270.4C417.64 273.145 416.549 275.778 414.608 277.719C412.667 279.66 410.035 280.75 407.29 280.75H294C291.254 280.75 288.62 279.66 286.678 277.719C284.735 275.778 283.643 273.146 283.64 270.4V243.7L269.54 228.88L407.25 228.45C408.612 228.446 409.962 228.711 411.221 229.229C412.481 229.747 413.626 230.509 414.591 231.47C415.556 232.432 416.322 233.574 416.846 234.832C417.369 236.089 417.639 237.438 417.64 238.8Z" fill="#E0E0E0"/>
<path d="M300.35 247.6L403.16 247.12L403.14 243.96L300.34 244.44L300.35 247.6Z" fill="#F5F5F5"/>
<path d="M300.35 257.99L403.16 257.52L403.14 254.36L300.34 254.83L300.35 257.99Z" fill="#F5F5F5"/>
<path d="M339.72 266.44H299.04V269.6H339.72V266.44Z" fill="#F5F5F5"/>
<path d="M320.6 395.65C303.67 379.16 303.39 353.65 307.79 331.5C308.53 327.8 308.79 323.81 311.07 320.83C313.35 317.85 317.86 316.3 320.94 318.42C323.49 320.17 324.17 323.58 325.28 326.49C326.759 330.375 329.312 333.76 332.64 336.25C334.81 337.87 337.64 339.1 340.16 338.2C343.66 336.95 344.77 332.58 345.35 328.88C346.43 321.973 347.517 315.07 348.61 308.17C349.19 304.46 349.8 300.68 351.52 297.36C353.24 294.04 356.33 291.19 360.01 290.78C363.69 290.37 367.71 293.11 367.86 296.86C367.747 298.413 367.529 299.956 367.21 301.48C367.06 303.03 367.5 304.85 368.89 305.48C370.28 306.11 371.95 305.35 373.23 304.48C377.66 301.37 381.04 296.99 384.23 292.6C387.42 288.21 390.59 283.69 394.73 280.18C398.87 276.67 404.18 274.23 409.53 274.8C414.88 275.37 420 279.56 420.48 285C420.96 290.44 417.06 295.23 413.06 298.91C407.121 304.369 400.425 308.943 393.18 312.49C391.88 313.13 390.47 313.81 389.8 315.11C388.59 317.45 390.53 320.28 392.8 321.49C395.41 322.86 398.44 323.06 401.27 323.88C404.1 324.7 407.02 326.47 407.67 329.38C408.56 333.38 404.75 336.85 401.21 338.94C394.124 343.121 386.37 346.05 378.29 347.6C375.41 348.15 372.4 348.55 369.89 350.11C367.38 351.67 365.52 354.77 366.42 357.59C367.32 360.41 370.58 361.81 373.52 361.75C376.46 361.69 379.26 360.55 382.15 359.97C387.55 358.89 394.06 360.31 396.59 365.24C398.26 368.48 397.79 372.53 396.14 375.8C394.349 378.992 391.935 381.79 389.04 384.03C379.32 392.25 367.63 398.24 355.16 400.4C342.69 402.56 331.59 401.88 320.57 395.67" fill="#DC6B19"/>
<path d="M317.6 412.13C320.315 401.964 323.998 392.082 328.6 382.62C334.288 371.087 340.632 359.888 347.6 349.08L353.04 340.55C354.83 337.75 356.6 334.97 358.51 332.37C362.184 327.364 366.134 322.567 370.34 318C374.34 313.61 378.24 309.6 381.95 305.87C385.66 302.14 389.18 298.75 392.53 295.79C397.782 291.085 403.4 286.805 409.33 282.99C411.43 281.64 413.09 280.64 414.22 279.99L415.52 279.24C415.672 279.144 415.833 279.064 416 279C415.869 279.112 415.728 279.212 415.58 279.3L414.32 280.1C413.21 280.79 411.58 281.82 409.51 283.21C403.647 287.096 398.088 291.422 392.88 296.15C389.56 299.15 386.07 302.54 382.38 306.27C378.69 310 374.79 314.04 370.84 318.42C366.676 322.977 362.763 327.757 359.12 332.74C357.23 335.33 355.47 338.09 353.68 340.89C351.89 343.69 350.09 346.54 348.25 349.42C341.303 360.21 334.96 371.377 329.25 382.87C324.627 392.283 320.897 402.11 318.11 412.22" fill="#263238"/>
<path d="M358.74 332.37C358.652 331.828 358.618 331.279 358.64 330.73C358.64 329.68 358.64 328.15 358.64 326.27C358.72 322.5 359.01 317.27 359.34 311.56C359.67 305.85 359.9 300.64 359.92 296.87C359.92 294.99 359.92 293.47 359.92 292.42C359.876 291.873 359.896 291.323 359.98 290.78C360.104 291.315 360.175 291.861 360.19 292.41C360.29 293.41 360.36 294.98 360.41 296.87C360.51 300.64 360.41 305.87 360.03 311.6C359.65 317.33 359.37 322.38 359.12 326.29C359.03 328.05 358.95 329.54 358.88 330.74C358.897 331.287 358.85 331.834 358.74 332.37Z" fill="#263238"/>
<path d="M407.77 331.27C407.126 331.308 406.479 331.281 405.84 331.19C404.6 331.1 402.84 330.95 400.59 330.85C396.15 330.61 390.02 330.49 383.24 330.65C376.46 330.81 370.34 331.24 365.91 331.65C363.7 331.85 361.91 332.06 360.68 332.2C360.04 332.311 359.39 332.361 358.74 332.35C359.36 332.154 359.995 332.013 360.64 331.93C361.87 331.71 363.64 331.43 365.86 331.16C370.29 330.6 376.43 330.11 383.23 329.93C389.03 329.771 394.834 329.908 400.62 330.34C402.84 330.51 404.62 330.72 405.87 330.9C406.514 330.961 407.15 331.085 407.77 331.27Z" fill="#263238"/>
<path d="M329.37 381.84C329.37 381.84 329.27 381.63 329.14 381.21C329.01 380.79 328.82 380.1 328.6 379.35C328.15 377.74 327.55 375.35 326.85 372.48C325.45 366.65 323.77 358.55 322.03 349.57C320.29 340.59 318.68 332.49 317.4 326.64C316.77 323.8 316.25 321.46 315.87 319.72C315.7 318.97 315.57 318.34 315.46 317.83C315.397 317.612 315.363 317.387 315.36 317.16C315.472 317.36 315.553 317.576 315.6 317.8C315.74 318.3 315.91 318.91 316.13 319.65C316.58 321.26 317.18 323.65 317.88 326.53C319.28 332.35 320.97 340.46 322.7 349.44C324.43 358.42 326.05 366.52 327.33 372.37C327.96 375.21 328.48 377.55 328.86 379.29C329.03 380.04 329.16 380.66 329.27 381.17C329.332 381.388 329.366 381.613 329.37 381.84Z" fill="#263238"/>
<path d="M395.92 371.82C395.704 371.9 395.479 371.95 395.25 371.97L393.31 372.29L386.18 373.37C380.18 374.29 371.87 375.66 362.7 377.17C353.53 378.68 345.21 379.98 339.17 380.77C336.17 381.17 333.7 381.47 332.01 381.64L330.01 381.83C329.785 381.865 329.555 381.865 329.33 381.83C329.547 381.756 329.772 381.706 330 381.68L331.93 381.36L339.06 380.28C345.06 379.36 353.38 378 362.55 376.48C371.72 374.96 380.04 373.67 386.08 372.88C389.08 372.48 391.54 372.18 393.24 372.01L395.24 371.83C395.465 371.791 395.694 371.787 395.92 371.82Z" fill="#263238"/>
<path d="M152.38 170.79C150.872 169.533 149.724 167.9 149.051 166.056C148.379 164.212 148.206 162.222 148.55 160.29C148.93 158.367 149.687 156.54 150.779 154.912C151.871 153.285 153.275 151.89 154.91 150.81C156.4 149.81 158.25 148.97 159.99 149.48C160.787 149.771 161.493 150.269 162.034 150.922C162.576 151.576 162.933 152.362 163.07 153.2C163.323 154.889 163.123 156.614 162.49 158.2C160.59 163.68 157.75 168.64 152.38 170.82" fill="#455A64"/>
<path d="M147.31 180.15C144.229 177.394 140.536 175.411 136.536 174.368C132.536 173.324 128.345 173.25 124.31 174.15C122.31 174.62 119.96 175.7 119.63 177.77C119.3 179.84 121.14 181.61 122.96 182.67C126.802 184.803 131.188 185.751 135.568 185.395C139.947 185.039 144.123 183.395 147.57 180.67" fill="#455A64"/>
<path d="M118 136.81C119.699 136.418 121.459 136.37 123.176 136.669C124.893 136.968 126.534 137.607 128 138.55C130.945 140.471 133.409 143.044 135.2 146.07C138.82 151.79 140.1 159.49 140.26 166.26C132.74 165.96 126.32 160.05 123.26 156.84C118.4 151.78 112.7 139.69 117.94 136.84" fill="#455A64"/>
<path d="M158.68 190.38C157.996 189.473 157.368 188.524 156.8 187.54C154.854 183.725 153.431 179.665 152.57 175.47C151.722 171.22 152.047 166.819 153.51 162.74C153.967 161.519 154.575 160.36 155.32 159.29C155.573 158.882 155.887 158.514 156.25 158.2C155.381 159.712 154.632 161.291 154.01 162.92C152.742 166.936 152.501 171.207 153.31 175.34C154.182 179.479 155.524 183.505 157.31 187.34" fill="#263238"/>
<path d="M158.75 190.47L154.83 185.42C151.54 181.15 146.97 175.26 141.83 168.82C136.69 162.38 131.98 156.62 128.56 152.46L124.56 147.46C124.033 146.879 123.558 146.253 123.14 145.59C123.73 146.106 124.278 146.668 124.78 147.27C125.78 148.39 127.25 150.02 129.02 152.06C132.55 156.14 137.34 161.86 142.48 168.3C147.62 174.74 152.11 180.69 155.3 185.05C156.9 187.23 158.17 189.05 159.03 190.24" fill="#263238"/>
<path d="M129 178.58C129.409 178.378 129.848 178.242 130.3 178.18C130.814 178.038 131.339 177.938 131.87 177.88C132.569 177.764 133.273 177.688 133.98 177.65C135.826 177.534 137.678 177.604 139.51 177.86C141.748 178.194 143.944 178.767 146.06 179.57C148.166 180.412 150.178 181.474 152.06 182.74C153.58 183.789 154.991 184.988 156.27 186.32C156.77 186.823 157.24 187.354 157.68 187.91C158.041 188.314 158.375 188.742 158.68 189.19C159.17 189.92 159.1 190.26 159.06 190.29C158.085 189.039 157.043 187.84 155.94 186.7C154.635 185.452 153.223 184.321 151.72 183.32C149.867 182.128 147.901 181.123 145.85 180.32C143.782 179.535 141.642 178.956 139.46 178.59C137.675 178.306 135.867 178.185 134.06 178.23C130.9 178.26 129 178.72 129 178.58Z" fill="#263238"/>
<path d="M296.74 433.74L181.24 433.2C174.577 433.16 168.202 430.478 163.514 425.742C158.827 421.006 156.211 414.603 156.24 407.94L157.46 118.37C157.489 111.702 160.164 105.319 164.896 100.622C169.629 95.925 176.032 93.2987 182.7 93.32L298.2 93.85C304.863 93.8949 311.237 96.5803 315.923 101.317C320.61 106.054 323.227 112.457 323.2 119.12L322 408.68C321.971 415.352 319.294 421.739 314.557 426.439C309.821 431.138 303.412 433.764 296.74 433.74Z" fill="#263238"/>
<path d="M298 103.85L275.6 103.74C274.87 103.753 274.149 103.91 273.48 104.201C272.81 104.493 272.205 104.913 271.697 105.439C271.19 105.965 270.792 106.585 270.525 107.265C270.257 107.944 270.127 108.67 270.14 109.4V113.46C270.153 114.19 270.022 114.916 269.755 115.595C269.488 116.275 269.089 116.895 268.582 117.421C268.075 117.947 267.47 118.367 266.8 118.659C266.131 118.95 265.41 119.107 264.68 119.12L221.03 118.92C219.556 118.878 218.159 118.254 217.145 117.183C216.131 116.113 215.582 114.684 215.62 113.21V109.15C215.658 107.674 215.108 106.244 214.092 105.173C213.075 104.103 211.676 103.479 210.2 103.44H202.33L182.73 103.35C178.055 103.331 173.564 105.169 170.243 108.46C166.922 111.751 165.044 116.225 165.02 120.9L163.83 403.53C163.811 408.202 165.648 412.691 168.937 416.01C172.226 419.329 176.698 421.206 181.37 421.23L296.64 421.76C298.954 421.771 301.247 421.325 303.389 420.449C305.531 419.574 307.479 418.285 309.123 416.656C310.766 415.027 312.073 413.091 312.968 410.957C313.863 408.823 314.329 406.534 314.34 404.22L315.53 121.58C315.547 119.264 315.107 116.967 314.234 114.821C313.362 112.675 312.075 110.723 310.446 109.076C308.817 107.428 306.88 106.119 304.744 105.222C302.608 104.325 300.316 103.859 298 103.85Z" fill="#FAFAFA"/>
<path d="M232.8 394.66C232.874 395.147 232.796 395.645 232.578 396.087C232.36 396.528 232.012 396.893 231.581 397.13C231.149 397.368 230.655 397.468 230.165 397.417C229.675 397.365 229.213 397.165 228.84 396.843C228.468 396.52 228.203 396.092 228.082 395.614C227.96 395.137 227.988 394.634 228.161 394.173C228.334 393.711 228.644 393.314 229.05 393.035C229.456 392.756 229.937 392.607 230.43 392.61C231.015 392.574 231.59 392.768 232.033 393.152C232.476 393.535 232.751 394.076 232.8 394.66Z" fill="#455A64"/>
<path d="M240.17 394.7C240.241 395.187 240.162 395.684 239.943 396.125C239.723 396.565 239.374 396.928 238.942 397.164C238.51 397.4 238.016 397.499 237.527 397.446C237.037 397.393 236.576 397.192 236.204 396.869C235.833 396.546 235.569 396.117 235.449 395.64C235.328 395.162 235.357 394.66 235.531 394.199C235.704 393.739 236.015 393.342 236.421 393.064C236.826 392.785 237.308 392.637 237.8 392.64C238.386 392.604 238.963 392.8 239.406 393.185C239.85 393.57 240.124 394.114 240.17 394.7Z" fill="#455A64"/>
<path d="M247.54 394.73C247.614 395.217 247.536 395.715 247.318 396.157C247.1 396.598 246.752 396.963 246.32 397.2C245.889 397.438 245.395 397.538 244.905 397.487C244.415 397.435 243.953 397.235 243.58 396.913C243.208 396.59 242.943 396.162 242.822 395.684C242.7 395.207 242.728 394.704 242.901 394.243C243.074 393.781 243.384 393.384 243.79 393.105C244.196 392.826 244.677 392.677 245.17 392.68C245.755 392.641 246.332 392.835 246.776 393.218C247.219 393.602 247.494 394.145 247.54 394.73Z" fill="#455A64"/>
<path d="M199.52 240.1C201.4 240.37 314.7 262.59 314.7 262.59V240.1H199.52Z" fill="#EBEBEB"/>
<path d="M163.87 382.9C163.87 382.9 287.13 365.46 286.05 366C284.97 366.54 163.87 366 163.87 366V382.9Z" fill="#EBEBEB"/>
<path d="M307 52.91C307.14 52.91 307.26 59.14 307.26 66.82C307.26 74.5 307.14 80.74 307 80.74C306.86 80.74 306.74 74.51 306.74 66.82C306.74 59.13 306.86 52.91 307 52.91Z" fill="#263238"/>
<path d="M356.33 84.94C356.39 85.07 350.73 87.69 343.7 90.79C336.67 93.89 330.92 96.31 330.86 96.17C330.8 96.03 336.46 93.42 343.49 90.32C350.52 87.22 356.27 84.8 356.33 84.94Z" fill="#263238"/>
<path d="M355.08 36.36C355.021 36.552 354.933 36.7341 354.82 36.9C354.59 37.28 354.31 37.77 353.96 38.37C353.21 39.65 352.1 41.48 350.7 43.72C347.9 48.22 343.87 54.32 339.3 60.98C334.73 67.64 330.67 73.71 327.79 78.15C326.38 80.32 325.23 82.15 324.39 83.41L323.45 84.83C323.35 85.0042 323.229 85.1654 323.09 85.31C323.164 85.1224 323.254 84.9417 323.36 84.77C323.59 84.39 323.87 83.9 324.22 83.3C324.96 82.02 326.08 80.2 327.48 77.95C330.28 73.45 334.31 67.35 338.87 60.69C343.43 54.03 347.51 48 350.39 43.53L353.79 38.26L354.73 36.84C354.833 36.6706 354.95 36.5101 355.08 36.36Z" fill="#263238"/>
<path d="M424.23 154.09H198.78C197.622 154.09 196.476 154.318 195.406 154.762C194.337 155.205 193.365 155.855 192.547 156.674C191.729 157.493 191.08 158.465 190.638 159.535C190.196 160.605 189.969 161.752 189.97 162.91V232.84C189.969 233.998 190.196 235.144 190.638 236.214C191.08 237.285 191.729 238.257 192.547 239.076C193.365 239.895 194.337 240.545 195.406 240.988C196.476 241.432 197.622 241.66 198.78 241.66H215.58C216.93 248.96 218.51 258.17 218.51 258.17L233.71 241.66H424.23C425.388 241.66 426.534 241.432 427.604 240.988C428.673 240.545 429.645 239.895 430.463 239.076C431.281 238.257 431.93 237.285 432.372 236.214C432.814 235.144 433.041 233.998 433.04 232.84V162.91C433.041 161.752 432.814 160.605 432.372 159.535C431.93 158.465 431.281 157.493 430.463 156.674C429.645 155.855 428.673 155.205 427.604 154.762C426.534 154.318 425.388 154.09 424.23 154.09Z" fill="#DC6B19"/>
<path d="M331.21 192C331.21 192.14 304.38 192.26 271.29 192.26C238.2 192.26 211.36 192.14 211.36 192C211.36 191.86 238.19 191.73 271.29 191.73C304.39 191.73 331.21 191.88 331.21 192Z" fill="#F5F5F5"/>
<path d="M331.21 181.28C331.21 181.42 304.38 181.54 271.29 181.54C238.2 181.54 211.36 181.42 211.36 181.28C211.36 181.14 238.19 181.02 271.29 181.02C304.39 181.02 331.21 181.13 331.21 181.28Z" fill="#F5F5F5"/>
<path d="M331.21 202.66C331.21 202.8 304.38 202.92 271.29 202.92C238.2 202.92 211.36 202.8 211.36 202.66C211.36 202.52 238.19 202.4 271.29 202.4C304.39 202.4 331.21 202.51 331.21 202.66Z" fill="#F5F5F5"/>
<path d="M289.86 213.67C289.86 213.81 272.29 213.93 250.61 213.93C228.93 213.93 211.36 213.81 211.36 213.67C211.36 213.53 228.93 213.41 250.61 213.41C272.29 213.41 289.86 213.52 289.86 213.67Z" fill="#F5F5F5"/>
<path d="M322.36 279.82H95.0701C94.2586 279.819 93.4549 279.978 92.705 280.288C91.9552 280.598 91.274 281.054 90.7007 281.628C90.1274 282.202 89.6732 282.884 89.3642 283.634C89.0551 284.385 88.8974 285.189 88.9001 286V360C88.9001 361.636 89.5501 363.206 90.7072 364.363C91.8643 365.52 93.4337 366.17 95.0701 366.17H260.15L275.15 382.5C275.15 382.5 276.72 373.32 278.05 366.17H322.33C323.966 366.17 325.536 365.52 326.693 364.363C327.85 363.206 328.5 361.636 328.5 360V286C328.503 285.191 328.346 284.39 328.039 283.641C327.732 282.893 327.28 282.212 326.71 281.638C326.14 281.065 325.462 280.609 324.716 280.297C323.97 279.985 323.169 279.823 322.36 279.82Z" fill="#455A64"/>
<path d="M313.45 318C313.45 318.14 286.62 318.26 253.52 318.26C220.42 318.26 193.59 318.14 193.59 318C193.59 317.86 220.42 317.74 253.52 317.74C286.62 317.74 313.45 317.82 313.45 318Z" fill="#F5F5F5"/>
<path d="M313.45 307.22C313.45 307.36 286.62 307.48 253.52 307.48C220.42 307.48 193.59 307.36 193.59 307.22C193.59 307.08 220.42 306.96 253.52 306.96C286.62 306.96 313.45 307.07 313.45 307.22Z" fill="#F5F5F5"/>
<path d="M313.45 328.6C313.45 328.74 286.62 328.86 253.52 328.86C220.42 328.86 193.59 328.74 193.59 328.6C193.59 328.46 220.42 328.34 253.52 328.34C286.62 328.34 313.45 328.46 313.45 328.6Z" fill="#F5F5F5"/>
<path d="M272.1 339.61C272.1 339.76 254.53 339.87 232.85 339.87C211.17 339.87 193.59 339.76 193.59 339.61C193.59 339.46 211.17 339.35 232.85 339.35C254.53 339.35 272.1 339.47 272.1 339.61Z" fill="#F5F5F5"/>
<path d="M367.55 124.43C367.69 122.59 366.05 120.06 364.55 118.6C363.681 117.817 363.06 116.796 362.763 115.665C362.466 114.533 362.507 113.339 362.88 112.23C363.49 109.96 364.93 110.13 365.5 108.79C365.777 107.754 365.889 106.681 365.83 105.61C365.949 104.705 366.253 103.835 366.723 103.053C367.193 102.271 367.819 101.595 368.562 101.065C369.305 100.536 370.149 100.166 371.042 99.9773C371.934 99.7889 372.856 99.7864 373.75 99.97C374.247 98.1954 375.265 96.611 376.674 95.4227C378.082 94.2343 379.815 93.4968 381.648 93.306C383.481 93.1152 385.329 93.4798 386.952 94.3525C388.575 95.2252 389.898 96.5657 390.75 98.2C391.785 97.674 392.934 97.4111 394.095 97.4345C395.256 97.458 396.394 97.7671 397.407 98.3345C398.42 98.9019 399.278 99.7101 399.905 100.688C400.531 101.665 400.908 102.782 401 103.94C402.05 103.27 403.306 103.003 404.537 103.187C405.768 103.37 406.892 103.993 407.7 104.94C408.459 105.931 408.909 107.123 408.995 108.368C409.08 109.613 408.797 110.855 408.18 111.94C407.546 113.016 406.677 113.935 405.638 114.627C404.599 115.32 403.417 115.769 402.18 115.94C399.699 116.255 397.181 115.798 394.97 114.63C392.768 113.47 390.768 111.961 389.05 110.16" fill="#263238"/>
<path d="M383.9 239.35C407.808 239.35 427.19 220.421 427.19 197.07C427.19 173.719 407.808 154.79 383.9 154.79C359.992 154.79 340.61 173.719 340.61 197.07C340.61 220.421 359.992 239.35 383.9 239.35Z" fill="#E0E0E0"/>
<path d="M427.37 197.1L422.58 184.82L405.41 195.61L420.71 219.2C420.71 219.2 426.93 211.12 427.37 197.1Z" fill="#EB996E"/>
<path d="M380 170.5C382.958 170.517 385.809 169.396 387.963 167.369C390.117 165.342 391.408 162.563 391.57 159.61C391.82 154.52 392.04 149.61 392.04 149.61C392.04 149.61 401.48 148.93 402.35 139.69C403.22 130.45 403.35 109.1 403.35 109.1C398.228 106.412 392.486 105.128 386.707 105.379C380.928 105.63 375.319 107.407 370.45 110.53L369.55 111.1L368.46 158.9C368.449 160.421 368.74 161.929 369.316 163.338C369.891 164.746 370.74 166.026 371.813 167.105C372.886 168.183 374.162 169.039 375.567 169.621C376.972 170.204 378.479 170.503 380 170.5Z" fill="#FFBE9D"/>
<path d="M392 149.49C387.692 149.223 383.559 147.689 380.12 145.08C380.12 145.08 382.45 151.97 391.83 151.89L392 149.49Z" fill="#EB996E"/>
<path d="M369.27 124.68C369.278 124.317 369.145 123.965 368.899 123.698C368.653 123.431 368.313 123.271 367.95 123.25C366.21 123.17 363.35 123.8 362.95 128.56C362.43 135.36 369.07 133.79 369.1 133.56C369.13 133.33 369.24 127.33 369.27 124.68Z" fill="#FFBE9D"/>
<path d="M367.68 130.89C367.68 130.89 367.55 130.97 367.34 131.04C367.199 131.099 367.048 131.129 366.895 131.129C366.742 131.129 366.591 131.099 366.45 131.04C366.028 130.73 365.697 130.312 365.491 129.83C365.285 129.348 365.212 128.82 365.28 128.3C365.305 127.716 365.462 127.145 365.74 126.63C365.826 126.419 365.962 126.233 366.136 126.086C366.31 125.94 366.518 125.838 366.74 125.79C366.88 125.762 367.025 125.785 367.15 125.855C367.275 125.924 367.37 126.036 367.42 126.17C367.5 126.36 367.42 126.5 367.48 126.51C367.54 126.52 367.64 126.41 367.6 126.12C367.575 125.949 367.49 125.793 367.36 125.68C367.184 125.524 366.955 125.441 366.72 125.45C366.431 125.487 366.156 125.598 365.923 125.774C365.689 125.949 365.506 126.182 365.39 126.45C365.047 127.012 364.854 127.652 364.83 128.31C364.752 128.915 364.855 129.529 365.126 130.075C365.396 130.621 365.822 131.075 366.35 131.38C366.531 131.445 366.724 131.47 366.916 131.453C367.108 131.436 367.293 131.377 367.46 131.28C367.65 131.06 367.7 130.91 367.68 130.89Z" fill="#EB996E"/>
<path d="M404.62 112C404.62 112 399.01 114.72 391.72 111.08C386.93 108.69 381.36 107.52 380.13 108.48C378.9 109.44 378.64 114.38 373.9 115.82C373.9 115.82 374.22 125.22 370.47 124.89C366.72 124.56 369.06 110 369.06 110L378.24 105.52L388.24 103.63L397.67 104.96L404.97 106.96L404.62 112Z" fill="#263238"/>
<path d="M341.81 166.48C351.62 156.39 368.88 157.48 368.88 157.48L383.19 167.73L391.3 158.28C397.05 159.063 402.632 160.79 407.82 163.39L408.37 163.56V163.67C414.65 167.08 423.53 175.26 432 183.19L421.87 192.59L410.65 202.59C410.676 202.654 410.676 202.726 410.65 202.79C410.54 203.4 412.21 217.09 413.93 227.49C409.047 232.306 403.064 235.86 396.499 237.845C389.933 239.83 382.983 240.185 376.25 238.88C371.66 238.07 369.44 236.96 365.19 235.88C362.128 235.068 359.391 233.331 357.352 230.906C355.314 228.481 354.073 225.486 353.8 222.33C353.04 213.61 352.46 202.81 352.46 202.81" fill="#455A64"/>
<path d="M400.27 160.05C400.521 160.569 400.728 161.107 400.89 161.66C401.26 162.66 401.75 164.23 402.34 166.12C403.52 169.9 405.03 175.12 406.45 181.05C407.87 186.98 408.94 192.31 409.61 196.21C409.95 198.21 410.2 199.75 410.35 200.85C410.457 201.414 410.521 201.986 410.54 202.56C410.364 202.012 410.233 201.45 410.15 200.88C409.92 199.71 409.62 198.16 409.25 196.28C408.48 192.4 407.36 187.05 405.94 181.17C404.52 175.29 403.08 170 402 166.23L400.7 161.72C400.518 161.174 400.374 160.616 400.27 160.05Z" fill="#263238"/>
<path d="M409.48 196.1C409.39 195.99 413.67 192.35 419.04 187.98C424.41 183.61 428.83 180.15 428.92 180.26C429.01 180.37 424.74 184.01 419.37 188.38C414 192.75 409.58 196.21 409.48 196.1Z" fill="#263238"/>
<path opacity="0.2" d="M354.76 180.32L346 209.19L349.27 210.89L352.49 202.73C352.49 202.73 355.77 185.57 354.76 180.32Z" fill="black"/>
<g opacity="0.2">
<path d="M399.32 160.07C404.05 162.56 392.19 168.56 386.84 168.4L390.73 158.14C390.73 158.14 397.73 159.23 399.32 160.07Z" fill="black"/>
</g>
<path d="M367.47 158.14V150.49C367.47 150.49 382.4 154.34 382.94 163.27C382.94 163.27 384.84 153.39 392.54 152.92L393.63 166.81L384.63 174.61H375.6L368.41 168.4L367.47 158.76" fill="#455A64"/>
<path d="M386.31 206.13C386.259 205.585 386.259 205.035 386.31 204.49C386.31 203.43 386.31 201.9 386.36 200.01C386.36 196.24 386.25 191.01 385.78 185.28C385.31 179.55 384.55 174.37 383.92 170.65C383.6 168.86 383.33 167.38 383.13 166.25C383 165.715 382.92 165.17 382.89 164.62C383.077 165.138 383.225 165.669 383.33 166.21C383.59 167.21 383.92 168.73 384.28 170.59C385.205 175.435 385.873 180.325 386.28 185.24C386.684 190.156 386.824 195.089 386.7 200.02C386.65 201.91 386.58 203.44 386.49 204.5C386.468 205.047 386.408 205.592 386.31 206.13Z" fill="#263238"/>
<path d="M382.26 160.7C381.961 160.65 381.655 160.677 381.37 160.78C380.637 161.193 380.098 161.88 379.87 162.69C378.637 165.357 377.675 168.141 377 171L376.92 171.34L376.62 171.16C375.73 170.62 374.81 170.04 373.89 169.42C372.214 168.279 370.598 167.05 369.05 165.74C368.346 165.152 367.782 164.414 367.4 163.58C367.099 162.845 366.93 162.063 366.9 161.27C366.87 160.147 366.981 159.025 367.23 157.93C367.29 157.521 367.401 157.121 367.56 156.74C367.547 157.149 367.504 157.557 367.43 157.96C367.26 159.048 367.207 160.151 367.27 161.25C367.318 161.992 367.497 162.72 367.8 163.4C368.166 164.176 368.703 164.86 369.37 165.4C370.78 166.58 372.42 167.8 374.18 169C375.1 169.62 376 170.21 376.89 170.75L376.51 170.91C377.178 168.038 378.185 165.255 379.51 162.62C379.714 162.158 379.976 161.725 380.29 161.33C380.536 161.025 380.867 160.799 381.24 160.68C382 160.44 382.28 160.69 382.26 160.7Z" fill="#263238"/>
<path d="M392.54 152.92C392.631 153.31 392.678 153.709 392.68 154.11L392.92 157.37C393.03 158.74 393.2 160.37 393.48 162.16C393.72 163.121 393.781 164.117 393.66 165.1C393.281 166.131 392.58 167.011 391.66 167.61C390.491 168.336 389.393 169.169 388.38 170.1L387.98 170.55V169.95C387.799 167.338 387.044 164.798 385.77 162.51C384.82 160.8 384.04 159.93 384.1 159.88C384.16 159.83 384.34 160.06 384.69 160.47C385.192 161.06 385.647 161.688 386.05 162.35C387.441 164.649 388.273 167.241 388.48 169.92L388.04 169.77C389.068 168.8 390.19 167.936 391.39 167.19C392.203 166.656 392.826 165.879 393.17 164.97C393.275 164.054 393.221 163.127 393.01 162.23C392.76 160.42 392.63 158.77 392.56 157.39C392.49 156.01 392.48 154.89 392.49 154.12C392.456 153.72 392.473 153.316 392.54 152.92Z" fill="#263238"/>
<path d="M440.61 154.84C440 155.55 418 185 418 185L421.1 186.76L443.66 157.76L440.61 154.84Z" fill="#263238"/>
<path d="M352.28 178.08C352.28 178.08 375.41 211.38 376.81 212.03C379.55 213.32 411.19 185.98 414.21 183.36C414.63 182.8 415.49 181.63 417.21 179.3C417.21 179.3 419.71 167.88 422.37 168.75C425.03 169.62 420.91 174.56 422.65 178.9C424.39 183.24 432.33 172.9 432.65 171.96L434.7 169.28C434.7 169.28 436.85 175.37 436.7 177.92C436.23 186.07 428.52 195.76 428.52 195.76C428.52 195.76 393.89 238.66 370.17 239.99C363.34 240.37 351.17 220.99 343.08 206.45C340.717 202.204 339.99 197.241 341.034 192.496C342.079 187.75 344.823 183.551 348.75 180.69L352.28 178.08Z" fill="#FFBE9D"/>
<path d="M432.77 179.36C433.213 178.336 433.707 177.335 434.25 176.36C434.696 175.334 435.197 174.332 435.75 173.36C435.12 175.524 434.103 177.557 432.75 179.36H432.77Z" fill="#EB996E"/>
<path d="M348.37 161.83C348.37 161.83 323.54 170.66 342 212.41L370.66 195.11L366.58 185.35L348.37 161.83Z" fill="#455A64"/>
<path d="M346.47 162.56C347.477 162.466 348.492 162.551 349.47 162.81C350.614 163.106 351.709 163.568 352.72 164.18C354.056 165.012 355.274 166.021 356.34 167.18C359.048 170.204 361.316 173.594 363.08 177.25C365.18 181.31 367.14 185.94 369.15 190.79C369.75 192.25 370.35 193.68 370.91 195.04L371 195.26L370.79 195.37C362.5 199.89 355.28 204.12 350.18 207.29C347.62 208.87 345.59 210.17 344.18 211.07L342.58 212.07C342.397 212.197 342.203 212.308 342 212.4C342.159 212.246 342.333 212.109 342.52 211.99C342.87 211.73 343.39 211.35 344.08 210.88C345.44 209.88 347.45 208.58 349.98 206.96C355.04 203.71 362.24 199.41 370.54 194.88L370.42 195.2C369.86 193.84 369.26 192.41 368.66 190.95C366.66 186.1 364.66 181.48 362.66 177.43C360.93 173.814 358.717 170.449 356.08 167.43C355.049 166.281 353.873 165.273 352.58 164.43C351.591 163.809 350.521 163.328 349.4 163C348.438 162.77 347.457 162.623 346.47 162.56Z" fill="#263238"/>
<path d="M399.87 100.66C399.933 100.799 399.974 100.948 399.99 101.1C400.066 101.526 400.093 101.958 400.07 102.39C399.974 104.014 399.3 105.55 398.17 106.72C397.312 107.577 396.238 108.186 395.062 108.483C393.887 108.781 392.653 108.755 391.49 108.41C390.082 108.036 388.863 107.152 388.07 105.93C387.65 105.256 387.47 104.459 387.56 103.67C387.606 103.259 387.739 102.862 387.951 102.506C388.163 102.151 388.449 101.845 388.79 101.61C389.145 101.386 389.551 101.255 389.97 101.227C390.389 101.199 390.808 101.275 391.19 101.45C391.931 101.764 392.52 102.357 392.83 103.1C393.077 103.793 393.145 104.537 393.03 105.264C392.915 105.991 392.619 106.677 392.17 107.26C391.419 108.232 390.349 108.907 389.149 109.167C387.949 109.427 386.695 109.254 385.61 108.68C384.827 108.27 383.998 107.954 383.14 107.74C382.499 107.596 381.828 107.666 381.23 107.94C380.73 108.21 380.254 108.525 379.81 108.88C379.81 108.88 379.9 108.75 380.1 108.53C380.223 108.393 380.361 108.269 380.51 108.16C380.706 107.997 380.921 107.86 381.15 107.75C381.768 107.441 382.468 107.336 383.15 107.45C384.041 107.642 384.904 107.945 385.72 108.35C386.183 108.554 386.666 108.712 387.16 108.82C387.692 108.92 388.238 108.92 388.77 108.82C389.967 108.63 391.044 107.981 391.77 107.01C392.165 106.493 392.425 105.886 392.527 105.244C392.628 104.601 392.567 103.943 392.35 103.33C392.231 103.02 392.048 102.738 391.813 102.504C391.578 102.269 391.296 102.086 390.986 101.967C390.675 101.849 390.344 101.796 390.012 101.814C389.68 101.832 389.356 101.919 389.06 102.07C388.784 102.268 388.552 102.521 388.38 102.814C388.208 103.107 388.099 103.433 388.06 103.77C387.989 104.444 388.144 105.123 388.5 105.7C389.225 106.817 390.336 107.628 391.62 107.98C392.705 108.312 393.859 108.35 394.962 108.088C396.066 107.826 397.08 107.274 397.9 106.49C399 105.395 399.689 103.954 399.85 102.41C399.893 101.828 399.899 101.243 399.87 100.66Z" fill="#455A64"/>
<path d="M368.24 134C368.29 134 368.57 134.44 368.24 135.13C368.136 135.325 367.993 135.497 367.822 135.636C367.65 135.775 367.452 135.878 367.24 135.94C366.968 136.001 366.685 135.996 366.415 135.924C366.145 135.853 365.897 135.718 365.69 135.53C365.464 135.346 365.285 135.112 365.165 134.846C365.045 134.581 364.989 134.291 365 134C365.017 133.56 365.179 133.139 365.46 132.8C365.94 132.24 366.46 132.18 366.46 132.24C366.46 132.3 366.1 132.49 365.78 133.02C365.575 133.327 365.487 133.698 365.531 134.064C365.575 134.431 365.748 134.77 366.02 135.02C366.167 135.154 366.342 135.253 366.532 135.31C366.723 135.367 366.924 135.381 367.12 135.35C367.45 135.276 367.741 135.084 367.94 134.81C368.26 134.4 368.16 134 368.24 134Z" fill="#263238"/>
<path d="M401.52 104C401.849 104.556 402.016 105.194 402 105.84C402.079 107.419 401.545 108.968 400.508 110.162C399.472 111.357 398.015 112.105 396.44 112.25C395.802 112.359 395.146 112.283 394.55 112.03C394.55 111.94 395.28 112.03 396.39 111.88C397.831 111.659 399.147 110.935 400.106 109.837C401.065 108.739 401.605 107.337 401.63 105.88C401.66 104.74 401.43 104.05 401.52 104Z" fill="#455A64"/>
<path d="M367.7 187.7C367.76 187.83 361.17 191.22 352.97 195.27C344.77 199.32 338.08 202.51 337.97 202.38C337.86 202.25 344.49 198.86 352.69 194.8C360.89 190.74 367.64 187.57 367.7 187.7Z" fill="#E0E0E0"/>
<path d="M361.69 176.36C361.76 176.48 355.89 179.77 348.58 183.69C341.27 187.61 335.29 190.69 335.23 190.56C335.17 190.43 341.03 187.15 348.34 183.23C355.65 179.31 361.62 176.23 361.69 176.36Z" fill="#E0E0E0"/>
<path d="M355.88 167.19C354.946 167.837 353.967 168.415 352.95 168.92L345.77 172.92L338.63 177C337.67 177.611 336.667 178.152 335.63 178.62C336.513 177.898 337.457 177.252 338.45 176.69C340.23 175.56 342.72 174.06 345.52 172.47C348.32 170.88 350.9 169.54 352.79 168.6C353.778 168.042 354.812 167.571 355.88 167.19Z" fill="#E0E0E0"/>
<path d="M377.85 165C377.173 164.968 376.512 164.791 375.91 164.48C374.445 163.823 373.094 162.935 371.91 161.85C370.723 160.766 369.632 159.582 368.65 158.31C368.201 157.82 367.821 157.272 367.52 156.68C367.58 156.68 368.1 157.17 368.93 158.08C369.76 158.99 370.88 160.23 372.26 161.46C373.422 162.516 374.716 163.416 376.11 164.14C377.14 164.71 377.87 164.94 377.85 165Z" fill="#E0E0E0"/>
<path d="M392.43 159.6C392.1 160.806 391.37 161.863 390.36 162.6C389.465 163.474 388.296 164.014 387.05 164.13C388.086 163.545 389.088 162.901 390.05 162.2C390.886 161.374 391.681 160.506 392.43 159.6Z" fill="#E0E0E0"/>
<path d="M418.44 174.65C418.258 174.706 418.07 174.74 417.88 174.75L416.27 174.95C414.87 175.11 412.84 175.3 410.34 175.5C405.34 175.9 398.34 176.29 390.71 176.57C383.08 176.85 376.09 176.94 371.05 176.9C368.54 176.9 366.5 176.83 365.1 176.78L363.48 176.7C363.291 176.7 363.103 176.677 362.92 176.63C363.106 176.606 363.294 176.606 363.48 176.63H365.1L371.05 176.58C376.05 176.53 383.05 176.37 390.69 176.1C398.33 175.83 405.29 175.48 410.31 175.18L416.25 174.8L417.87 174.7C418.057 174.657 418.249 174.641 418.44 174.65Z" fill="#E0E0E0"/>
<path d="M410.54 186.51C410 186.633 409.452 186.72 408.9 186.77C407.83 186.9 406.29 187.06 404.39 187.24C400.58 187.59 395.31 187.95 389.48 188.19C383.65 188.43 378.36 188.48 374.48 188.44C372.57 188.44 371.02 188.38 369.95 188.34C369.394 188.344 368.839 188.301 368.29 188.21C368.841 188.144 369.396 188.117 369.95 188.13L374.48 188.07C378.3 188.07 383.58 187.9 389.4 187.67C395.22 187.44 400.5 187.13 404.31 186.87L408.83 186.56C409.397 186.49 409.97 186.473 410.54 186.51Z" fill="#E0E0E0"/>
<path d="M392.61 201.13C391.522 201.381 390.415 201.539 389.3 201.6C387.24 201.81 384.4 202.04 381.25 202.2C378.1 202.36 375.25 202.41 373.18 202.4C372.065 202.452 370.948 202.409 369.84 202.27C370.942 202.102 372.055 202.021 373.17 202.03L381.22 201.68L389.22 201.23C390.346 201.119 391.479 201.086 392.61 201.13Z" fill="#E0E0E0"/>
<path d="M369.7 166.43C369.7 166.58 366.63 166.61 362.85 166.77C359.07 166.93 356.02 167.14 356 166.99C360.521 166.191 365.129 166.002 369.7 166.43Z" fill="#E0E0E0"/>
<path d="M411.88 165.89C408.927 166.133 405.962 166.206 403 166.11C400.034 166.188 397.065 166.091 394.11 165.82C397.066 165.57 400.035 165.494 403 165.59C405.963 165.511 408.929 165.611 411.88 165.89Z" fill="#E0E0E0"/>
<path d="M413.42 226.74C413.139 226.949 412.833 227.124 412.51 227.26C411.91 227.57 411.02 227.98 409.91 228.45C406.993 229.651 403.983 230.611 400.91 231.32C397.838 232.021 394.715 232.472 391.57 232.67C390.37 232.74 389.39 232.76 388.71 232.74C388.375 232.756 388.039 232.732 387.71 232.67C387.71 232.59 389.19 232.53 391.58 232.3C394.692 232.001 397.781 231.503 400.83 230.81C403.887 230.108 406.894 229.203 409.83 228.1C412 227.26 413.39 226.66 413.42 226.74Z" fill="#E0E0E0"/>
<path d="M143.29 362.85C167.198 362.85 186.58 344.359 186.58 321.55C186.58 298.741 167.198 280.25 143.29 280.25C119.382 280.25 100 298.741 100 321.55C100 344.359 119.382 362.85 143.29 362.85Z" fill="#E0E0E0"/>
<path d="M134.47 222C127.61 222.36 124.91 229.52 124.09 231.12C123.386 232.778 123.012 234.558 122.99 236.36C122.969 238.164 122.516 239.937 121.67 241.53C120.16 243.94 116.98 245.19 116.12 247.9C115.12 250.97 117.65 254.25 116.98 257.4C116.62 259.09 115.39 260.48 114.98 262.15C114.602 263.935 114.935 265.797 115.91 267.34C118.16 271.22 122.84 273.16 127.32 273.34C131.8 273.52 136.18 272.16 140.47 270.84" fill="#263238"/>
<path d="M164.69 230.88C164.427 231.638 164.381 232.455 164.557 233.238C164.734 234.021 165.126 234.738 165.69 235.31C166.842 236.415 168.086 237.418 169.41 238.31C170.071 238.766 170.636 239.347 171.072 240.022C171.508 240.696 171.806 241.45 171.95 242.24C172.08 243.7 171.34 245.16 171.54 246.61C172.06 250.36 178.03 251.48 178.34 255.24C178.56 257.75 175.98 260.06 176.7 262.47C177.09 263.374 177.594 264.224 178.2 265C179.9 267.82 178.75 271.7 176.29 273.88C173.83 276.06 170.43 276.83 167.15 276.98C164.39 277.1 161.25 276.65 159.63 274.42C158.14 272.37 158.45 269.59 158.74 267.08C160.13 255.36 159.89 243.52 159.66 231.72" fill="#263238"/>
<path d="M136.28 285.11C136.33 278.95 136.28 272.47 136.28 272.47C136.28 272.47 128.37 271.06 126.84 260.7C125.39 250.81 127.84 229.55 127.84 229.55C139.31 225.02 152.23 226.77 160.26 236L159 286C158.86 291.8 153.75 296.3 147.54 296.1C141.27 295.89 136.23 291 136.28 285.11Z" fill="#FFBE9D"/>
<path d="M136.27 272.47C141.141 272.602 145.952 271.38 150.17 268.94C150.17 268.94 146.73 276.01 136.38 274.94L136.27 272.47Z" fill="#EB996E"/>
<path d="M155.76 228.62C151.98 234.02 141.95 239.57 134.76 240.86C135.59 239.76 140 237.04 140.84 235.94C137.59 238.36 132.93 241.62 128.62 241.83C128.112 241.905 127.592 241.824 127.13 241.6C126.888 241.406 126.694 241.159 126.564 240.878C126.434 240.597 126.371 240.29 126.38 239.98C126.135 236.852 126.235 233.706 126.68 230.6C127.022 227.975 128.357 225.581 130.41 223.91C133.18 221.77 137.13 221.25 140.86 221.16C143.982 220.957 147.113 221.379 150.07 222.4C152.93 223.52 155.38 225.75 155.8 228.4" fill="#263238"/>
<path d="M166.62 252.81C167.094 250.526 167.428 248.215 167.62 245.89C167.93 240.55 166.39 220.89 147.98 222.43L147.23 228.04C147.23 228.04 144.39 247.23 156.3 247.37C157.1 251.655 159.194 255.591 162.3 258.65C162.3 258.65 165.42 258.56 166.54 252.81" fill="#263238"/>
<path d="M156.33 247.37C157.442 247.151 158.593 247.238 159.66 247.62C160.729 248.023 161.595 248.832 162.07 249.87C162.485 250.931 162.485 252.109 162.07 253.17C161.642 254.22 160.986 255.163 160.15 255.93C159.599 256.522 158.913 256.971 158.15 257.24C157.765 257.373 157.353 257.407 156.952 257.341C156.55 257.275 156.172 257.109 155.85 256.86" fill="#FFBE9D"/>
<path d="M156.86 254.09C156.73 254.09 157.21 254.8 158.22 254.54C158.492 254.454 158.744 254.314 158.96 254.128C159.177 253.943 159.353 253.716 159.48 253.46C159.793 252.898 159.99 252.279 160.06 251.64C160.156 250.941 159.996 250.231 159.61 249.64C159.454 249.393 159.243 249.186 158.993 249.035C158.743 248.884 158.461 248.793 158.17 248.77C157.17 248.77 156.8 249.45 156.91 249.47C157.02 249.49 157.4 249.19 158.08 249.36C158.496 249.522 158.84 249.828 159.047 250.224C159.255 250.619 159.313 251.076 159.21 251.51C159.08 252.65 158.63 253.69 158.02 253.94C157.41 254.19 156.93 254 156.86 254.09Z" fill="#EB996E"/>
<path d="M158.34 226.6C159.767 227.41 161.455 227.629 163.041 227.21C164.628 226.792 165.988 225.769 166.83 224.36C167.413 223.476 167.621 222.397 167.41 221.36C167.174 220.682 166.764 220.078 166.222 219.608C165.68 219.138 165.024 218.818 164.32 218.68C163.313 218.417 162.258 218.407 161.246 218.649C160.234 218.891 159.298 219.38 158.52 220.07C157.759 220.783 157.214 221.696 156.949 222.704C156.684 223.712 156.708 224.775 157.02 225.77C157.373 226.748 158.023 227.591 158.878 228.182C159.732 228.774 160.75 229.084 161.79 229.07" fill="#263238"/>
<path d="M160 256.44C158.946 257.139 157.985 257.969 157.14 258.91C156.294 259.866 155.853 261.114 155.91 262.39C156.065 263.079 156.142 263.784 156.14 264.49C155.836 265.415 155.342 266.267 154.69 266.99C154.086 268.097 153.85 269.367 154.018 270.617C154.185 271.867 154.746 273.031 155.62 273.94C157.435 275.725 159.884 276.717 162.43 276.7C163.895 276.825 165.361 276.474 166.61 275.7C168.33 274.5 168.99 272.24 169.04 270.13" fill="#263238"/>
<path d="M161.26 230.73C161.005 231.412 160.641 232.047 160.18 232.61C159.163 234.047 157.971 235.35 156.63 236.49C155.299 237.643 153.832 238.627 152.26 239.42C151.638 239.785 150.963 240.051 150.26 240.21C152.385 239.001 154.411 237.627 156.32 236.1C158.104 234.442 159.756 232.646 161.26 230.73Z" fill="#455A64"/>
<path d="M163.17 230.62C163.198 231.476 163.087 232.33 162.84 233.15C162.347 235.152 161.558 237.07 160.5 238.84C159.435 240.605 158.11 242.199 156.57 243.57C155.96 244.171 155.258 244.671 154.49 245.05C156.628 243.151 158.498 240.972 160.05 238.57C161.45 236.076 162.499 233.401 163.17 230.62Z" fill="#455A64"/>
<path d="M123.2 239C123.35 239 123.55 240.72 124.2 242.77C124.85 244.82 125.54 246.39 125.4 246.46C123.853 244.29 123.078 241.663 123.2 239Z" fill="#455A64"/>
<path d="M167.31 274.34C167.763 274.638 168.288 274.807 168.83 274.83C169.459 274.821 170.072 274.627 170.59 274.27C171.255 273.78 171.726 273.072 171.92 272.27C172.16 271.284 172.16 270.256 171.92 269.27C171.71 268.18 171.29 267.06 170.92 265.83C170.467 264.548 170.313 263.18 170.47 261.83C170.7 260.37 171.65 259.18 172.11 257.83C172.328 257.185 172.414 256.504 172.364 255.826C172.314 255.147 172.129 254.486 171.82 253.88C171.251 252.731 170.274 251.836 169.08 251.37C168.494 251.151 167.92 250.9 167.36 250.62C166.802 250.344 166.328 249.923 165.99 249.4C165.494 248.428 165.279 247.337 165.37 246.25C165.437 245.402 165.404 244.55 165.27 243.71C165.16 243.085 164.903 242.496 164.52 241.99C164.175 241.568 163.701 241.273 163.17 241.15C163.315 241.115 163.465 241.115 163.61 241.15C164.025 241.258 164.397 241.488 164.68 241.81C165.104 242.333 165.405 242.945 165.56 243.6C165.731 244.459 165.791 245.336 165.74 246.21C165.67 247.219 165.884 248.227 166.36 249.12C166.92 250.04 168.08 250.42 169.26 250.89C170.566 251.388 171.637 252.359 172.26 253.61C172.603 254.276 172.809 255.004 172.868 255.751C172.926 256.498 172.835 257.249 172.6 257.96C172.08 259.39 171.16 260.53 170.96 261.84C170.808 263.125 170.948 264.427 171.37 265.65C171.72 266.85 172.13 268 172.37 269.13C172.593 270.189 172.562 271.285 172.28 272.33C172.042 273.208 171.5 273.974 170.75 274.49C170.178 274.864 169.502 275.046 168.82 275.01C168.392 274.991 167.977 274.856 167.62 274.62C167.498 274.549 167.393 274.454 167.31 274.34Z" fill="#455A64"/>
<path d="M160.09 273.63C160.09 273.63 160.22 273.95 160.7 274.18C161.036 274.319 161.409 274.343 161.761 274.247C162.112 274.151 162.421 273.941 162.64 273.65C162.898 273.162 163.019 272.614 162.991 272.063C162.963 271.512 162.786 270.979 162.48 270.52C161.91 269.39 160.78 268.28 160.48 266.63C160.398 266.228 160.405 265.813 160.5 265.414C160.595 265.015 160.776 264.642 161.03 264.32C161.52 263.72 162.1 263.32 162.47 262.83C163.11 261.895 163.361 260.747 163.17 259.63C163.046 258.858 162.856 258.099 162.6 257.36C162.484 257.092 162.403 256.809 162.36 256.52C162.36 256.52 162.55 256.78 162.78 257.29C163.129 258.017 163.381 258.787 163.53 259.58C163.658 260.183 163.665 260.806 163.55 261.412C163.435 262.018 163.2 262.595 162.86 263.11C162.43 263.69 161.86 264.11 161.44 264.64C161.23 264.906 161.081 265.215 161.003 265.545C160.925 265.875 160.921 266.218 160.99 266.55C161.23 267.98 162.29 269.07 162.9 270.3C163.229 270.837 163.403 271.455 163.403 272.085C163.403 272.715 163.229 273.333 162.9 273.87C162.748 274.067 162.557 274.231 162.338 274.35C162.119 274.468 161.878 274.54 161.63 274.56C161.265 274.603 160.895 274.533 160.57 274.36C160.07 274 160.07 273.62 160.09 273.63Z" fill="#455A64"/>
<path d="M120.89 271C120.583 270.766 120.308 270.494 120.07 270.19C119.356 269.409 118.769 268.522 118.33 267.56C118.034 266.872 117.89 266.128 117.91 265.38C117.915 264.493 118.225 263.634 118.79 262.95C119.41 262.24 120.31 261.86 120.85 261.19C121.112 260.822 121.285 260.399 121.356 259.953C121.427 259.507 121.394 259.051 121.26 258.62C121.016 257.695 120.649 256.807 120.17 255.98C119.701 255.161 119.363 254.274 119.17 253.35C119.008 252.476 119.191 251.572 119.68 250.83C120.117 250.237 120.627 249.703 121.2 249.24C122.027 248.641 122.629 247.782 122.91 246.8C122.978 246.436 122.978 246.063 122.91 245.7C122.91 245.7 122.99 245.78 123.06 245.96C123.16 246.238 123.191 246.537 123.15 246.83C122.934 247.893 122.345 248.843 121.49 249.51C120.962 249.971 120.489 250.491 120.08 251.06C119.666 251.717 119.522 252.509 119.68 253.27C119.886 254.139 120.223 254.972 120.68 255.74C121.185 256.604 121.572 257.533 121.83 258.5C121.978 259.007 122.008 259.54 121.918 260.06C121.828 260.58 121.62 261.073 121.31 261.5C120.63 262.3 119.73 262.65 119.21 263.26C118.704 263.852 118.418 264.601 118.4 265.38C118.369 266.062 118.482 266.744 118.73 267.38C119.123 268.329 119.648 269.218 120.29 270.02C120.521 270.326 120.722 270.655 120.89 271Z" fill="#455A64"/>
<path d="M162.59 227.9C161.875 226.931 161.057 226.042 160.15 225.25C159.142 224.594 158.066 224.051 156.94 223.63C158.213 223.65 159.446 224.075 160.462 224.842C161.478 225.61 162.223 226.681 162.59 227.9Z" fill="#DC6B19"/>
<path d="M164 218.33C164.06 218.33 164.39 218.69 164.66 219.46C165.006 220.484 165.037 221.589 164.75 222.631C164.463 223.674 163.871 224.607 163.05 225.31C162.41 225.84 161.93 226 161.9 225.95C161.87 225.9 162.27 225.61 162.79 225.05C163.482 224.335 163.984 223.458 164.25 222.499C164.515 221.54 164.536 220.529 164.31 219.56C164.171 219.16 164.068 218.748 164 218.33Z" fill="#455A64"/>
<path opacity="0.3" d="M113.25 341.34C113.25 341.34 138.1 364.94 152.87 360.66C167.64 356.38 172 345.31 172 345.31L172.36 341.31L170.88 340.31L114 335.77L113.25 341.34Z" fill="black"/>
<path d="M98.5601 319.24L103.35 307L120.52 317.79L105.22 341.38C105.22 341.38 99.0001 333.26 98.5601 319.24Z" fill="#EB996E"/>
<path d="M117.93 285.3C125.93 281.12 136.27 279.92 136.27 279.92C139.27 285.92 148.74 286.69 154.47 282.59L159.31 279.32C159.978 279.31 160.646 279.34 161.31 279.41C166.83 279.928 172.036 282.211 176.157 285.919C180.278 289.628 183.095 294.565 184.19 300C185.144 304.264 185.551 308.633 185.4 313C184.77 323.93 173.46 324.92 173.46 324.92C173.46 324.92 172.88 335.71 172.11 344.44C171.944 347.481 170.93 350.415 169.182 352.909C167.434 355.402 165.022 357.357 162.22 358.55C158.259 360.531 153.999 361.845 149.61 362.44C142.759 363.512 135.75 362.888 129.196 360.621C122.642 358.355 116.745 354.515 112.02 349.44C113.74 339.04 115.38 325.57 115.26 324.96C115.24 324.895 115.24 324.825 115.26 324.76L104.05 314.81L97.6899 309.47C97.6899 309.47 111.69 288.77 117.91 285.37" fill="#DC6B19"/>
<path d="M131.83 292C130.984 291.519 130.033 291.255 129.06 291.23C128.021 291.228 127.012 291.58 126.2 292.23C125.739 292.653 125.311 293.111 124.92 293.6C124.474 294.198 123.834 294.622 123.11 294.8C122.361 294.894 121.604 294.693 121 294.24C120.42 293.87 119.93 293.47 119.42 293.18C118.982 292.922 118.491 292.765 117.984 292.72C117.478 292.675 116.967 292.743 116.49 292.92C115.822 293.147 115.23 293.556 114.78 294.1C114.47 294.49 114.36 294.75 114.31 294.73C114.348 294.458 114.454 294.199 114.62 293.98C115.039 293.343 115.648 292.853 116.36 292.58C116.887 292.354 117.459 292.253 118.031 292.285C118.603 292.316 119.161 292.478 119.66 292.76C120.22 293.06 120.72 293.47 121.27 293.81C121.771 294.187 122.397 294.359 123.02 294.29C123.626 294.134 124.164 293.783 124.55 293.29C124.956 292.783 125.408 292.314 125.9 291.89C126.802 291.194 127.922 290.839 129.06 290.89C129.812 290.916 130.547 291.126 131.2 291.5C131.66 291.78 131.85 292 131.83 292Z" fill="#FAFAFA"/>
<path d="M143.22 307C142.574 306.27 141.756 305.713 140.84 305.38C139.868 305.047 138.812 305.047 137.84 305.38C137.273 305.639 136.726 305.936 136.2 306.27C135.585 306.691 134.843 306.889 134.1 306.83C133.359 306.679 132.706 306.245 132.28 305.62C131.85 305.09 131.51 304.55 131.12 304.11C130.787 303.726 130.373 303.422 129.908 303.217C129.442 303.013 128.938 302.915 128.43 302.93C127.724 302.937 127.033 303.134 126.43 303.5C126.01 303.77 125.82 303.98 125.78 303.95C125.74 303.92 125.91 303.67 126.32 303.33C127.085 302.755 128.035 302.484 128.988 302.569C129.941 302.654 130.829 303.089 131.48 303.79C131.91 304.26 132.26 304.79 132.67 305.3C133.03 305.806 133.564 306.162 134.17 306.3C134.801 306.333 135.425 306.162 135.95 305.81C136.498 305.457 137.077 305.156 137.68 304.91C138.762 304.54 139.94 304.572 141 305C141.709 305.259 142.342 305.693 142.84 306.26C143.14 306.67 143.24 306.94 143.22 307Z" fill="#FAFAFA"/>
<path d="M168.53 285.1C167.601 284.812 166.616 284.753 165.66 284.93C164.642 285.146 163.728 285.704 163.07 286.51C162.716 287.02 162.398 287.555 162.12 288.11C161.807 288.791 161.271 289.345 160.6 289.68C159.885 289.918 159.107 289.879 158.42 289.57C157.78 289.33 157.21 289.04 156.65 288.86C156.166 288.703 155.652 288.656 155.147 288.722C154.642 288.787 154.158 288.964 153.73 289.24C153.13 289.607 152.639 290.128 152.31 290.75C152.09 291.19 152.03 291.48 151.99 291.47C151.95 291.46 151.99 291.17 152.13 290.66C152.492 289.774 153.17 289.053 154.033 288.638C154.895 288.222 155.881 288.141 156.8 288.41C157.41 288.59 157.99 288.87 158.59 289.09C159.158 289.355 159.806 289.391 160.4 289.19C160.962 288.901 161.413 288.433 161.68 287.86C161.963 287.281 162.298 286.729 162.68 286.21C163.42 285.339 164.443 284.758 165.57 284.57C166.311 284.432 167.075 284.483 167.79 284.72C168.065 284.781 168.32 284.912 168.53 285.1Z" fill="#FAFAFA"/>
<path d="M156.85 301.5C156.353 300.949 155.742 300.512 155.06 300.22C154.324 299.933 153.512 299.909 152.76 300.15C152.314 300.321 151.882 300.529 151.47 300.77C150.968 301.08 150.376 301.211 149.79 301.14C149.212 300.999 148.71 300.641 148.39 300.14C148.08 299.71 147.84 299.28 147.56 298.93C147.322 298.624 147.02 298.376 146.673 298.203C146.327 298.03 145.947 297.937 145.56 297.93C144.82 297.934 144.099 298.161 143.49 298.58C143.49 298.58 143.59 298.36 143.91 298.11C144.521 297.683 145.269 297.498 146.008 297.593C146.748 297.687 147.426 298.053 147.91 298.62C148.23 299 148.49 299.43 148.78 299.82C149.027 300.221 149.416 300.514 149.87 300.64C150.79 300.8 151.63 299.97 152.59 299.7C153.448 299.45 154.368 299.518 155.18 299.89C156.59 300.52 156.91 301.52 156.85 301.5Z" fill="#FAFAFA"/>
<path d="M131.1 315.32C130.597 314.771 129.984 314.334 129.3 314.04C128.561 313.763 127.749 313.749 127 314C126.555 314.173 126.123 314.38 125.71 314.62C125.202 314.943 124.597 315.077 124 315C123.426 314.856 122.929 314.498 122.61 314C122.29 313.57 122.05 313.14 121.78 312.8C121.541 312.496 121.238 312.249 120.892 312.076C120.546 311.903 120.166 311.809 119.78 311.8C119.04 311.799 118.317 312.026 117.71 312.45C117.71 312.45 117.8 312.23 118.13 311.98C118.609 311.628 119.186 311.435 119.78 311.43C120.23 311.413 120.678 311.499 121.089 311.683C121.5 311.867 121.863 312.143 122.15 312.49C122.47 312.87 122.72 313.3 123.02 313.69C123.262 314.091 123.649 314.384 124.1 314.51C125.02 314.67 125.87 313.84 126.83 313.57C127.685 313.32 128.601 313.387 129.41 313.76C130.83 314.34 131.15 315.34 131.1 315.32Z" fill="#FAFAFA"/>
<path d="M155.17 315.64C154.526 315.266 153.803 315.047 153.06 315C152.271 314.971 151.495 315.211 150.86 315.68C150.5 315.986 150.166 316.32 149.86 316.68C149.484 317.134 148.966 317.448 148.39 317.57C147.794 317.614 147.203 317.428 146.74 317.05C146.3 316.75 145.94 316.42 145.56 316.18C145.236 315.971 144.87 315.837 144.487 315.787C144.105 315.737 143.717 315.772 143.35 315.89C142.651 316.136 142.042 316.585 141.6 317.18C141.6 317.18 141.6 316.94 141.85 316.59C142.193 316.104 142.679 315.737 143.24 315.54C143.659 315.378 144.111 315.315 144.558 315.357C145.006 315.398 145.438 315.543 145.82 315.78C146.24 316.03 146.62 316.36 147.03 316.63C147.39 316.931 147.852 317.081 148.32 317.05C149.24 316.91 149.77 315.85 150.59 315.28C151.322 314.769 152.211 314.535 153.1 314.62C153.499 314.623 153.893 314.717 154.251 314.894C154.61 315.07 154.924 315.325 155.17 315.64Z" fill="#FAFAFA"/>
<path d="M147.22 326.62C146.57 326.259 145.851 326.041 145.11 325.98C144.318 325.952 143.539 326.191 142.9 326.66C142.543 326.968 142.208 327.302 141.9 327.66C141.526 328.115 141.007 328.429 140.43 328.55C139.836 328.592 139.247 328.41 138.78 328.04C138.34 327.73 137.98 327.4 137.6 327.17C137.278 326.958 136.912 326.821 136.529 326.769C136.147 326.717 135.757 326.751 135.39 326.87C134.689 327.112 134.079 327.562 133.64 328.16C133.662 327.944 133.746 327.74 133.88 327.57C134.322 326.955 134.979 326.53 135.721 326.38C136.463 326.23 137.234 326.365 137.88 326.76C138.31 327.01 138.69 327.34 139.1 327.61C139.46 327.911 139.922 328.061 140.39 328.03C141.31 327.89 141.84 326.83 142.66 326.26C143.393 325.752 144.282 325.518 145.17 325.6C145.566 325.609 145.955 325.705 146.309 325.881C146.663 326.057 146.974 326.309 147.22 326.62Z" fill="#FAFAFA"/>
<path d="M130.43 353.88C129.919 353.337 129.298 352.907 128.61 352.62C127.866 352.358 127.054 352.358 126.31 352.62C125.867 352.803 125.439 353.02 125.03 353.27C124.534 353.585 123.944 353.719 123.36 353.65C122.778 353.513 122.272 353.154 121.95 352.65C121.63 352.23 121.38 351.8 121.1 351.46C120.86 351.158 120.556 350.911 120.211 350.739C119.865 350.566 119.486 350.471 119.1 350.46C118.358 350.47 117.638 350.712 117.04 351.15C117.04 351.15 117.13 350.92 117.45 350.66C117.93 350.309 118.506 350.113 119.1 350.1C119.547 350.074 119.994 350.15 120.406 350.324C120.819 350.497 121.186 350.763 121.48 351.1C121.8 351.48 122.06 351.91 122.36 352.29C122.611 352.687 123.005 352.974 123.46 353.09C124.38 353.24 125.21 352.4 126.17 352.09C127.025 351.832 127.943 351.889 128.76 352.25C130.14 352.9 130.48 353.89 130.43 353.88Z" fill="#FAFAFA"/>
<path d="M150.08 359.68C149.444 359.306 148.734 359.074 148 359C147.211 358.962 146.433 359.191 145.79 359.65C145.43 359.955 145.096 360.29 144.79 360.65C144.408 361.096 143.887 361.399 143.31 361.51C142.715 361.553 142.127 361.363 141.67 360.98C141.23 360.67 140.87 360.33 140.5 360.09C140.178 359.876 139.814 359.736 139.432 359.679C139.05 359.622 138.66 359.649 138.29 359.76C137.589 359.997 136.976 360.44 136.53 361.03C136.53 361.03 136.53 360.79 136.78 360.45C137.135 359.983 137.623 359.634 138.18 359.45C138.604 359.301 139.055 359.248 139.502 359.297C139.948 359.345 140.378 359.493 140.76 359.73C141.18 359.99 141.56 360.32 141.96 360.6C142.32 360.902 142.78 361.059 143.25 361.04C144.17 360.9 144.72 359.86 145.54 359.3C146.281 358.802 147.172 358.579 148.06 358.67C148.45 358.682 148.832 358.778 149.181 358.953C149.53 359.127 149.837 359.375 150.08 359.68Z" fill="#FAFAFA"/>
<path d="M85.32 277C85.92 277.71 107.91 307.11 107.91 307.11L104.82 308.87L82.25 279.87L85.32 277Z" fill="#263238"/>
<path d="M171.13 298C171.13 298 150.51 333.57 149.13 334.22C146.38 335.51 114.74 308.16 111.72 305.55C111.31 304.99 110.45 303.82 108.72 301.49C108.72 301.49 106.23 290.06 103.56 290.94C100.89 291.82 105.02 296.75 103.29 301.09C101.56 305.43 93.61 295.09 93.29 294.15L91.29 291.47C91.29 291.47 89.14 297.56 89.29 300.11C89.75 308.26 97.46 317.95 97.46 317.95C97.46 317.95 128.8 357.21 152.52 358.54C159.35 358.93 172.4 339.26 180.52 324.72C185.42 315.94 183.14 307.03 175.02 301.1L171.13 298Z" fill="#FFBE9D"/>
<path d="M93.16 301.5C91.8065 299.697 90.7902 297.664 90.16 295.5C90.24 295.5 90.83 296.85 91.66 298.5C92.49 300.15 93.23 301.46 93.16 301.5Z" fill="#EB996E"/>
<path d="M170.16 288.06C169.35 288.55 150.16 324.15 150.16 324.15L174.85 343.48C178.624 334.104 181.895 324.534 184.65 314.81C185.57 311.32 185.1 301.99 183.8 298.39C181.96 293.28 179.18 294.55 175.01 291.56L170.16 288.06Z" fill="#DC6B19"/>
<g opacity="0.7">
<path d="M178.27 288.06C178.27 288.06 178.03 287.92 177.57 287.69C176.9 287.349 176.15 287.193 175.4 287.24C174.216 287.351 173.093 287.818 172.18 288.58C170.958 289.557 169.886 290.71 169 292C167.914 293.613 166.912 295.282 166 297C165 298.81 163.86 300.75 162.7 302.79C160.37 306.86 157.8 311.34 155.12 316.04C153.47 318.89 151.88 321.66 150.38 324.26L150.32 323.94L167.02 337.14L171.87 341.03L173.15 342.09C173.307 342.204 173.451 342.335 173.58 342.48C173.409 342.39 173.249 342.283 173.1 342.16L171.76 341.16L166.82 337.38L150.01 324.38L149.83 324.24L150 324C151.5 321.4 153.09 318.63 154.72 315.77C157.42 311.08 160 306.62 162.34 302.55L165.68 296.78C166.591 295.062 167.593 293.393 168.68 291.78C169.608 290.455 170.734 289.281 172.02 288.3C172.988 287.529 174.166 287.069 175.4 286.98C176.183 286.952 176.957 287.15 177.63 287.55C177.805 287.647 177.972 287.757 178.13 287.88C178.23 288 178.28 288.05 178.27 288.06Z" fill="black"/>
</g>
<path d="M170.9 321.44C170.406 320.886 169.794 320.448 169.11 320.16C168.374 319.875 167.564 319.847 166.81 320.08C166.364 320.255 165.932 320.466 165.52 320.71C165.016 321.016 164.426 321.146 163.84 321.08C163.262 320.939 162.761 320.581 162.44 320.08C162.13 319.65 161.89 319.22 161.61 318.87C161.373 318.564 161.07 318.316 160.724 318.143C160.377 317.97 159.997 317.877 159.61 317.87C158.87 317.874 158.149 318.101 157.54 318.52C157.54 318.52 157.64 318.3 157.96 318.04C158.448 317.699 159.025 317.511 159.62 317.5C160.069 317.483 160.515 317.569 160.924 317.753C161.334 317.937 161.695 318.213 161.98 318.56C162.3 318.94 162.56 319.37 162.85 319.76C163.1 320.158 163.488 320.45 163.94 320.58C164.86 320.74 165.7 319.91 166.66 319.64C167.517 319.387 168.436 319.451 169.25 319.82C170.64 320.45 171 321.45 170.9 321.44Z" fill="#FAFAFA"/>
<path d="M182.18 316.84C181.861 316.163 181.389 315.571 180.8 315.11C180.167 314.642 179.396 314.399 178.61 314.42C178.135 314.475 177.664 314.562 177.2 314.68C176.632 314.84 176.026 314.805 175.48 314.58C174.961 314.282 174.578 313.794 174.41 313.22C174.23 312.72 174.11 312.22 173.94 311.84C173.792 311.482 173.566 311.162 173.279 310.903C172.992 310.644 172.651 310.451 172.28 310.34C171.566 310.144 170.81 310.169 170.11 310.41C170.11 310.41 170.26 310.22 170.64 310.07C171.197 309.858 171.806 309.83 172.38 309.99C172.819 310.094 173.227 310.298 173.574 310.586C173.921 310.874 174.197 311.238 174.38 311.65C174.58 312.1 174.71 312.58 174.89 313.04C175.019 313.49 175.316 313.873 175.72 314.11C176.56 314.52 177.59 313.95 178.59 313.94C179.481 313.939 180.345 314.25 181.03 314.82C181.361 315.049 181.636 315.349 181.835 315.699C182.034 316.048 182.152 316.438 182.18 316.84Z" fill="#FAFAFA"/>
<path d="M182.76 302.12C182.436 301.449 181.964 300.861 181.38 300.4C180.749 299.928 179.977 299.685 179.19 299.71C178.713 299.755 178.241 299.842 177.78 299.97C177.211 300.131 176.604 300.093 176.06 299.86C175.544 299.563 175.161 299.08 174.99 298.51C174.81 298.01 174.69 297.51 174.52 297.12C174.368 296.765 174.141 296.447 173.855 296.188C173.568 295.929 173.229 295.735 172.86 295.62C172.146 295.424 171.39 295.449 170.69 295.69C170.69 295.69 170.84 295.51 171.22 295.35C171.778 295.143 172.386 295.115 172.96 295.27C173.396 295.379 173.803 295.585 174.149 295.872C174.495 296.159 174.772 296.521 174.96 296.93C175.16 297.38 175.29 297.87 175.47 298.32C175.598 298.773 175.895 299.159 176.3 299.4C177.14 299.8 178.17 299.23 179.17 299.23C180.063 299.219 180.929 299.532 181.61 300.11C181.939 300.338 182.213 300.637 182.412 300.985C182.611 301.333 182.73 301.72 182.76 302.12Z" fill="#FAFAFA"/>
<path d="M177.3 336C176.972 335.332 176.501 334.745 175.92 334.28C175.286 333.807 174.51 333.563 173.72 333.59C173.247 333.635 172.778 333.722 172.32 333.85C171.752 334.01 171.146 333.975 170.6 333.75C170.085 333.447 169.703 332.962 169.53 332.39C169.34 331.89 169.23 331.39 169.05 331C168.9 330.645 168.675 330.327 168.39 330.068C168.105 329.809 167.767 329.615 167.4 329.5C166.686 329.298 165.927 329.326 165.23 329.58C165.23 329.58 165.38 329.39 165.76 329.23C166.467 328.98 167.242 329.003 167.932 329.295C168.622 329.588 169.178 330.128 169.49 330.81C169.7 331.26 169.83 331.75 170.01 332.2C170.138 332.65 170.43 333.036 170.83 333.28C171.68 333.68 172.71 333.11 173.71 333.11C174.603 333.099 175.469 333.412 176.15 333.99C176.479 334.218 176.753 334.517 176.952 334.865C177.151 335.213 177.27 335.601 177.3 336Z" fill="#FAFAFA"/>
</svg>
