<svg width="426" height="288" viewBox="0 0 426 288" fill="none" xmlns="http://www.w3.org/2000/svg">
<path d="M213.924 252C273.571 252 321.924 203.647 321.924 144C321.924 84.3532 273.571 36 213.924 36C154.277 36 105.924 84.3532 105.924 144C105.924 203.647 154.277 252 213.924 252Z" fill="#EE781D"/>
<path d="M218.004 61.44C216.054 64.79 212.574 70.75 206.004 72.96C200.164 74.92 196.364 72.4 187.284 73.44C181.794 74.07 178.344 74.46 174.804 76.8C169.664 80.2 169.974 83.93 166.164 87.84C157.944 96.28 142.534 93.3 141.684 93.12C135.127 91.6395 129.176 88.1967 124.624 83.25C134.52 68.6822 147.833 56.7592 163.4 48.5227C178.966 40.2862 196.313 35.9868 213.924 36C216.624 36 219.314 36.1 221.964 36.29C223.024 42.88 223.194 52.55 218.004 61.44ZM184.884 103.2C192.424 93.879 200.184 84.2849 209.844 85.44C217.461 86.3509 224.547 93.7396 226.164 101.28C228.184 110.698 220.53 115.022 223.284 123.84C225.157 129.836 229.052 128.976 234.804 137.76C237.521 141.91 242.11 148.917 241.524 157.92C241.39 159.979 240.3 172.695 229.524 178.08C222.443 181.619 213.575 180.795 207.924 176.64C201.396 171.841 203.493 165.784 197.364 162.72C191.776 159.927 188.523 164.207 179.124 162.24C175.659 161.515 169.265 160.176 166.164 155.52C161.905 149.123 166.039 139.734 172.404 125.28C175.989 117.138 178.832 110.682 184.884 103.2ZM321.924 144C321.928 153.121 320.782 162.206 318.514 171.04C308.584 173.38 296.884 172.98 287.604 167.04C284.864 165.29 277.864 160.81 276.084 153.12C274.744 147.32 277.664 145.3 278.004 134.88C278.154 130.15 278.354 124.05 275.604 117.6C272.394 110.07 268.494 109.9 266.004 104.16C262.284 95.59 266.064 84.73 270.324 78.72C274.864 72.32 281.914 68.68 289.624 66.98C299.869 77.0177 308.004 89.0021 313.551 102.229C319.098 115.455 321.945 129.657 321.924 144ZM247.764 203.04C245.444 199.21 246.093 192.794 249.204 190.56C252.06 188.509 255.357 191.155 259.284 188.64C262.164 186.796 261.552 184.631 264.084 183.36C267.578 181.607 273.339 183.423 276.084 187.2C279.619 192.064 277.447 199.205 274.164 203.04C267.505 210.819 251.988 210.01 247.764 203.04ZM215.784 251.97C215.164 251.99 214.544 252 213.924 252C196.58 252.012 179.49 247.842 164.101 239.843C148.712 231.844 135.479 220.252 125.524 206.05C126.998 202.096 129.226 198.465 132.084 195.36C132.964 194.41 143.964 182.94 157.044 185.76C161.58 186.868 165.729 189.191 169.044 192.48C173.264 196.78 172.264 199.19 175.764 202.08C180.354 205.87 184.304 203.56 194.004 205.44C199.484 206.5 207.194 208 212.244 213.6C217.424 219.34 217.474 226.8 217.524 234.24C217.554 237.83 217.604 245.26 215.784 251.97Z" fill="#E06714"/>
<path d="M318.504 118.042L324.47 118.706C324.497 118.71 324.521 118.723 324.538 118.744C324.555 118.765 324.562 118.792 324.559 118.819C324.556 118.846 324.543 118.87 324.522 118.887C324.501 118.904 324.474 118.912 324.447 118.909L324.443 118.909L318.504 118.042ZM336.144 120.206L347.773 122.058C347.832 122.067 347.889 122.088 347.941 122.119C347.992 122.149 348.037 122.19 348.073 122.239C348.108 122.287 348.134 122.342 348.148 122.401C348.162 122.459 348.165 122.52 348.155 122.579C348.146 122.639 348.125 122.695 348.093 122.747C348.061 122.798 348.02 122.842 347.971 122.877C347.922 122.912 347.867 122.937 347.808 122.95C347.75 122.964 347.689 122.965 347.63 122.955L347.62 122.953L347.605 122.951L336.049 120.803L336.041 120.801C335.963 120.787 335.894 120.742 335.848 120.677C335.803 120.612 335.785 120.531 335.798 120.453C335.812 120.374 335.856 120.305 335.92 120.258C335.985 120.212 336.065 120.193 336.144 120.206ZM359.343 124.299L370.818 127.06C370.914 127.083 371.004 127.125 371.084 127.183C371.164 127.241 371.232 127.314 371.283 127.399C371.335 127.483 371.369 127.576 371.385 127.674C371.4 127.771 371.396 127.871 371.373 127.967C371.35 128.063 371.308 128.154 371.25 128.234C371.192 128.313 371.119 128.381 371.034 128.433C370.95 128.484 370.856 128.519 370.759 128.534C370.661 128.55 370.562 128.546 370.466 128.522L370.451 128.519L370.406 128.507L359.075 125.475L359.046 125.467C358.893 125.426 358.762 125.326 358.681 125.19C358.601 125.053 358.578 124.89 358.617 124.736C358.656 124.583 358.754 124.45 358.89 124.369C359.026 124.287 359.188 124.262 359.343 124.299ZM382.108 130.607C385.872 131.931 389.497 133.618 392.933 135.646C393.049 135.717 393.149 135.809 393.228 135.919C393.308 136.028 393.365 136.153 393.397 136.284C393.428 136.416 393.434 136.552 393.412 136.686C393.391 136.82 393.344 136.948 393.273 137.063C393.202 137.179 393.11 137.279 393 137.359C392.89 137.438 392.766 137.495 392.635 137.527C392.503 137.558 392.366 137.564 392.233 137.543C392.099 137.521 391.971 137.474 391.855 137.403L391.85 137.4L391.839 137.393C388.542 135.382 385.07 133.674 381.465 132.291C381.243 132.204 381.066 132.033 380.97 131.816C380.874 131.598 380.867 131.352 380.952 131.13C381.037 130.908 381.206 130.728 381.423 130.63C381.639 130.532 381.886 130.524 382.108 130.607ZM400.774 145.177C400.879 146.33 400.719 147.492 400.308 148.575C399.905 149.602 399.346 150.561 398.65 151.417C397.31 153.012 395.744 154.403 394.002 155.546C393.871 155.636 393.723 155.7 393.567 155.734C393.412 155.767 393.251 155.77 393.094 155.741C392.937 155.712 392.788 155.653 392.654 155.567C392.52 155.48 392.405 155.368 392.314 155.237C392.224 155.106 392.16 154.959 392.126 154.803C392.093 154.647 392.09 154.486 392.119 154.33C392.147 154.173 392.207 154.024 392.293 153.89C392.379 153.756 392.491 153.64 392.622 153.55L392.634 153.542L392.652 153.53C394.211 152.545 395.62 151.339 396.833 149.95C397.981 148.712 398.594 147.072 398.54 145.386L398.54 145.378C398.514 145.082 398.606 144.788 398.797 144.561C398.988 144.333 399.261 144.19 399.556 144.164C399.852 144.137 400.146 144.229 400.375 144.418C400.603 144.608 400.747 144.881 400.774 145.177ZM383.301 160.995C379.612 162.475 375.854 163.73 372.068 164.864C371.714 164.969 371.333 164.929 371.008 164.753C370.683 164.578 370.441 164.28 370.335 163.926C370.229 163.572 370.267 163.191 370.442 162.865C370.617 162.54 370.914 162.297 371.268 162.19L371.29 162.184C375.031 161.126 378.737 159.952 382.347 158.568C382.668 158.444 383.025 158.452 383.34 158.591C383.656 158.729 383.903 158.987 384.029 159.308C384.155 159.628 384.15 159.985 384.013 160.301C383.877 160.618 383.621 160.867 383.301 160.995ZM360.63 167.919L349.083 170.445C348.675 170.533 348.249 170.455 347.898 170.229C347.547 170.003 347.3 169.647 347.211 169.24C347.122 168.832 347.198 168.406 347.422 168.054C347.647 167.702 348.002 167.454 348.409 167.363L348.424 167.36L348.489 167.347L359.958 165.023L360.017 165.011C360.401 164.934 360.8 165.011 361.128 165.226C361.455 165.442 361.684 165.778 361.765 166.161C361.846 166.545 361.772 166.945 361.559 167.274C361.347 167.603 361.012 167.835 360.63 167.919ZM337.471 172.582L325.806 174.378C325.582 174.413 325.354 174.403 325.133 174.35C324.913 174.296 324.706 174.2 324.523 174.066C324.34 173.932 324.185 173.763 324.067 173.569C323.95 173.376 323.871 173.161 323.837 172.937C323.802 172.712 323.812 172.484 323.866 172.264C323.92 172.043 324.017 171.836 324.151 171.653C324.285 171.471 324.454 171.316 324.648 171.199C324.842 171.081 325.057 171.003 325.281 170.969L325.298 170.967L325.337 170.961L336.938 169.288L336.979 169.282C337.416 169.219 337.859 169.332 338.213 169.595C338.567 169.858 338.802 170.251 338.867 170.687C338.932 171.124 338.822 171.568 338.56 171.923C338.299 172.278 337.907 172.515 337.471 172.582ZM314.111 175.909L302.391 177.219C301.913 177.27 301.433 177.13 301.058 176.829C300.683 176.528 300.442 176.091 300.389 175.613C300.335 175.135 300.473 174.655 300.773 174.279C301.073 173.902 301.509 173.66 301.987 173.605L302.002 173.603L302.033 173.6L313.7 172.39L313.732 172.387C314.198 172.338 314.664 172.477 315.028 172.771C315.393 173.066 315.625 173.493 315.676 173.959C315.726 174.424 315.589 174.891 315.296 175.257C315.003 175.622 314.577 175.857 314.111 175.909ZM290.652 178.332L278.902 179.267C278.651 179.288 278.399 179.259 278.16 179.181C277.921 179.104 277.699 178.981 277.507 178.818C277.316 178.655 277.158 178.456 277.044 178.232C276.93 178.008 276.86 177.764 276.84 177.513C276.82 177.263 276.85 177.011 276.928 176.772C277.005 176.532 277.129 176.311 277.293 176.12C277.456 175.929 277.655 175.772 277.88 175.658C278.104 175.544 278.348 175.475 278.599 175.456L278.614 175.454L278.641 175.452L290.344 174.615L290.371 174.613C290.863 174.578 291.349 174.739 291.722 175.061C292.096 175.384 292.326 175.841 292.363 176.333C292.4 176.824 292.241 177.311 291.921 177.686C291.6 178.061 291.144 178.293 290.652 178.332ZM267.138 180.008L255.365 180.591C255.109 180.605 254.853 180.568 254.612 180.482C254.371 180.397 254.149 180.265 253.958 180.093C253.768 179.922 253.614 179.714 253.504 179.483C253.394 179.252 253.331 179.001 253.319 178.746C253.306 178.49 253.344 178.234 253.43 177.993C253.517 177.752 253.65 177.531 253.822 177.341C253.994 177.152 254.202 176.998 254.434 176.889C254.666 176.781 254.917 176.719 255.172 176.707L255.177 176.707L255.202 176.706L266.927 176.156L266.952 176.155C267.463 176.13 267.963 176.309 268.341 176.653C268.72 176.997 268.947 177.477 268.971 177.988C268.996 178.499 268.817 178.999 268.473 179.378C268.129 179.756 267.649 179.983 267.138 180.008ZM243.586 181.026L231.805 181.319C231.546 181.326 231.288 181.281 231.045 181.188C230.803 181.095 230.582 180.955 230.394 180.776C230.206 180.597 230.055 180.383 229.949 180.146C229.844 179.909 229.787 179.653 229.78 179.393C229.774 179.134 229.818 178.876 229.912 178.634C230.005 178.392 230.145 178.17 230.324 177.982C230.503 177.794 230.717 177.643 230.955 177.538C231.192 177.433 231.448 177.376 231.707 177.37L231.712 177.369L231.736 177.369L243.47 177.108L243.494 177.108C244.014 177.095 244.517 177.29 244.893 177.649C245.269 178.008 245.487 178.501 245.499 179.021C245.512 179.541 245.317 180.044 244.958 180.42C244.599 180.796 244.106 181.014 243.586 181.026ZM220.02 181.473C216.092 181.498 212.163 181.5 208.235 181.478C207.707 181.474 207.203 181.261 206.833 180.886C206.462 180.512 206.255 180.005 206.257 179.478C206.258 178.951 206.469 178.446 206.842 178.074C207.215 177.701 207.721 177.492 208.248 177.491H220.008C220.534 177.492 221.039 177.701 221.412 178.073C221.784 178.445 221.994 178.95 221.996 179.476C221.998 180.003 221.791 180.508 221.42 180.883C221.05 181.257 220.547 181.469 220.02 181.473ZM196.449 181.328L184.666 181.04C184.408 181.034 184.154 180.977 183.919 180.873C183.683 180.768 183.47 180.619 183.293 180.432C182.934 180.055 182.739 179.551 182.752 179.031C182.758 178.773 182.815 178.52 182.92 178.284C183.024 178.048 183.174 177.836 183.361 177.658C183.737 177.299 184.241 177.105 184.762 177.117L184.78 177.118L196.517 177.374L196.541 177.374C197.065 177.386 197.563 177.605 197.925 177.984C198.288 178.363 198.485 178.87 198.473 179.394C198.462 179.919 198.243 180.417 197.864 180.779C197.486 181.142 196.979 181.34 196.454 181.329L196.449 181.328ZM172.886 180.61L161.111 180.031C160.6 180.006 160.119 179.779 159.775 179.4C159.431 179.02 159.252 178.52 159.278 178.008C159.303 177.497 159.53 177.016 159.909 176.672C160.289 176.328 160.789 176.149 161.301 176.174L161.321 176.175L173.047 176.72L173.072 176.721C173.587 176.746 174.071 176.974 174.419 177.355C174.766 177.737 174.947 178.241 174.924 178.756C174.9 179.271 174.672 179.756 174.291 180.104C173.91 180.451 173.406 180.633 172.891 180.61L172.886 180.61ZM149.344 179.298L137.588 178.37C137.094 178.332 136.634 178.1 136.311 177.724C135.988 177.349 135.827 176.86 135.864 176.366C135.901 175.871 136.133 175.412 136.509 175.088C136.884 174.765 137.373 174.604 137.867 174.64L137.895 174.642L149.603 175.476L149.63 175.478C150.137 175.514 150.609 175.75 150.941 176.134C151.274 176.518 151.441 177.018 151.405 177.525C151.369 178.031 151.133 178.503 150.749 178.836C150.365 179.168 149.865 179.335 149.358 179.299L149.344 179.298ZM125.845 177.262L114.119 175.958C113.652 175.906 113.225 175.671 112.931 175.305C112.637 174.939 112.5 174.471 112.55 174.004C112.6 173.537 112.833 173.109 113.198 172.813C113.562 172.518 114.03 172.378 114.497 172.426L114.529 172.43L126.202 173.633L126.234 173.636C126.715 173.686 127.156 173.925 127.461 174.3C127.766 174.675 127.91 175.156 127.86 175.637C127.811 176.118 127.572 176.56 127.197 176.865C126.822 177.17 126.341 177.313 125.86 177.264L125.845 177.262ZM102.42 174.434L90.752 172.651C90.3137 172.584 89.9199 172.346 89.6565 171.99C89.3931 171.633 89.2817 171.187 89.3466 170.748C89.4115 170.31 89.6475 169.915 90.0028 169.65C90.3582 169.385 90.8041 169.272 91.2429 169.334L91.2842 169.34L102.888 171.008L102.927 171.014C103.378 171.082 103.784 171.326 104.056 171.692C104.328 172.059 104.445 172.518 104.38 172.969C104.315 173.421 104.074 173.829 103.71 174.104C103.345 174.378 102.887 174.498 102.435 174.437L102.42 174.434ZM79.1342 170.523L67.5822 168.01C67.1975 167.926 66.8615 167.694 66.6474 167.363C66.4332 167.033 66.3582 166.632 66.4387 166.246C66.5192 165.861 66.7487 165.523 67.0772 165.306C67.4057 165.089 67.8066 165.011 68.1926 165.088L68.2523 165.1L79.728 167.41L79.7838 167.421C79.988 167.462 80.1822 167.543 80.3552 167.659C80.5282 167.775 80.6766 167.923 80.792 168.097C80.9074 168.27 80.9875 168.465 81.0277 168.669C81.068 168.873 81.0675 169.084 81.0264 169.288C80.9853 169.492 80.9044 169.686 80.7882 169.859C80.6721 170.032 80.523 170.18 80.3495 170.295C80.176 170.41 79.9815 170.49 79.7771 170.53C79.5728 170.57 79.3625 170.57 79.1584 170.528L79.1342 170.523ZM56.1349 164.973C52.3448 163.846 48.5816 162.6 44.8849 161.133C44.5635 161.006 44.3056 160.756 44.1674 160.439C44.0292 160.122 44.022 159.764 44.1474 159.441C44.2727 159.119 44.5204 158.859 44.8365 158.719C45.1525 158.579 45.5112 158.569 45.8344 158.692C49.4532 160.064 53.1644 161.23 56.911 162.28C57.269 162.379 57.5727 162.618 57.7552 162.941C57.9376 163.265 57.984 163.648 57.8841 164.006C57.7842 164.364 57.5461 164.668 57.2223 164.85C56.8985 165.033 56.5155 165.079 56.1575 164.979L56.1349 164.973ZM34.1494 155.752C32.4016 154.631 30.8168 153.273 29.4397 151.719C28.7228 150.889 28.1339 149.957 27.6925 148.953C27.2271 147.896 27.0049 146.749 27.0423 145.595C27.055 145.298 27.1847 145.018 27.403 144.816C27.6212 144.615 27.9104 144.507 28.2074 144.518C28.5045 144.528 28.7853 144.656 28.9887 144.873C29.1921 145.089 29.3016 145.378 29.2933 145.675C29.3484 147.37 30.0362 148.982 31.2213 150.195C32.4747 151.557 33.9084 152.74 35.4824 153.714L35.4972 153.723C35.7678 153.899 35.9572 154.176 36.0238 154.492C36.0904 154.808 36.0286 155.138 35.8522 155.409C35.6757 155.679 35.399 155.869 35.0829 155.935C34.7667 156.002 34.4371 155.94 34.1665 155.764L34.1494 155.752ZM34.5998 135.841C38.0171 133.78 41.6332 132.069 45.3935 130.734C45.6166 130.65 45.8638 130.658 46.0814 130.755C46.2991 130.852 46.4697 131.031 46.5565 131.253C46.6432 131.475 46.639 131.722 46.5449 131.941C46.4507 132.16 46.2741 132.333 46.0533 132.423L46.0473 132.425C42.4505 133.819 38.9918 135.546 35.7163 137.583L35.7092 137.587C35.4785 137.736 35.1982 137.787 34.93 137.729C34.6619 137.67 34.4278 137.508 34.2793 137.277C34.1307 137.047 34.08 136.766 34.1381 136.498C34.1962 136.23 34.3585 135.996 34.5893 135.847L34.5998 135.841ZM56.6713 127.158L68.1364 124.38C68.2912 124.342 68.4544 124.367 68.5909 124.449C68.7273 124.531 68.826 124.664 68.8656 124.818C68.9052 124.972 68.8825 125.136 68.8024 125.273C68.7223 125.411 68.5913 125.512 68.4377 125.553L68.4072 125.562L57.0886 128.612L57.0463 128.624C56.8529 128.675 56.6468 128.648 56.4734 128.548C56.3001 128.447 56.1734 128.283 56.1213 128.089C56.0692 127.896 56.0959 127.69 56.1954 127.516C56.295 127.343 56.4594 127.215 56.6526 127.163L56.6713 127.158ZM79.7027 122.126L91.3289 120.263C91.3682 120.256 91.4085 120.257 91.4475 120.266C91.4864 120.275 91.5233 120.291 91.5559 120.314C91.5886 120.337 91.6164 120.366 91.6378 120.4C91.6592 120.434 91.6737 120.471 91.6806 120.511C91.6874 120.55 91.6865 120.59 91.6777 120.629C91.669 120.668 91.6527 120.705 91.6297 120.738C91.6068 120.77 91.5776 120.798 91.5439 120.82C91.5102 120.841 91.4726 120.855 91.4332 120.862L91.4244 120.864L79.8724 123.023L79.8588 123.026C79.7999 123.037 79.7394 123.036 79.6807 123.023C79.6221 123.011 79.5665 122.987 79.517 122.953C79.4676 122.92 79.4253 122.876 79.3926 122.826C79.3599 122.776 79.3373 122.72 79.3263 122.661C79.3153 122.602 79.316 122.541 79.3284 122.483C79.3408 122.424 79.3646 122.368 79.3985 122.319C79.4323 122.27 79.4756 122.227 79.5258 122.195C79.576 122.162 79.6322 122.139 79.6911 122.128L79.7027 122.126ZM103.032 118.752L108.997 118.084L103.059 118.956C103.046 118.958 103.032 118.958 103.019 118.954C103.005 118.951 102.993 118.946 102.982 118.938C102.971 118.93 102.962 118.92 102.954 118.908C102.947 118.897 102.943 118.884 102.941 118.87C102.938 118.857 102.939 118.843 102.942 118.83C102.945 118.817 102.951 118.804 102.959 118.794C102.967 118.783 102.977 118.773 102.989 118.766C103.001 118.759 103.014 118.755 103.027 118.753L103.032 118.752Z" fill="#25788E"/>
<path d="M386.46 160.114L359.919 167.888L307.472 183.25L287.28 200.735C287.037 200.945 286.731 201.067 286.41 201.082C286.089 201.096 285.773 201.002 285.513 200.814L285.458 200.77C285.216 200.578 285.043 200.312 284.966 200.012C284.889 199.713 284.911 199.397 285.029 199.112L294.595 178.476L298.019 171.085L385.882 157.33C386.237 157.286 386.596 157.378 386.887 157.587C387.178 157.795 387.379 158.105 387.452 158.456C387.525 158.806 387.463 159.171 387.279 159.478C387.096 159.786 386.803 160.012 386.46 160.114Z" fill="#E59413"/>
<path d="M387.188 159.617L387.174 159.635C386.941 159.926 386.604 160.115 386.234 160.16L368.776 162.323L298.014 171.092L281.013 144.653C280.865 144.423 280.787 144.155 280.787 143.882C280.787 143.608 280.866 143.341 281.013 143.111C281.161 142.881 281.372 142.698 281.62 142.584C281.869 142.47 282.145 142.429 282.416 142.468L386.227 157.328L386.27 157.332L386.348 157.347L386.431 157.366L386.503 157.388L386.592 157.419L386.665 157.451L386.674 157.458L386.743 157.493L386.816 157.535C386.863 157.564 386.908 157.596 386.952 157.63C387.009 157.676 387.063 157.726 387.112 157.78C387.135 157.804 387.157 157.83 387.177 157.857C387.201 157.884 387.223 157.913 387.243 157.943L387.304 158.04C387.317 158.06 387.328 158.081 387.336 158.103C387.342 158.11 387.347 158.118 387.348 158.127L387.379 158.193L387.39 158.201L387.414 158.262C387.433 158.316 387.449 158.371 387.461 158.426C387.468 158.452 387.473 158.478 387.477 158.504C387.49 158.589 387.496 158.675 387.493 158.761C387.493 158.801 387.491 158.841 387.486 158.882C387.483 158.916 387.478 158.951 387.472 158.985C387.466 159.02 387.455 159.073 387.444 159.118C387.434 159.156 387.422 159.194 387.408 159.23C387.392 159.276 387.374 159.321 387.352 159.364C387.337 159.39 387.323 159.416 387.311 159.443C387.274 159.504 387.233 159.562 387.188 159.617Z" fill="#F9AE2B"/>
<mask id="mask0_173_2650" style="mask-type:luminance" maskUnits="userSpaceOnUse" x="254" y="100" width="136" height="136">
<path d="M315.125 100.102L254.516 176.094L328.723 235.28L389.332 159.288L315.125 100.102Z" fill="white"/>
</mask>
<g mask="url(#mask0_173_2650)">
<path d="M335.851 226.231C335.735 226.381 335.591 226.506 335.426 226.6C335.262 226.694 335.08 226.754 334.892 226.776C334.704 226.799 334.514 226.784 334.331 226.732C334.149 226.68 333.979 226.592 333.832 226.474C333.711 226.377 333.606 226.262 333.522 226.133L304.609 181.198L368.776 162.323L385.657 157.377C385.849 157.321 386.05 157.304 386.248 157.329C386.278 157.334 386.309 157.339 386.339 157.346L386.421 157.366L386.494 157.387L386.583 157.419L386.655 157.45L386.664 157.457L386.733 157.493L386.807 157.535C386.854 157.565 386.899 157.596 386.942 157.63C386.999 157.676 387.053 157.726 387.103 157.78C387.126 157.805 387.148 157.83 387.168 157.857C387.192 157.884 387.213 157.913 387.233 157.943L387.294 158.041C387.307 158.06 387.318 158.081 387.327 158.103C387.333 158.11 387.337 158.119 387.339 158.128L387.37 158.193L387.38 158.201L387.404 158.262C387.423 158.316 387.439 158.371 387.451 158.426C387.458 158.452 387.464 158.478 387.467 158.504C387.481 158.589 387.486 158.675 387.484 158.761C387.483 158.801 387.481 158.842 387.477 158.882C387.474 158.916 387.469 158.95 387.463 158.985C387.457 159.019 387.446 159.074 387.435 159.118C387.424 159.156 387.412 159.194 387.398 159.231C387.383 159.276 387.364 159.321 387.343 159.364C387.328 159.389 387.314 159.416 387.302 159.443C387.268 159.504 387.229 159.563 387.186 159.619L387.174 159.635L335.851 226.231Z" fill="#F9AE2B"/>
<path d="M313.213 194.569L286.685 201.044C286.473 201.096 286.253 201.098 286.04 201.051C285.827 201.004 285.628 200.909 285.458 200.773C285.301 200.649 285.172 200.491 285.082 200.312C284.934 200.028 284.886 199.703 284.946 199.388C285.007 199.074 285.172 198.789 285.414 198.58L304.61 181.199L313.213 194.569Z" fill="#CE800D"/>
</g>
<path d="M304.609 181.198L313.213 194.569L309.351 195.511L302.493 183.113L304.609 181.198Z" fill="#CE800D"/>
</svg>
