<svg width="450" height="450" viewBox="0 0 450 450" fill="none" xmlns="http://www.w3.org/2000/svg">
<path d="M27.5435 198.725V246.556C27.5435 250.712 29.1947 254.699 32.1338 257.638C35.073 260.577 39.0593 262.228 43.2159 262.228H214.709C218.864 262.226 222.848 260.573 225.785 257.634C228.722 254.696 230.372 250.711 230.372 246.556V206.145L251.727 183.716L43.2761 183.063C41.2138 183.055 39.1701 183.454 37.2624 184.238C35.3546 185.021 33.6202 186.173 32.1586 187.628C30.6971 189.083 29.537 190.813 28.7451 192.717C27.9531 194.621 27.5448 196.663 27.5435 198.725Z" fill="#F5F5F5"/>
<path d="M205.091 212.038L49.481 211.316L49.491 206.536L205.111 207.249L205.091 212.038Z" fill="#BDBDBD"/>
<path d="M205.091 227.771L49.481 227.058L49.491 222.269L205.111 222.992L205.091 227.771Z" fill="#BDBDBD"/>
<path d="M143.529 238.022L143.506 242.801L205.08 243.102L205.104 238.323L143.529 238.022Z" fill="#E0E0E0"/>
<path d="M186.446 363.984V411.814C186.446 415.971 188.097 419.957 191.037 422.896C193.976 425.836 197.962 427.487 202.119 427.487H373.592C377.747 427.484 381.73 425.832 384.667 422.893C387.604 419.954 389.254 415.969 389.254 411.814V371.403L410.609 348.974L202.149 348.321C200.089 348.317 198.049 348.719 196.144 349.505C194.24 350.29 192.509 351.443 191.051 352.897C189.592 354.352 188.435 356.08 187.645 357.982C186.855 359.885 186.448 361.924 186.446 363.984Z" fill="#F5F5F5"/>
<path d="M364.747 376.052L209.127 375.339L209.137 370.55L364.757 371.273L364.747 376.052Z" fill="#BDBDBD"/>
<path d="M364.747 391.784L209.127 391.072L209.137 386.283L364.757 387.005L364.747 391.784Z" fill="#BDBDBD"/>
<path d="M303.171 402.026L303.147 406.805L364.722 407.105L364.745 402.326L303.171 402.026Z" fill="#BDBDBD"/>
<path d="M177.812 66.6592V98.3856C177.812 101.142 176.717 103.785 174.768 105.733C172.82 107.682 170.176 108.777 167.42 108.777H53.7075C52.3398 108.781 50.9849 108.515 49.7201 107.995C48.4553 107.474 47.3055 106.71 46.3366 105.745C45.3677 104.779 44.5986 103.633 44.0734 102.37C43.5482 101.107 43.2772 99.7532 43.2759 98.3856V71.5788L29.1597 56.6995L167.42 56.2678C170.176 56.2678 172.82 57.3626 174.768 59.3113C176.717 61.2601 177.812 63.9032 177.812 66.6592Z" fill="#BDBDBD"/>
<path d="M60.0833 75.4843L163.294 75.0124L163.284 71.8398L60.0732 72.3217L60.0833 75.4843Z" fill="#F5F5F5"/>
<path d="M60.0833 85.9259L163.294 85.444L163.284 82.2814L60.0732 82.7533L60.0833 85.9259Z" fill="#F5F5F5"/>
<path d="M100.333 93.3455H59.4907V96.5181H100.333V93.3455Z" fill="#F5F5F5"/>
<path d="M393.311 213.755V245.482C393.311 248.238 392.216 250.881 390.267 252.829C388.318 254.778 385.675 255.873 382.919 255.873H269.176C266.419 255.873 263.775 254.779 261.825 252.83C259.874 250.882 258.777 248.238 258.775 245.482V218.675L244.618 203.796L382.879 203.364C384.247 203.36 385.602 203.626 386.866 204.146C388.131 204.666 389.281 205.431 390.25 206.396C391.219 207.361 391.988 208.508 392.513 209.771C393.038 211.034 393.309 212.388 393.311 213.755Z" fill="#BDBDBD"/>
<path d="M275.552 222.59L378.773 222.108L378.753 218.936L275.542 219.418L275.552 222.59Z" fill="#F5F5F5"/>
<path d="M275.552 233.022L378.773 232.55L378.753 229.377L275.542 229.849L275.552 233.022Z" fill="#F5F5F5"/>
<path d="M315.079 241.506H274.236V244.678H315.079V241.506Z" fill="#F5F5F5"/>
<path d="M295.882 371.233C278.885 354.677 278.604 329.065 283.021 306.826C283.764 303.111 284.025 299.105 286.314 296.113C288.603 293.121 293.131 291.565 296.224 293.694C298.784 295.451 299.467 298.874 300.581 301.796C302.066 305.696 304.629 309.095 307.971 311.595C310.149 313.222 312.991 314.456 315.521 313.553C319.035 312.298 320.149 307.91 320.731 304.196C321.816 297.261 322.907 290.33 324.004 283.403C324.587 279.678 325.199 275.883 326.926 272.549C328.653 269.216 331.755 266.355 335.45 265.943C339.145 265.532 343.181 268.282 343.331 272.047C343.218 273.606 343 275.156 342.679 276.686C342.528 278.242 342.97 280.069 344.366 280.702C345.761 281.335 347.438 280.571 348.723 279.698C353.171 276.576 356.564 272.178 359.767 267.77C362.97 263.363 366.152 258.825 370.309 255.301C374.466 251.777 379.797 249.327 385.168 249.899C390.54 250.472 395.68 254.678 396.162 260.14C396.644 265.602 392.728 270.411 388.712 274.106C382.749 279.587 376.027 284.179 368.753 287.74C367.448 288.383 366.032 289.065 365.359 290.37C364.144 292.72 366.092 295.561 368.371 296.776C370.992 298.151 374.034 298.352 376.875 299.176C379.716 299.999 382.648 301.776 383.301 304.698C384.194 308.714 380.369 312.197 376.815 314.296C369.7 318.493 361.916 321.434 353.803 322.99C350.912 323.543 347.89 323.944 345.37 325.51C342.85 327.077 340.982 330.189 341.886 333.02C342.789 335.852 346.062 337.257 349.014 337.197C351.966 337.137 354.777 335.992 357.679 335.41C363.1 334.326 369.636 335.751 372.176 340.701C373.853 343.954 373.381 348.02 371.725 351.303C369.927 354.508 367.502 357.318 364.596 359.566C354.837 367.819 343.101 373.833 330.581 376.002C318.061 378.17 306.916 377.488 295.852 371.253" fill="#A5490E"/>
<path d="M292.871 387.779C295.596 377.572 299.295 367.651 303.915 358.15C309.626 346.571 315.995 335.328 322.991 324.476L328.452 315.912C330.25 313.101 332.027 310.31 333.944 307.7C337.633 302.674 341.598 297.857 345.822 293.272C349.838 288.864 353.753 284.838 357.478 281.094C361.203 277.349 364.737 273.945 368.1 270.973C373.373 266.249 379.013 261.952 384.968 258.122C387.076 256.767 388.743 255.763 389.877 255.11L391.182 254.357C391.335 254.261 391.496 254.18 391.664 254.116C391.533 254.228 391.391 254.329 391.243 254.417L389.977 255.22C388.863 255.913 387.227 256.947 385.148 258.343C379.262 262.244 373.68 266.587 368.452 271.335C365.118 274.347 361.614 277.75 357.91 281.495C354.205 285.24 350.289 289.296 346.324 293.694C342.143 298.269 338.215 303.068 334.557 308.071C332.659 310.671 330.892 313.442 329.095 316.254C327.298 319.065 325.491 321.926 323.643 324.818C316.669 335.651 310.3 346.863 304.567 358.401C299.925 367.852 296.181 377.718 293.383 387.869" fill="#263238"/>
<path d="M334.175 307.699C334.087 307.155 334.053 306.604 334.075 306.053C334.075 304.999 334.075 303.463 334.075 301.575C334.155 297.79 334.446 292.539 334.778 286.806C335.109 281.073 335.34 275.843 335.36 272.057C335.36 270.17 335.36 268.644 335.36 267.59C335.316 267.04 335.336 266.488 335.42 265.943C335.545 266.48 335.615 267.028 335.631 267.58C335.731 268.584 335.802 270.16 335.852 272.057C335.952 275.843 335.852 281.093 335.47 286.846C335.089 292.599 334.808 297.67 334.557 301.595C334.466 303.362 334.386 304.858 334.316 306.063C334.333 306.612 334.286 307.161 334.175 307.699Z" fill="#263238"/>
<path d="M383.401 306.595C382.754 306.633 382.105 306.606 381.464 306.515C380.219 306.424 378.452 306.274 376.193 306.173C371.735 305.932 365.58 305.812 358.773 305.973C351.966 306.133 345.822 306.565 341.374 306.977C339.155 307.177 337.358 307.388 336.123 307.529C335.48 307.64 334.828 307.691 334.175 307.679C334.797 307.482 335.436 307.341 336.083 307.258C337.318 307.037 339.095 306.756 341.324 306.485C345.771 305.922 351.936 305.43 358.763 305.25C364.586 305.09 370.414 305.228 376.223 305.661C378.452 305.832 380.239 306.043 381.494 306.224C382.14 306.285 382.779 306.409 383.401 306.595Z" fill="#263238"/>
<path d="M304.688 357.367C304.688 357.367 304.587 357.157 304.457 356.735C304.326 356.313 304.135 355.62 303.915 354.867C303.463 353.251 302.86 350.851 302.158 347.97C300.752 342.117 299.065 333.984 297.318 324.968C295.571 315.952 293.955 307.82 292.67 301.947C292.037 299.095 291.515 296.746 291.134 294.999C290.963 294.246 290.832 293.613 290.722 293.101C290.659 292.883 290.625 292.656 290.622 292.429C290.734 292.629 290.815 292.846 290.863 293.071C291.003 293.573 291.174 294.186 291.395 294.929C291.846 296.545 292.449 298.945 293.152 301.836C294.557 307.679 296.254 315.822 297.991 324.838C299.728 333.854 301.354 341.986 302.639 347.859C303.272 350.711 303.794 353.06 304.176 354.807C304.346 355.56 304.477 356.183 304.587 356.695C304.65 356.914 304.683 357.14 304.688 357.367Z" fill="#263238"/>
<path d="M371.504 347.307C371.287 347.387 371.061 347.438 370.831 347.458L368.883 347.779L361.725 348.863C355.701 349.787 347.358 351.163 338.151 352.679C328.944 354.195 320.591 355.5 314.527 356.293C311.515 356.695 309.035 356.996 307.338 357.167L305.33 357.357C305.104 357.392 304.874 357.392 304.647 357.357C304.866 357.283 305.091 357.233 305.32 357.207L307.258 356.885L314.416 355.801C320.44 354.877 328.794 353.512 338 351.986C347.207 350.46 355.56 349.165 361.624 348.372C364.636 347.97 367.106 347.669 368.813 347.498L370.821 347.317C371.047 347.278 371.277 347.274 371.504 347.307Z" fill="#263238"/>
<path d="M126.99 145.473C125.476 144.211 124.323 142.571 123.648 140.72C122.972 138.868 122.799 136.871 123.144 134.931C123.526 133.001 124.286 131.166 125.382 129.532C126.479 127.898 127.888 126.498 129.53 125.413C131.026 124.409 132.883 123.566 134.63 124.078C135.431 124.37 136.139 124.87 136.683 125.526C137.226 126.183 137.585 126.972 137.722 127.813C137.976 129.508 137.775 131.241 137.14 132.833C135.232 138.335 132.381 143.315 126.99 145.503" fill="#455A64"/>
<path d="M121.899 154.871C118.806 152.103 115.098 150.113 111.082 149.065C107.066 148.018 102.858 147.943 98.8074 148.847C96.7994 149.319 94.44 150.403 94.1086 152.481C93.7773 154.559 95.6247 156.336 97.452 157.401C101.309 159.542 105.713 160.494 110.11 160.137C114.507 159.779 118.7 158.129 122.16 155.393" fill="#455A64"/>
<path d="M92.4722 111.357C94.1776 110.964 95.9446 110.915 97.6689 111.215C99.3932 111.515 101.04 112.158 102.512 113.104C105.469 115.033 107.942 117.616 109.741 120.654C113.376 126.397 114.661 134.128 114.821 140.925C107.271 140.624 100.826 134.69 97.7533 131.467C92.8738 126.387 87.151 114.249 92.412 111.387" fill="#455A64"/>
<path d="M133.315 165.142C132.628 164.231 131.998 163.278 131.428 162.29C129.474 158.46 128.045 154.384 127.181 150.172C126.329 145.905 126.655 141.487 128.124 137.391C128.583 136.165 129.194 135.001 129.942 133.927C130.196 133.517 130.51 133.148 130.875 132.833C130.003 134.351 129.251 135.936 128.626 137.572C127.353 141.604 127.111 145.891 127.924 150.041C128.799 154.197 130.147 158.239 131.94 162.089" fill="#263238"/>
<path d="M133.385 165.232L129.45 160.162C126.146 155.875 121.558 149.961 116.398 143.495C111.237 137.03 106.508 131.246 103.074 127.07L99.0585 122.05C98.5297 121.467 98.0527 120.838 97.6328 120.172C98.2251 120.69 98.7757 121.254 99.2794 121.859C100.283 122.984 101.759 124.62 103.536 126.668C107.08 130.765 111.89 136.507 117.05 142.973C122.211 149.439 126.719 155.413 129.921 159.79C131.528 161.979 132.803 163.806 133.666 165.001" fill="#263238"/>
<path d="M103.516 153.294C103.927 153.091 104.367 152.956 104.821 152.893C105.338 152.75 105.865 152.65 106.398 152.592C107.099 152.476 107.806 152.398 108.516 152.361C110.369 152.244 112.229 152.314 114.068 152.571C116.315 152.907 118.52 153.482 120.644 154.288C122.759 155.134 124.778 156.2 126.668 157.471C128.195 158.524 129.611 159.728 130.895 161.065C131.397 161.57 131.869 162.103 132.311 162.662C132.674 163.067 133.009 163.497 133.315 163.947C133.807 164.68 133.737 165.021 133.696 165.051C132.717 163.795 131.671 162.592 130.564 161.447C129.254 160.194 127.836 159.058 126.327 158.053C124.467 156.857 122.493 155.848 120.434 155.041C118.357 154.254 116.208 153.672 114.018 153.304C112.226 153.019 110.411 152.898 108.596 152.943C105.424 152.973 103.516 153.435 103.516 153.294Z" fill="#263238"/>
<path d="M271.927 409.475L155.965 408.933C149.275 408.893 142.874 406.2 138.168 401.445C133.462 396.69 130.836 390.262 130.865 383.572L132.09 92.8434C132.119 86.1491 134.804 79.7402 139.556 75.0244C144.307 70.3087 150.736 67.6719 157.431 67.6932L273.393 68.2254C280.083 68.2705 286.482 70.9666 291.187 75.7226C295.892 80.4786 298.52 86.9063 298.493 93.5964L297.288 384.315C297.259 391.013 294.571 397.426 289.816 402.144C285.06 406.862 278.626 409.499 271.927 409.475Z" fill="#263238"/>
<path d="M273.192 78.2654L250.703 78.1549C249.969 78.168 249.246 78.3254 248.574 78.6181C247.902 78.9107 247.294 79.333 246.784 79.8607C246.275 80.3884 245.875 81.0112 245.607 81.6936C245.339 82.3759 245.207 83.1045 245.221 83.8376V87.9138C245.234 88.6469 245.103 89.3755 244.834 90.0578C244.566 90.7402 244.166 91.363 243.657 91.8907C243.148 92.4184 242.54 92.8407 241.868 93.1334C241.195 93.426 240.472 93.5834 239.739 93.5965L195.914 93.3957C194.434 93.3536 193.032 92.7265 192.014 91.6519C190.995 90.5773 190.445 89.1427 190.483 87.6628V83.5866C190.52 82.105 189.969 80.669 188.948 79.5941C187.928 78.5191 186.523 77.8932 185.041 77.8537H177.139L157.461 77.7634C152.767 77.7447 148.258 79.59 144.924 82.8938C141.59 86.1977 139.704 90.6899 139.68 95.3836L138.485 379.144C138.467 383.835 140.311 388.342 143.613 391.674C146.915 395.006 151.405 396.891 156.096 396.915L271.827 397.447C274.15 397.458 276.452 397.011 278.603 396.131C280.753 395.252 282.709 393.958 284.359 392.322C286.01 390.687 287.321 388.743 288.22 386.601C289.119 384.458 289.587 382.16 289.598 379.837L290.792 96.0663C290.809 93.7407 290.367 91.4347 289.492 89.2803C288.616 87.1259 287.323 85.1656 285.688 83.5119C284.053 81.8581 282.107 80.5434 279.963 79.6431C277.819 78.7427 275.518 78.2746 273.192 78.2654Z" fill="#FAFAFA"/>
<path d="M207.731 370.239C207.805 370.728 207.727 371.228 207.508 371.671C207.289 372.115 206.94 372.48 206.507 372.719C206.074 372.958 205.578 373.058 205.086 373.006C204.594 372.955 204.13 372.754 203.756 372.43C203.382 372.107 203.116 371.676 202.994 371.197C202.872 370.717 202.9 370.212 203.073 369.749C203.247 369.286 203.559 368.888 203.966 368.607C204.374 368.327 204.857 368.178 205.352 368.18C205.939 368.144 206.516 368.339 206.961 368.724C207.406 369.109 207.682 369.653 207.731 370.239Z" fill="#455A64"/>
<path d="M215.131 370.279C215.202 370.768 215.123 371.267 214.902 371.709C214.682 372.152 214.331 372.516 213.898 372.753C213.464 372.99 212.968 373.089 212.477 373.036C211.986 372.983 211.522 372.781 211.149 372.456C210.776 372.132 210.511 371.701 210.39 371.222C210.27 370.743 210.298 370.238 210.473 369.776C210.647 369.314 210.959 368.916 211.366 368.636C211.774 368.356 212.257 368.208 212.751 368.211C213.34 368.174 213.919 368.371 214.364 368.758C214.809 369.145 215.084 369.691 215.131 370.279Z" fill="#455A64"/>
<path d="M222.53 370.309C222.604 370.798 222.527 371.298 222.308 371.741C222.089 372.185 221.739 372.551 221.306 372.789C220.873 373.028 220.377 373.128 219.885 373.077C219.393 373.025 218.929 372.824 218.555 372.5C218.181 372.177 217.915 371.746 217.793 371.267C217.671 370.788 217.699 370.283 217.873 369.82C218.047 369.357 218.358 368.958 218.766 368.677C219.173 368.397 219.656 368.248 220.151 368.251C220.739 368.212 221.318 368.406 221.763 368.791C222.208 369.177 222.484 369.722 222.53 370.309Z" fill="#455A64"/>
<path d="M174.318 215.06C176.206 215.332 289.959 237.64 289.959 237.64V215.06H174.318Z" fill="#EBEBEB"/>
<path d="M138.525 358.432C138.525 358.432 262.278 340.922 261.194 341.464C260.11 342.006 138.525 341.464 138.525 341.464V358.432Z" fill="#EBEBEB"/>
<path d="M282.228 27.1216C282.368 27.1216 282.489 33.3766 282.489 41.0873C282.489 48.798 282.368 55.063 282.228 55.063C282.087 55.063 281.967 48.808 281.967 41.0873C281.967 33.3665 282.087 27.1216 282.228 27.1216Z" fill="#263238"/>
<path d="M331.755 59.2797C331.816 59.4103 326.133 62.0407 319.075 65.1531C312.017 68.2655 306.244 70.6952 306.184 70.5546C306.123 70.4141 311.806 67.7936 318.864 64.6812C325.922 61.5688 331.695 59.1392 331.755 59.2797Z" fill="#263238"/>
<path d="M330.5 10.5054C330.441 10.6982 330.353 10.881 330.239 11.0476C330.008 11.4291 329.727 11.9211 329.376 12.5235C328.623 13.8086 327.508 15.6459 326.103 17.8949C323.292 22.4129 319.245 28.5373 314.657 35.2239C310.069 41.9106 305.993 48.0048 303.101 52.4626C301.685 54.6413 300.531 56.4786 299.688 57.7436L298.744 59.1693C298.644 59.3442 298.522 59.5061 298.382 59.6512C298.457 59.4629 298.547 59.2815 298.653 59.1091C298.884 58.7276 299.165 58.2356 299.517 57.6332C300.26 56.3481 301.384 54.5208 302.79 52.2618C305.601 47.7438 309.647 41.6194 314.225 34.9328C318.804 28.2461 322.9 22.192 325.792 17.7041L329.205 12.413L330.149 10.9874C330.253 10.8173 330.37 10.6561 330.5 10.5054Z" fill="#263238"/>
<path d="M399.927 128.706H173.575C172.412 128.706 171.261 128.935 170.187 129.381C169.114 129.826 168.138 130.478 167.317 131.301C166.495 132.123 165.844 133.099 165.4 134.174C164.956 135.248 164.728 136.399 164.729 137.562V207.771C164.728 208.934 164.956 210.085 165.4 211.159C165.844 212.234 166.495 213.21 167.317 214.032C168.138 214.855 169.114 215.507 170.187 215.952C171.261 216.398 172.412 216.627 173.575 216.627H190.442C191.797 223.956 193.384 233.203 193.384 233.203L208.644 216.627H399.927C401.089 216.627 402.24 216.398 403.314 215.952C404.388 215.507 405.363 214.855 406.185 214.032C407.006 213.21 407.657 212.234 408.101 211.159C408.545 210.085 408.773 208.934 408.772 207.771V137.562C408.773 136.399 408.545 135.248 408.101 134.174C407.657 133.099 407.006 132.123 406.185 131.301C405.363 130.478 404.388 129.826 403.314 129.381C402.24 128.935 401.089 128.706 399.927 128.706Z" fill="#A5490E"/>
<path d="M306.534 166.768C306.534 166.909 279.597 167.029 246.375 167.029C213.152 167.029 186.205 166.909 186.205 166.768C186.205 166.627 213.142 166.497 246.375 166.497C279.607 166.497 306.534 166.647 306.534 166.768Z" fill="#F5F5F5"/>
<path d="M306.534 156.005C306.534 156.146 279.597 156.266 246.375 156.266C213.152 156.266 186.205 156.146 186.205 156.005C186.205 155.865 213.142 155.744 246.375 155.744C279.607 155.744 306.534 155.855 306.534 156.005Z" fill="#F5F5F5"/>
<path d="M306.534 177.471C306.534 177.611 279.597 177.732 246.375 177.732C213.152 177.732 186.205 177.611 186.205 177.471C186.205 177.33 213.142 177.21 246.375 177.21C279.607 177.21 306.534 177.32 306.534 177.471Z" fill="#F5F5F5"/>
<path d="M265.019 188.525C265.019 188.665 247.379 188.786 225.612 188.786C203.845 188.786 186.205 188.665 186.205 188.525C186.205 188.384 203.845 188.264 225.612 188.264C247.379 188.264 265.019 188.374 265.019 188.525Z" fill="#F5F5F5"/>
<path d="M297.649 254.939H69.4501C68.6354 254.938 67.8284 255.098 67.0756 255.409C66.3228 255.721 65.6389 256.178 65.0633 256.754C64.4876 257.331 64.0316 258.015 63.7214 258.769C63.4111 259.522 63.2528 260.329 63.2554 261.144V335.44C63.2554 337.083 63.9081 338.659 65.0698 339.82C66.2315 340.982 67.8072 341.635 69.4501 341.635H235.19L250.25 358.03C250.25 358.03 251.827 348.813 253.162 341.635H297.619C299.262 341.635 300.838 340.982 301.999 339.82C303.161 338.659 303.814 337.083 303.814 335.44V261.144C303.816 260.332 303.659 259.527 303.351 258.776C303.042 258.024 302.589 257.341 302.017 256.765C301.444 256.189 300.764 255.731 300.015 255.418C299.265 255.104 298.461 254.942 297.649 254.939Z" fill="#455A64"/>
<path d="M288.704 293.272C288.704 293.413 261.766 293.533 228.534 293.533C195.302 293.533 168.364 293.413 168.364 293.272C168.364 293.131 195.302 293.011 228.534 293.011C261.766 293.011 288.704 293.091 288.704 293.272Z" fill="#F5F5F5"/>
<path d="M288.704 282.449C288.704 282.589 261.766 282.71 228.534 282.71C195.302 282.71 168.364 282.589 168.364 282.449C168.364 282.308 195.302 282.188 228.534 282.188C261.766 282.188 288.704 282.298 288.704 282.449Z" fill="#F5F5F5"/>
<path d="M288.704 303.914C288.704 304.055 261.766 304.175 228.534 304.175C195.302 304.175 168.364 304.055 168.364 303.914C168.364 303.774 195.302 303.653 228.534 303.653C261.766 303.653 288.704 303.774 288.704 303.914Z" fill="#F5F5F5"/>
<path d="M247.188 314.968C247.188 315.119 229.548 315.229 207.781 315.229C186.015 315.229 168.364 315.119 168.364 314.968C168.364 314.818 186.015 314.707 207.781 314.707C229.548 314.707 247.188 314.828 247.188 314.968Z" fill="#F5F5F5"/>
<path d="M343.02 98.9277C343.161 97.0804 341.514 94.5403 340.008 93.0744C339.136 92.288 338.512 91.2636 338.214 90.1273C337.916 88.9909 337.957 87.7923 338.331 86.6789C338.944 84.3999 340.39 84.5705 340.962 83.2252C341.24 82.1851 341.352 81.1075 341.293 80.0325C341.412 79.1243 341.718 78.2504 342.189 77.4654C342.661 76.6804 343.29 76.001 344.036 75.4697C344.782 74.9383 345.63 74.5665 346.526 74.3773C347.422 74.188 348.348 74.1855 349.245 74.3699C349.744 72.5882 350.766 70.9975 352.18 69.8044C353.594 68.6113 355.335 67.8709 357.175 67.6793C359.015 67.4877 360.87 67.8537 362.5 68.7299C364.13 69.6061 365.458 70.952 366.313 72.5928C367.352 72.0647 368.506 71.8008 369.672 71.8243C370.837 71.8479 371.979 72.1582 372.996 72.7278C374.014 73.2975 374.875 74.109 375.504 75.0906C376.133 76.0721 376.511 77.1936 376.604 78.3558C377.658 77.6835 378.919 77.4148 380.155 77.5993C381.391 77.7839 382.519 78.4091 383.331 79.3598C384.093 80.3543 384.545 81.5512 384.631 82.8012C384.716 84.0511 384.432 85.2986 383.813 86.3878C383.176 87.4681 382.304 88.3905 381.261 89.086C380.218 89.7815 379.031 90.232 377.789 90.4038C375.298 90.7202 372.77 90.2609 370.55 89.0885C368.339 87.924 366.331 86.4084 364.606 84.6007" fill="#263238"/>
<path d="M359.435 214.307C383.439 214.307 402.898 195.302 402.898 171.858C402.898 148.414 383.439 129.409 359.435 129.409C335.431 129.409 315.972 148.414 315.972 171.858C315.972 195.302 335.431 214.307 359.435 214.307Z" fill="#E0E0E0"/>
<path d="M403.08 171.888L398.27 159.559L381.032 170.392L396.393 194.077C396.393 194.077 402.638 185.965 403.08 171.888Z" fill="#EB996E"/>
<path d="M355.52 145.182C358.49 145.199 361.352 144.074 363.515 142.038C365.677 140.003 366.974 137.214 367.136 134.248C367.387 129.138 367.608 124.208 367.608 124.208C367.608 124.208 377.086 123.526 377.959 114.249C378.833 104.972 378.963 83.5364 378.963 83.5364C373.821 80.8373 368.056 79.5484 362.254 79.8006C356.452 80.0527 350.82 81.8371 345.932 84.9721L345.028 85.5444L343.934 133.536C343.923 135.063 344.215 136.577 344.793 137.991C345.371 139.405 346.223 140.69 347.3 141.773C348.377 142.856 349.658 143.715 351.069 144.3C352.48 144.885 353.993 145.185 355.52 145.182Z" fill="#FFBE9D"/>
<path d="M367.568 124.088C363.243 123.82 359.093 122.28 355.641 119.66C355.641 119.66 357.98 126.578 367.397 126.498L367.568 124.088Z" fill="#EB996E"/>
<path d="M344.747 99.1787C344.755 98.8143 344.622 98.4608 344.375 98.193C344.127 97.9251 343.786 97.7638 343.422 97.743C341.675 97.6627 338.803 98.2952 338.402 103.074C337.88 109.901 344.546 108.325 344.576 108.094C344.606 107.863 344.717 101.839 344.747 99.1787Z" fill="#FFBE9D"/>
<path d="M343.151 105.414C343.151 105.414 343.02 105.494 342.81 105.564C342.668 105.623 342.516 105.653 342.363 105.653C342.209 105.653 342.058 105.623 341.916 105.564C341.492 105.253 341.159 104.833 340.953 104.349C340.746 103.865 340.673 103.335 340.741 102.813C340.767 102.227 340.924 101.653 341.203 101.137C341.289 100.925 341.426 100.738 341.601 100.591C341.776 100.444 341.984 100.342 342.207 100.293C342.348 100.265 342.494 100.288 342.619 100.358C342.744 100.428 342.84 100.54 342.89 100.675C342.97 100.865 342.89 101.006 342.95 101.016C343.01 101.026 343.111 100.916 343.071 100.625C343.046 100.453 342.96 100.296 342.83 100.183C342.653 100.026 342.423 99.9429 342.187 99.9518C341.896 99.9888 341.62 100.101 341.386 100.277C341.152 100.453 340.968 100.687 340.852 100.956C340.507 101.52 340.314 102.163 340.289 102.823C340.211 103.43 340.315 104.047 340.586 104.595C340.858 105.144 341.286 105.6 341.816 105.906C341.997 105.971 342.191 105.996 342.384 105.979C342.576 105.961 342.763 105.902 342.93 105.805C343.121 105.584 343.171 105.434 343.151 105.414Z" fill="#EB996E"/>
<path d="M380.238 86.448C380.238 86.448 374.606 89.1789 367.287 85.5243C362.478 83.1247 356.885 81.9501 355.65 82.9139C354.415 83.8777 354.154 88.8375 349.395 90.2833C349.395 90.2833 349.717 99.7209 345.952 99.3895C342.187 99.0582 344.536 84.44 344.536 84.44L353.753 79.9421L363.793 78.0445L373.261 79.3798L380.59 81.3878L380.238 86.448Z" fill="#263238"/>
<path d="M317.177 141.146C327.026 131.016 344.356 132.11 344.356 132.11L358.723 142.401L366.865 132.913C372.638 133.699 378.242 135.433 383.451 138.044L384.003 138.214V138.325C390.309 141.748 399.224 149.961 407.728 157.923L397.557 167.36L386.293 177.4C386.318 177.465 386.318 177.537 386.293 177.601C386.182 178.214 387.859 191.958 389.586 202.4C384.683 207.236 378.676 210.804 372.085 212.796C365.493 214.789 358.515 215.146 351.755 213.836C347.147 213.022 344.918 211.908 340.651 210.824C337.576 210.009 334.828 208.265 332.781 205.83C330.735 203.395 329.489 200.388 329.215 197.219C328.452 188.464 327.87 177.621 327.87 177.621" fill="#455A64"/>
<path d="M375.871 134.69C376.123 135.211 376.331 135.752 376.494 136.307C376.865 137.311 377.357 138.887 377.949 140.784C379.134 144.58 380.65 149.82 382.076 155.774C383.502 161.728 384.576 167.079 385.248 170.995C385.59 173.003 385.841 174.549 385.991 175.653C386.099 176.22 386.163 176.794 386.182 177.37C386.005 176.82 385.874 176.256 385.791 175.684C385.56 174.509 385.259 172.953 384.887 171.065C384.114 167.17 382.989 161.798 381.564 155.895C380.138 149.991 378.692 144.68 377.608 140.895L376.303 136.367C376.12 135.819 375.976 135.258 375.871 134.69Z" fill="#263238"/>
<path d="M385.118 170.884C385.028 170.774 389.325 167.119 394.716 162.732C400.108 158.344 404.545 154.871 404.636 154.981C404.726 155.091 400.439 158.746 395.048 163.134C389.656 167.521 385.218 170.995 385.118 170.884Z" fill="#263238"/>
<path opacity="0.2" d="M330.179 155.041L321.384 184.027L324.667 185.734L327.9 177.541C327.9 177.541 331.193 160.312 330.179 155.041Z" fill="black"/>
<g opacity="0.2">
<path d="M374.917 134.71C379.666 137.21 367.759 143.234 362.387 143.074L366.293 132.773C366.293 132.773 373.321 133.867 374.917 134.71Z" fill="black"/>
</g>
<path d="M342.94 132.773V125.092C342.94 125.092 357.93 128.957 358.472 137.923C358.472 137.923 360.379 128.004 368.11 127.532L369.205 141.477L360.169 149.308H351.102L343.884 143.074L342.94 133.395" fill="#455A64"/>
<path d="M361.855 180.955C361.803 180.407 361.803 179.856 361.855 179.308C361.855 178.244 361.855 176.708 361.905 174.81C361.905 171.025 361.795 165.774 361.323 160.021C360.851 154.268 360.088 149.068 359.456 145.333C359.134 143.535 358.863 142.05 358.662 140.915C358.532 140.378 358.452 139.83 358.421 139.279C358.61 139.798 358.757 140.332 358.863 140.875C359.124 141.879 359.455 143.405 359.817 145.272C360.746 150.136 361.416 155.046 361.825 159.981C362.231 164.916 362.372 169.87 362.247 174.82C362.196 176.718 362.126 178.254 362.036 179.318C362.014 179.867 361.954 180.414 361.855 180.955Z" fill="#263238"/>
<path d="M357.789 135.343C357.489 135.292 357.181 135.32 356.896 135.423C356.16 135.838 355.618 136.528 355.39 137.341C354.151 140.018 353.186 142.813 352.508 145.684L352.428 146.025L352.127 145.845C351.233 145.303 350.309 144.72 349.386 144.098C347.702 142.952 346.08 141.718 344.526 140.403C343.819 139.813 343.253 139.072 342.87 138.234C342.568 137.497 342.398 136.712 342.368 135.915C342.337 134.788 342.449 133.661 342.699 132.562C342.759 132.151 342.87 131.75 343.03 131.367C343.018 131.778 342.974 132.187 342.9 132.592C342.729 133.684 342.676 134.791 342.739 135.895C342.787 136.64 342.967 137.371 343.271 138.054C343.639 138.833 344.178 139.519 344.848 140.062C346.263 141.246 347.91 142.471 349.677 143.676C350.6 144.299 351.504 144.891 352.398 145.433L352.016 145.594C352.687 142.71 353.698 139.916 355.028 137.271C355.232 136.807 355.496 136.372 355.811 135.975C356.058 135.669 356.39 135.442 356.765 135.323C357.528 135.082 357.809 135.333 357.789 135.343Z" fill="#263238"/>
<path d="M368.11 127.532C368.201 127.923 368.248 128.324 368.251 128.726L368.492 131.999C368.602 133.375 368.773 135.011 369.054 136.809C369.295 137.773 369.357 138.774 369.235 139.76C368.855 140.795 368.15 141.679 367.227 142.28C366.053 143.009 364.951 143.846 363.934 144.78L363.532 145.232V144.63C363.35 142.007 362.592 139.457 361.313 137.16C360.359 135.443 359.576 134.57 359.637 134.52C359.697 134.469 359.878 134.7 360.229 135.112C360.733 135.704 361.19 136.335 361.594 136.999C362.991 139.307 363.826 141.91 364.034 144.6L363.592 144.449C364.624 143.475 365.751 142.607 366.956 141.859C367.772 141.323 368.397 140.543 368.743 139.63C368.848 138.71 368.794 137.78 368.582 136.879C368.331 135.062 368.201 133.405 368.13 132.02C368.06 130.634 368.05 129.51 368.06 128.736C368.026 128.334 368.043 127.93 368.11 127.532Z" fill="#263238"/>
<path d="M416.372 129.459C415.76 130.172 393.672 159.74 393.672 159.74L396.784 161.507L419.435 132.391L416.372 129.459Z" fill="#263238"/>
<path d="M327.689 152.792C327.689 152.792 350.912 186.226 352.317 186.878C355.068 188.173 386.835 160.724 389.867 158.093C390.289 157.531 391.152 156.357 392.879 154.017C392.879 154.017 395.389 142.552 398.059 143.425C400.73 144.298 396.594 149.258 398.341 153.616C400.088 157.973 408.059 147.592 408.381 146.648L410.439 143.957C410.439 143.957 412.597 150.071 412.447 152.632C411.975 160.814 404.234 170.543 404.234 170.543C404.234 170.543 369.466 213.615 345.651 214.95C338.793 215.331 326.575 195.874 318.452 181.276C316.08 177.013 315.35 172.03 316.398 167.266C317.447 162.501 320.202 158.286 324.145 155.413L327.689 152.792Z" fill="#FFBE9D"/>
<path d="M408.501 154.077C408.946 153.049 409.442 152.044 409.987 151.065C410.435 150.035 410.937 149.03 411.493 148.053C410.86 150.227 409.84 152.267 408.481 154.077H408.501Z" fill="#EB996E"/>
<path d="M323.763 136.477C323.763 136.477 298.834 145.343 317.368 187.26L346.143 169.89L342.046 160.091L323.763 136.477Z" fill="#455A64"/>
<path d="M321.856 137.21C322.867 137.116 323.887 137.201 324.868 137.461C326.017 137.759 327.116 138.222 328.131 138.837C329.473 139.672 330.695 140.686 331.766 141.849C334.484 144.885 336.762 148.288 338.532 151.959C340.641 156.035 342.609 160.684 344.627 165.553C345.229 167.019 345.832 168.455 346.394 169.82L346.484 170.041L346.273 170.151C337.95 174.69 330.701 178.936 325.581 182.119C323.011 183.705 320.973 185.011 319.557 185.914L317.95 186.918C317.767 187.046 317.572 187.157 317.368 187.25C317.528 187.095 317.703 186.957 317.89 186.838C318.242 186.577 318.764 186.195 319.456 185.724C320.822 184.72 322.84 183.414 325.38 181.788C330.46 178.525 337.689 174.208 346.022 169.66L345.902 169.981C345.34 168.615 344.737 167.18 344.135 165.714C342.127 160.844 340.119 156.206 338.111 152.14C336.374 148.509 334.152 145.131 331.504 142.1C330.47 140.947 329.288 139.934 327.99 139.088C326.997 138.465 325.923 137.981 324.798 137.652C323.831 137.422 322.847 137.274 321.856 137.21Z" fill="#263238"/>
<path d="M375.469 75.0626C375.533 75.2025 375.574 75.3516 375.59 75.5044C375.666 75.9316 375.693 76.3662 375.67 76.7995C375.574 78.43 374.897 79.9721 373.763 81.1469C372.901 82.0069 371.823 82.6184 370.642 82.9171C369.462 83.2157 368.223 83.1903 367.056 82.8436C365.642 82.4677 364.419 81.5804 363.622 80.3537C363.2 79.6768 363.02 78.8771 363.11 78.0847C363.156 77.6716 363.29 77.2732 363.503 76.9163C363.716 76.5595 364.003 76.2526 364.345 76.0164C364.702 75.7918 365.109 75.6595 365.53 75.6314C365.95 75.6034 366.371 75.6805 366.755 75.8558C367.499 76.1715 368.09 76.7662 368.401 77.5124C368.649 78.2084 368.718 78.9555 368.602 79.6851C368.486 80.4148 368.189 81.1038 367.739 81.689C366.985 82.6648 365.911 83.3429 364.706 83.6037C363.501 83.8646 362.242 83.6914 361.152 83.1147C360.366 82.703 359.534 82.3862 358.672 82.1709C358.028 82.0259 357.355 82.0965 356.755 82.3717C356.252 82.643 355.775 82.9588 355.329 83.3155C355.329 83.3155 355.419 83.185 355.62 82.9641C355.744 82.8261 355.882 82.7015 356.032 82.5926C356.228 82.4294 356.444 82.2911 356.674 82.181C357.295 81.8709 357.998 81.7655 358.682 81.8798C359.577 82.0729 360.443 82.3765 361.263 82.7834C361.728 82.9885 362.212 83.1466 362.709 83.2553C363.243 83.3551 363.791 83.3551 364.325 83.2553C365.527 83.0644 366.608 82.4125 367.337 81.438C367.734 80.9192 367.995 80.3096 368.096 79.6645C368.198 79.0193 368.137 78.359 367.919 77.7433C367.8 77.432 367.616 77.1493 367.38 76.9137C367.144 76.678 366.861 76.4946 366.549 76.3753C366.238 76.256 365.905 76.2035 365.572 76.2213C365.239 76.239 364.913 76.3266 364.616 76.4783C364.339 76.6768 364.106 76.9312 363.933 77.2252C363.76 77.5192 363.651 77.8462 363.612 78.1851C363.541 78.8621 363.696 79.5437 364.054 80.1228C364.782 81.2441 365.897 82.0588 367.186 82.4119C368.275 82.7457 369.434 82.783 370.542 82.52C371.65 82.2571 372.668 81.7034 373.491 80.9159C374.596 79.8162 375.287 78.3695 375.449 76.8196C375.492 76.2349 375.499 75.6481 375.469 75.0626Z" fill="#455A64"/>
<path d="M343.713 108.536C343.763 108.536 344.044 108.978 343.713 109.671C343.608 109.866 343.465 110.039 343.293 110.178C343.121 110.318 342.922 110.422 342.709 110.484C342.435 110.545 342.151 110.54 341.881 110.468C341.61 110.396 341.36 110.261 341.153 110.072C340.926 109.887 340.746 109.652 340.625 109.386C340.505 109.119 340.449 108.828 340.46 108.536C340.477 108.095 340.639 107.671 340.922 107.331C341.404 106.769 341.926 106.709 341.926 106.769C341.926 106.829 341.564 107.02 341.243 107.552C341.037 107.861 340.949 108.232 340.993 108.601C341.037 108.969 341.211 109.309 341.484 109.56C341.632 109.694 341.807 109.794 341.999 109.851C342.19 109.908 342.391 109.922 342.588 109.891C342.92 109.817 343.212 109.624 343.412 109.349C343.733 108.938 343.633 108.536 343.713 108.536Z" fill="#263238"/>
<path d="M377.126 78.416C377.456 78.9745 377.623 79.6146 377.608 80.2634C377.687 81.849 377.15 83.4039 376.11 84.6032C375.07 85.8025 373.606 86.5534 372.026 86.699C371.385 86.8086 370.726 86.732 370.128 86.4781C370.128 86.3878 370.861 86.4781 371.975 86.3275C373.422 86.1052 374.743 85.3786 375.706 84.2763C376.669 83.174 377.211 81.7668 377.236 80.3035C377.266 79.159 377.035 78.4662 377.126 78.416Z" fill="#455A64"/>
<path d="M343.171 162.451C343.231 162.581 336.614 165.985 328.382 170.051C320.149 174.117 313.432 177.32 313.322 177.19C313.211 177.059 319.868 173.655 328.101 169.579C336.333 165.503 343.11 162.32 343.171 162.451Z" fill="#E0E0E0"/>
<path d="M337.137 151.065C337.207 151.186 331.313 154.489 323.974 158.425C316.635 162.36 310.631 165.453 310.571 165.322C310.511 165.192 316.394 161.899 323.733 157.963C331.072 154.027 337.066 150.935 337.137 151.065Z" fill="#E0E0E0"/>
<path d="M331.304 141.859C330.366 142.508 329.383 143.089 328.362 143.596L321.153 147.612L313.985 151.708C313.021 152.322 312.014 152.865 310.973 153.334C311.86 152.609 312.807 151.961 313.804 151.397C315.591 150.262 318.091 148.756 320.902 147.16C323.713 145.564 326.304 144.218 328.201 143.274C329.193 142.715 330.231 142.241 331.304 141.859Z" fill="#E0E0E0"/>
<path d="M353.362 139.66C352.682 139.628 352.018 139.45 351.414 139.138C349.942 138.478 348.586 137.587 347.398 136.497C346.206 135.409 345.111 134.22 344.125 132.943C343.674 132.452 343.293 131.901 342.99 131.307C343.05 131.307 343.573 131.799 344.406 132.712C345.239 133.626 346.364 134.871 347.749 136.106C348.916 137.166 350.215 138.07 351.615 138.797C352.649 139.369 353.382 139.6 353.362 139.66Z" fill="#E0E0E0"/>
<path d="M368 134.238C367.668 135.449 366.935 136.511 365.921 137.25C365.022 138.128 363.849 138.67 362.598 138.787C363.639 138.199 364.644 137.552 365.61 136.849C366.45 136.019 367.247 135.148 368 134.238Z" fill="#E0E0E0"/>
<path d="M394.114 149.349C393.931 149.405 393.742 149.439 393.551 149.449L391.935 149.65C390.529 149.81 388.491 150.001 385.981 150.202C380.961 150.604 373.933 150.995 366.273 151.276C358.612 151.557 351.594 151.648 346.534 151.608C344.014 151.608 341.966 151.537 340.56 151.487L338.934 151.407C338.744 151.407 338.555 151.383 338.372 151.337C338.558 151.313 338.747 151.313 338.934 151.337H340.56L346.534 151.286C351.554 151.236 358.582 151.076 366.253 150.804C373.923 150.533 380.911 150.182 385.951 149.881L391.915 149.499L393.541 149.399C393.729 149.356 393.921 149.339 394.114 149.349Z" fill="#E0E0E0"/>
<path d="M386.182 161.256C385.64 161.38 385.09 161.467 384.536 161.517C383.461 161.648 381.915 161.808 380.008 161.989C376.182 162.34 370.891 162.702 365.038 162.943C359.185 163.184 353.873 163.234 349.978 163.194C348.06 163.194 346.504 163.133 345.43 163.093C344.872 163.098 344.314 163.054 343.763 162.963C344.316 162.896 344.873 162.87 345.43 162.883L349.978 162.822C353.813 162.822 359.114 162.652 364.958 162.421C370.801 162.19 376.102 161.878 379.927 161.617L384.465 161.306C385.035 161.236 385.61 161.219 386.182 161.256Z" fill="#E0E0E0"/>
<path d="M368.18 175.935C367.088 176.187 365.976 176.345 364.857 176.406C362.789 176.617 359.938 176.848 356.775 177.009C353.612 177.169 350.751 177.22 348.673 177.21C347.553 177.262 346.431 177.219 345.319 177.079C346.426 176.91 347.544 176.83 348.663 176.838L356.745 176.487L364.777 176.035C365.908 175.924 367.045 175.89 368.18 175.935Z" fill="#E0E0E0"/>
<path d="M345.179 141.096C345.179 141.246 342.096 141.276 338.301 141.437C334.506 141.598 331.444 141.809 331.424 141.658C335.963 140.856 340.589 140.666 345.179 141.096Z" fill="#E0E0E0"/>
<path d="M387.528 140.554C384.562 140.798 381.586 140.871 378.612 140.774C375.634 140.853 372.653 140.756 369.687 140.483C372.655 140.233 375.635 140.156 378.612 140.252C381.587 140.173 384.565 140.274 387.528 140.554Z" fill="#E0E0E0"/>
<path d="M389.074 201.647C388.791 201.857 388.484 202.032 388.16 202.169C387.558 202.48 386.664 202.892 385.55 203.364C382.621 204.57 379.599 205.533 376.514 206.245C373.429 206.949 370.293 207.402 367.136 207.601C365.931 207.671 364.947 207.691 364.265 207.671C363.928 207.687 363.592 207.663 363.261 207.601C363.261 207.52 364.747 207.46 367.146 207.229C370.271 206.929 373.373 206.429 376.433 205.733C379.502 205.028 382.521 204.119 385.469 203.012C387.648 202.169 389.043 201.567 389.074 201.647Z" fill="#E0E0E0"/>
<path d="M117.863 338.301C141.867 338.301 161.326 319.737 161.326 296.836C161.326 273.936 141.867 255.371 117.863 255.371C93.859 255.371 74.3999 273.936 74.3999 296.836C74.3999 319.737 93.859 338.301 117.863 338.301Z" fill="#E0E0E0"/>
<path d="M109.008 196.888C102.12 197.249 99.4095 204.438 98.5863 206.044C97.8792 207.71 97.504 209.497 97.4819 211.305C97.4608 213.117 97.0064 214.896 96.1566 216.496C94.6405 218.916 91.4478 220.171 90.5844 222.892C89.5804 225.974 92.1205 229.267 91.4478 232.43C91.0864 234.126 89.8515 235.522 89.4398 237.199C89.06 238.991 89.395 240.861 90.3736 242.409C92.6326 246.305 97.3313 248.253 101.829 248.433C106.327 248.614 110.725 247.249 115.032 245.923" fill="#263238"/>
<path d="M139.349 205.804C139.085 206.565 139.038 207.385 139.216 208.171C139.393 208.957 139.787 209.677 140.353 210.251C141.509 211.36 142.759 212.368 144.088 213.263C144.752 213.721 145.319 214.305 145.756 214.982C146.194 215.659 146.494 216.416 146.638 217.209C146.768 218.675 146.026 220.141 146.226 221.596C146.748 225.361 152.742 226.486 153.054 230.261C153.274 232.781 150.684 235.1 151.407 237.52C151.798 238.428 152.304 239.281 152.913 240.06C154.62 242.891 153.465 246.787 150.995 248.976C148.525 251.164 145.112 251.937 141.819 252.088C139.048 252.208 135.895 251.757 134.269 249.518C132.773 247.459 133.084 244.668 133.375 242.148C134.771 230.381 134.53 218.494 134.299 206.647" fill="#263238"/>
<path d="M110.825 260.25C110.875 254.066 110.825 247.56 110.825 247.56C110.825 247.56 102.884 246.144 101.347 235.743C99.8916 225.813 102.351 204.468 102.351 204.468C113.867 199.92 126.839 201.677 134.901 210.944L133.636 261.144C133.495 266.967 128.365 271.485 122.13 271.284C115.835 271.074 110.775 266.164 110.825 260.25Z" fill="#FFBE9D"/>
<path d="M110.815 247.56C115.706 247.692 120.536 246.465 124.771 244.016C124.771 244.016 121.317 251.114 110.926 250.04L110.815 247.56Z" fill="#EB996E"/>
<path d="M130.383 203.534C126.588 208.956 116.518 214.528 109.299 215.823C110.132 214.719 114.56 211.988 115.403 210.884C112.14 213.313 107.462 216.586 103.134 216.797C102.624 216.872 102.103 216.792 101.638 216.566C101.396 216.372 101.201 216.124 101.07 215.842C100.94 215.56 100.876 215.251 100.885 214.94C100.639 211.799 100.74 208.641 101.187 205.522C101.53 202.887 102.87 200.483 104.932 198.806C107.713 196.657 111.678 196.135 115.423 196.045C118.558 195.841 121.701 196.264 124.67 197.29C127.542 198.414 130.001 200.653 130.423 203.314" fill="#263238"/>
<path d="M141.286 227.821C141.762 225.528 142.097 223.208 142.29 220.874C142.602 215.512 141.055 195.774 122.572 197.32L121.819 202.952C121.819 202.952 118.967 222.219 130.925 222.359C131.729 226.661 133.831 230.614 136.949 233.685C136.949 233.685 140.082 233.594 141.206 227.821" fill="#263238"/>
<path d="M130.956 222.359C132.072 222.14 133.228 222.227 134.299 222.61C135.372 223.015 136.241 223.827 136.719 224.869C137.135 225.935 137.135 227.118 136.719 228.183C136.289 229.237 135.63 230.184 134.791 230.954C134.238 231.548 133.549 231.999 132.783 232.269C132.397 232.402 131.983 232.437 131.58 232.37C131.177 232.304 130.797 232.138 130.474 231.887" fill="#FFBE9D"/>
<path d="M131.488 229.106C131.357 229.106 131.839 229.819 132.853 229.558C133.126 229.472 133.379 229.331 133.596 229.145C133.814 228.959 133.991 228.73 134.118 228.474C134.433 227.91 134.631 227.288 134.701 226.647C134.797 225.945 134.636 225.232 134.249 224.639C134.092 224.391 133.88 224.183 133.629 224.031C133.378 223.879 133.095 223.788 132.803 223.765C131.799 223.765 131.428 224.448 131.538 224.468C131.648 224.488 132.03 224.187 132.713 224.357C133.13 224.52 133.475 224.828 133.684 225.224C133.892 225.621 133.95 226.08 133.847 226.516C133.717 227.661 133.265 228.705 132.652 228.956C132.04 229.207 131.558 229.016 131.488 229.106Z" fill="#EB996E"/>
<path d="M132.974 201.506C134.407 202.32 136.101 202.54 137.694 202.119C139.287 201.699 140.652 200.672 141.498 199.257C142.083 198.37 142.292 197.287 142.08 196.245C141.843 195.565 141.432 194.959 140.887 194.487C140.343 194.015 139.685 193.693 138.978 193.555C137.967 193.291 136.907 193.28 135.891 193.524C134.876 193.767 133.936 194.257 133.154 194.95C132.39 195.666 131.844 196.582 131.577 197.595C131.311 198.607 131.335 199.674 131.648 200.673C132.003 201.655 132.655 202.501 133.513 203.095C134.372 203.689 135.394 204 136.437 203.986" fill="#263238"/>
<path d="M134.64 231.466C133.582 232.168 132.617 233.001 131.768 233.946C130.919 234.906 130.476 236.159 130.534 237.44C130.689 238.132 130.767 238.839 130.764 239.548C130.459 240.477 129.963 241.332 129.309 242.058C128.702 243.169 128.466 244.445 128.634 245.7C128.802 246.954 129.365 248.123 130.242 249.036C132.065 250.828 134.524 251.824 137.08 251.807C138.55 251.932 140.022 251.58 141.276 250.803C143.003 249.598 143.666 247.329 143.716 245.211" fill="#263238"/>
<path d="M135.905 205.653C135.65 206.337 135.283 206.975 134.821 207.54C133.8 208.983 132.603 210.291 131.257 211.436C129.921 212.593 128.447 213.581 126.869 214.378C126.245 214.744 125.568 215.011 124.861 215.171C126.995 213.957 129.029 212.578 130.946 211.044C132.737 209.379 134.395 207.577 135.905 205.653Z" fill="#455A64"/>
<path d="M137.823 205.542C137.851 206.402 137.739 207.26 137.491 208.083C136.996 210.093 136.204 212.018 135.142 213.795C134.072 215.567 132.742 217.168 131.196 218.544C130.584 219.148 129.879 219.65 129.108 220.03C131.254 218.124 133.132 215.935 134.69 213.524C136.095 211.02 137.149 208.334 137.823 205.542Z" fill="#455A64"/>
<path d="M97.6927 213.956C97.8433 213.956 98.0441 215.683 98.6967 217.741C99.3493 219.799 100.042 221.376 99.9015 221.446C98.3479 219.267 97.5701 216.629 97.6927 213.956Z" fill="#455A64"/>
<path d="M141.979 249.437C142.434 249.736 142.962 249.906 143.505 249.929C144.137 249.921 144.752 249.725 145.272 249.367C145.94 248.876 146.413 248.165 146.608 247.359C146.848 246.369 146.848 245.337 146.608 244.347C146.397 243.253 145.975 242.128 145.604 240.893C145.149 239.607 144.995 238.233 145.152 236.877C145.383 235.411 146.337 234.217 146.799 232.861C147.017 232.214 147.104 231.53 147.054 230.849C147.004 230.168 146.818 229.504 146.507 228.896C145.936 227.742 144.955 226.844 143.756 226.375C143.168 226.155 142.591 225.904 142.03 225.622C141.469 225.346 140.994 224.923 140.654 224.398C140.156 223.422 139.94 222.327 140.032 221.235C140.099 220.384 140.065 219.528 139.931 218.685C139.821 218.058 139.563 217.466 139.178 216.958C138.832 216.535 138.355 216.238 137.823 216.115C137.968 216.079 138.119 216.079 138.265 216.115C138.681 216.223 139.055 216.454 139.339 216.777C139.765 217.302 140.067 217.916 140.222 218.574C140.394 219.437 140.454 220.317 140.403 221.195C140.332 222.208 140.548 223.22 141.026 224.116C141.588 225.04 142.752 225.422 143.937 225.894C145.248 226.394 146.323 227.368 146.949 228.624C147.293 229.293 147.501 230.024 147.559 230.774C147.618 231.524 147.526 232.278 147.29 232.992C146.768 234.428 145.845 235.572 145.644 236.887C145.491 238.177 145.632 239.485 146.056 240.713C146.407 241.917 146.819 243.072 147.06 244.207C147.284 245.27 147.253 246.371 146.969 247.419C146.73 248.301 146.186 249.07 145.433 249.588C144.859 249.963 144.18 250.146 143.495 250.11C143.066 250.091 142.649 249.955 142.291 249.718C142.168 249.648 142.062 249.552 141.979 249.437Z" fill="#455A64"/>
<path d="M134.73 248.725C134.73 248.725 134.861 249.046 135.343 249.277C135.68 249.417 136.055 249.441 136.408 249.344C136.76 249.248 137.071 249.037 137.29 248.745C137.549 248.255 137.671 247.704 137.643 247.151C137.615 246.598 137.437 246.063 137.13 245.602C136.558 244.468 135.423 243.353 135.122 241.697C135.04 241.293 135.047 240.877 135.142 240.476C135.237 240.075 135.419 239.7 135.674 239.377C136.166 238.775 136.748 238.373 137.12 237.881C137.763 236.942 138.015 235.79 137.823 234.669C137.698 233.894 137.507 233.131 137.25 232.389C137.133 232.12 137.052 231.837 137.009 231.546C137.009 231.546 137.2 231.807 137.431 232.319C137.782 233.049 138.035 233.822 138.184 234.618C138.313 235.224 138.319 235.85 138.204 236.458C138.088 237.066 137.853 237.646 137.511 238.162C137.08 238.745 136.507 239.166 136.086 239.699C135.875 239.966 135.725 240.276 135.647 240.607C135.569 240.939 135.564 241.283 135.634 241.616C135.875 243.052 136.939 244.146 137.551 245.381C137.882 245.921 138.056 246.541 138.056 247.173C138.056 247.806 137.882 248.426 137.551 248.965C137.399 249.164 137.207 249.328 136.987 249.447C136.768 249.566 136.526 249.638 136.276 249.658C135.909 249.702 135.538 249.632 135.212 249.457C134.71 249.096 134.71 248.714 134.73 248.725Z" fill="#455A64"/>
<path d="M95.3736 246.084C95.0658 245.849 94.7892 245.576 94.5503 245.271C93.8337 244.487 93.2442 243.596 92.8033 242.63C92.5059 241.94 92.3621 241.193 92.3816 240.442C92.3862 239.551 92.6983 238.689 93.2652 238.002C93.8876 237.289 94.7912 236.907 95.3334 236.235C95.5962 235.865 95.77 235.44 95.8414 234.993C95.9128 234.545 95.8798 234.087 95.745 233.654C95.5 232.726 95.132 231.835 94.6507 231.004C94.1796 230.182 93.8408 229.291 93.6467 228.363C93.4839 227.486 93.6674 226.579 94.1587 225.833C94.5972 225.238 95.11 224.702 95.6848 224.237C96.5152 223.636 97.1198 222.773 97.4016 221.787C97.4697 221.422 97.4697 221.048 97.4016 220.683C97.4016 220.683 97.482 220.763 97.5522 220.944C97.6529 221.223 97.6839 221.523 97.6426 221.817C97.4254 222.884 96.8344 223.838 95.976 224.508C95.4464 224.971 94.9714 225.493 94.5603 226.064C94.1442 226.724 94.0002 227.519 94.1587 228.283C94.3653 229.156 94.7038 229.992 95.1627 230.763C95.6696 231.631 96.0579 232.563 96.3173 233.534C96.4658 234.043 96.4959 234.578 96.4054 235.101C96.3149 235.623 96.1062 236.117 95.7952 236.546C95.1125 237.349 94.2089 237.701 93.6868 238.313C93.1786 238.908 92.8913 239.66 92.8736 240.442C92.8429 241.127 92.9557 241.811 93.2049 242.45C93.5993 243.403 94.1266 244.295 94.7712 245.1C95.0033 245.408 95.205 245.737 95.3736 246.084Z" fill="#455A64"/>
<path d="M137.24 202.812C136.523 201.838 135.702 200.946 134.791 200.151C133.779 199.493 132.698 198.947 131.568 198.525C132.846 198.545 134.084 198.971 135.104 199.742C136.124 200.513 136.872 201.588 137.24 202.812Z" fill="#A5490E"/>
<path d="M138.656 193.203C138.716 193.203 139.047 193.565 139.319 194.338C139.666 195.366 139.697 196.475 139.409 197.522C139.121 198.569 138.527 199.505 137.702 200.211C137.06 200.743 136.578 200.904 136.547 200.854C136.517 200.804 136.919 200.512 137.441 199.95C138.136 199.232 138.64 198.352 138.907 197.389C139.173 196.426 139.194 195.411 138.967 194.438C138.828 194.036 138.724 193.623 138.656 193.203Z" fill="#455A64"/>
<path opacity="0.3" d="M87.7031 316.705C87.7031 316.705 112.653 340.4 127.482 336.103C142.311 331.806 146.688 320.691 146.688 320.691L147.05 316.675L145.564 315.671L88.4561 311.113L87.7031 316.705Z" fill="black"/>
<path d="M72.9541 294.517L77.7633 282.228L95.0019 293.061L79.6407 316.746C79.6407 316.746 73.3959 308.593 72.9541 294.517Z" fill="#EB996E"/>
<path d="M92.402 260.441C100.434 256.244 110.815 255.04 110.815 255.04C113.827 261.064 123.335 261.837 129.088 257.72L133.948 254.437C134.618 254.427 135.289 254.458 135.956 254.528C141.497 255.048 146.724 257.339 150.862 261.063C154.999 264.786 157.827 269.743 158.927 275.2C159.885 279.481 160.293 283.867 160.142 288.252C159.509 299.226 148.154 300.22 148.154 300.22C148.154 300.22 147.572 311.053 146.799 319.818C146.632 322.871 145.614 325.816 143.859 328.32C142.104 330.824 139.682 332.786 136.869 333.984C132.892 335.973 128.615 337.293 124.209 337.89C117.33 338.966 110.293 338.339 103.713 336.064C97.1334 333.788 91.2122 329.934 86.4684 324.838C88.1952 314.396 89.8418 300.872 89.7213 300.26C89.7018 300.194 89.7018 300.125 89.7213 300.059L78.4665 290.069L72.0811 284.708C72.0811 284.708 86.1371 263.925 92.3819 260.511" fill="#A5490E"/>
<path d="M106.358 267.168C105.508 266.685 104.553 266.42 103.577 266.395C102.533 266.393 101.52 266.747 100.705 267.399C100.242 267.824 99.8127 268.284 99.42 268.774C98.9721 269.374 98.3298 269.8 97.6028 269.979C96.8504 270.074 96.0908 269.872 95.4843 269.417C94.902 269.046 94.4101 268.644 93.898 268.353C93.4577 268.094 92.9654 267.936 92.4566 267.891C91.9478 267.846 91.4353 267.914 90.9563 268.092C90.2853 268.32 89.6909 268.73 89.2395 269.276C88.9282 269.668 88.8178 269.929 88.7676 269.909C88.8053 269.636 88.9125 269.376 89.0788 269.156C89.4995 268.516 90.1106 268.024 90.8258 267.75C91.3548 267.524 91.9289 267.422 92.5035 267.454C93.0781 267.485 93.6377 267.648 94.139 267.931C94.7012 268.232 95.2032 268.644 95.7554 268.985C96.2583 269.364 96.8867 269.536 97.5124 269.467C98.1211 269.311 98.6611 268.958 99.0485 268.463C99.4559 267.954 99.9096 267.483 100.404 267.058C101.31 266.358 102.434 266.003 103.577 266.054C104.332 266.08 105.069 266.29 105.725 266.666C106.187 266.947 106.378 267.168 106.358 267.168Z" fill="#FAFAFA"/>
<path d="M117.793 282.228C117.144 281.495 116.323 280.936 115.403 280.602C114.427 280.267 113.367 280.267 112.391 280.602C111.823 280.861 111.272 281.16 110.745 281.495C110.127 281.918 109.383 282.117 108.636 282.057C107.892 281.906 107.236 281.47 106.809 280.843C106.377 280.31 106.036 279.768 105.644 279.326C105.31 278.941 104.894 278.635 104.427 278.43C103.96 278.225 103.453 278.127 102.944 278.142C102.235 278.149 101.541 278.346 100.936 278.714C100.514 278.985 100.323 279.196 100.283 279.166C100.243 279.136 100.414 278.885 100.825 278.543C101.593 277.966 102.548 277.694 103.504 277.78C104.461 277.865 105.352 278.301 106.006 279.005C106.438 279.477 106.789 280.009 107.201 280.521C107.562 281.029 108.098 281.387 108.707 281.525C109.34 281.559 109.967 281.386 110.494 281.033C111.044 280.679 111.625 280.376 112.231 280.13C113.317 279.759 114.5 279.791 115.564 280.22C116.276 280.48 116.911 280.915 117.411 281.485C117.712 281.897 117.813 282.168 117.793 282.228Z" fill="#FAFAFA"/>
<path d="M143.204 260.24C142.272 259.951 141.283 259.892 140.323 260.07C139.301 260.287 138.383 260.847 137.723 261.656C137.367 262.168 137.048 262.705 136.769 263.262C136.455 263.946 135.916 264.503 135.243 264.839C134.525 265.078 133.744 265.039 133.054 264.728C132.411 264.487 131.839 264.196 131.277 264.015C130.79 263.858 130.275 263.811 129.768 263.877C129.261 263.943 128.775 264.12 128.345 264.397C127.743 264.765 127.25 265.289 126.92 265.913C126.699 266.355 126.638 266.646 126.598 266.636C126.558 266.626 126.598 266.335 126.739 265.823C127.102 264.933 127.783 264.209 128.649 263.792C129.515 263.375 130.505 263.294 131.427 263.564C132.04 263.744 132.622 264.026 133.225 264.246C133.795 264.513 134.446 264.549 135.042 264.347C135.607 264.057 136.059 263.587 136.327 263.011C136.611 262.43 136.947 261.876 137.331 261.355C138.074 260.481 139.101 259.898 140.233 259.708C140.976 259.569 141.743 259.621 142.461 259.859C142.738 259.92 142.994 260.052 143.204 260.24Z" fill="#FAFAFA"/>
<path d="M131.477 276.706C130.978 276.153 130.365 275.714 129.68 275.421C128.941 275.133 128.126 275.108 127.371 275.351C126.923 275.523 126.49 275.731 126.076 275.973C125.572 276.285 124.977 276.416 124.389 276.345C123.809 276.203 123.305 275.844 122.984 275.341C122.672 274.909 122.431 274.477 122.15 274.126C121.912 273.819 121.608 273.57 121.26 273.396C120.913 273.222 120.531 273.128 120.142 273.122C119.4 273.126 118.676 273.353 118.064 273.774C118.064 273.774 118.164 273.553 118.486 273.302C119.099 272.874 119.85 272.688 120.593 272.783C121.335 272.878 122.016 273.245 122.502 273.814C122.823 274.196 123.084 274.628 123.375 275.019C123.623 275.422 124.014 275.716 124.469 275.843C125.393 276.003 126.237 275.17 127.2 274.899C128.062 274.648 128.985 274.716 129.801 275.09C131.216 275.722 131.538 276.726 131.477 276.706Z" fill="#FAFAFA"/>
<path d="M105.625 290.581C105.12 290.03 104.504 289.592 103.818 289.296C103.075 289.018 102.26 289.004 101.508 289.256C101.061 289.43 100.628 289.638 100.213 289.878C99.7032 290.203 99.0956 290.338 98.4963 290.26C97.9201 290.116 97.4209 289.756 97.1008 289.256C96.7795 288.824 96.5385 288.393 96.2674 288.051C96.0275 287.746 95.7231 287.498 95.3759 287.324C95.0288 287.151 94.6475 287.056 94.2594 287.047C93.5161 287.046 92.7906 287.274 92.1812 287.7C92.1812 287.7 92.2715 287.479 92.6028 287.228C93.0834 286.875 93.663 286.681 94.2594 286.676C94.7112 286.658 95.1608 286.745 95.5735 286.93C95.9861 287.114 96.3507 287.392 96.6389 287.74C96.9602 288.121 97.2112 288.553 97.5124 288.945C97.7558 289.347 98.1436 289.642 98.5967 289.768C99.5204 289.929 100.374 289.095 101.338 288.824C102.196 288.573 103.116 288.641 103.928 289.015C105.354 289.597 105.675 290.601 105.625 290.581Z" fill="#FAFAFA"/>
<path d="M129.791 290.903C129.144 290.527 128.419 290.307 127.672 290.26C126.88 290.231 126.101 290.472 125.464 290.943C125.102 291.25 124.767 291.586 124.46 291.947C124.083 292.403 123.562 292.718 122.984 292.84C122.385 292.884 121.792 292.697 121.327 292.318C120.885 292.017 120.524 291.686 120.142 291.445C119.817 291.235 119.449 291.101 119.066 291.05C118.682 291 118.292 291.035 117.924 291.154C117.222 291.401 116.61 291.852 116.167 292.449C116.167 292.449 116.167 292.208 116.418 291.856C116.762 291.369 117.25 291 117.813 290.802C118.234 290.639 118.687 290.577 119.137 290.618C119.586 290.66 120.02 290.806 120.403 291.043C120.825 291.294 121.207 291.625 121.618 291.896C121.979 292.199 122.443 292.35 122.913 292.318C123.837 292.178 124.369 291.113 125.192 290.541C125.927 290.028 126.82 289.793 127.713 289.878C128.114 289.882 128.509 289.976 128.868 290.153C129.228 290.331 129.543 290.587 129.791 290.903Z" fill="#FAFAFA"/>
<path d="M121.809 301.926C121.157 301.564 120.435 301.345 119.691 301.284C118.895 301.256 118.114 301.496 117.472 301.967C117.113 302.276 116.777 302.612 116.468 302.971C116.092 303.428 115.571 303.743 114.992 303.864C114.395 303.907 113.804 303.724 113.335 303.352C112.894 303.041 112.532 302.71 112.151 302.479C111.827 302.266 111.459 302.128 111.075 302.076C110.691 302.024 110.301 302.058 109.932 302.177C109.228 302.421 108.615 302.872 108.175 303.473C108.197 303.256 108.281 303.051 108.416 302.88C108.859 302.263 109.519 301.836 110.264 301.686C111.009 301.535 111.783 301.671 112.432 302.067C112.863 302.318 113.245 302.649 113.657 302.92C114.018 303.223 114.482 303.374 114.952 303.342C115.875 303.202 116.408 302.137 117.231 301.565C117.967 301.055 118.859 300.821 119.751 300.902C120.148 300.911 120.539 301.007 120.894 301.184C121.25 301.362 121.563 301.615 121.809 301.926Z" fill="#FAFAFA"/>
<path d="M104.952 329.296C104.438 328.75 103.816 328.319 103.125 328.03C102.377 327.767 101.563 327.767 100.815 328.03C100.37 328.214 99.9408 328.432 99.5303 328.683C99.0317 328.999 98.4397 329.134 97.8536 329.065C97.2691 328.927 96.7613 328.567 96.4379 328.061C96.1167 327.639 95.8657 327.207 95.5845 326.866C95.3432 326.562 95.0385 326.315 94.6916 326.142C94.3448 325.968 93.9642 325.873 93.5765 325.862C92.8319 325.872 92.109 326.114 91.5083 326.555C91.5083 326.555 91.5987 326.324 91.9199 326.063C92.4014 325.71 92.9798 325.514 93.5765 325.5C94.0251 325.474 94.4736 325.551 94.8878 325.725C95.302 325.899 95.6709 326.166 95.9661 326.504C96.2873 326.886 96.5484 327.318 96.8496 327.699C97.1016 328.098 97.4968 328.386 97.954 328.502C98.8777 328.653 99.711 327.81 100.675 327.498C101.533 327.24 102.455 327.297 103.275 327.659C104.661 328.312 105.002 329.306 104.952 329.296Z" fill="#FAFAFA"/>
<path d="M124.68 335.119C124.042 334.743 123.329 334.51 122.592 334.436C121.8 334.398 121.018 334.628 120.373 335.089C120.012 335.395 119.676 335.731 119.369 336.093C118.986 336.54 118.462 336.845 117.883 336.956C117.286 336.999 116.696 336.808 116.237 336.424C115.795 336.113 115.434 335.771 115.062 335.53C114.739 335.316 114.373 335.175 113.99 335.117C113.606 335.06 113.215 335.088 112.843 335.199C112.14 335.437 111.524 335.882 111.076 336.474C111.076 336.474 111.076 336.233 111.327 335.892C111.683 335.423 112.173 335.073 112.733 334.888C113.158 334.738 113.612 334.685 114.06 334.734C114.508 334.782 114.94 334.931 115.323 335.169C115.745 335.43 116.126 335.761 116.528 336.042C116.89 336.346 117.351 336.503 117.823 336.484C118.747 336.344 119.299 335.299 120.122 334.737C120.866 334.237 121.761 334.014 122.652 334.105C123.044 334.117 123.428 334.213 123.778 334.389C124.128 334.564 124.436 334.813 124.68 335.119Z" fill="#FAFAFA"/>
<path d="M59.6614 252.108C60.2638 252.821 82.3417 282.338 82.3417 282.338L79.2394 284.106L56.5791 254.99L59.6614 252.108Z" fill="#263238"/>
<path d="M145.815 273.192C145.815 273.192 125.112 308.904 123.727 309.557C120.966 310.852 89.199 283.393 86.1669 280.772C85.7553 280.21 84.8918 279.035 83.1549 276.696C83.1549 276.696 80.6549 265.22 77.9743 266.104C75.2936 266.987 79.4401 271.937 77.7032 276.294C75.9663 280.652 67.9845 270.27 67.6632 269.327L65.6552 266.636C65.6552 266.636 63.4966 272.75 63.6472 275.31C64.109 283.493 71.8499 293.222 71.8499 293.222C71.8499 293.222 103.315 332.639 127.13 333.974C133.987 334.366 147.09 314.617 155.242 300.019C160.162 291.204 157.873 282.258 149.72 276.304L145.815 273.192Z" fill="#FFBE9D"/>
<path d="M67.5325 276.706C66.1736 274.896 65.1532 272.855 64.5205 270.682C64.6008 270.682 65.1932 272.037 66.0265 273.694C66.8598 275.351 67.6028 276.666 67.5325 276.706Z" fill="#EB996E"/>
<path d="M144.841 263.212C144.028 263.704 124.761 299.447 124.761 299.447L149.55 318.854C153.339 309.441 156.623 299.832 159.389 290.069C160.312 286.565 159.84 277.198 158.535 273.584C156.688 268.453 153.897 269.728 149.71 266.726L144.841 263.212Z" fill="#A5490E"/>
<g opacity="0.7">
<path d="M152.983 263.212C152.983 263.212 152.742 263.072 152.28 262.841C151.607 262.498 150.855 262.342 150.101 262.389C148.913 262.501 147.786 262.97 146.869 263.734C145.641 264.716 144.566 265.873 143.676 267.168C142.585 268.788 141.58 270.463 140.664 272.188C139.66 274.005 138.515 275.953 137.351 278.001C135.011 282.087 132.431 286.585 129.74 291.304C128.084 294.166 126.487 296.947 124.981 299.557L124.921 299.236L141.688 312.489L146.557 316.394L147.842 317.458C148 317.573 148.144 317.705 148.274 317.85C148.103 317.76 147.941 317.652 147.792 317.529L146.447 316.525L141.487 312.73L124.61 299.678L124.429 299.537L124.6 299.296C126.106 296.686 127.702 293.904 129.339 291.033C132.05 286.324 134.64 281.846 136.989 277.76L140.343 271.967C141.257 270.242 142.263 268.566 143.355 266.947C144.286 265.617 145.417 264.438 146.708 263.453C147.68 262.68 148.863 262.218 150.101 262.128C150.887 262.1 151.664 262.298 152.34 262.7C152.516 262.798 152.684 262.908 152.842 263.032C152.943 263.152 152.993 263.202 152.983 263.212Z" fill="black"/>
</g>
<path d="M145.584 296.726C145.088 296.169 144.474 295.73 143.787 295.441C143.048 295.154 142.234 295.126 141.477 295.36C141.029 295.536 140.596 295.748 140.182 295.993C139.677 296.3 139.083 296.431 138.496 296.364C137.915 296.223 137.412 295.863 137.09 295.36C136.779 294.929 136.538 294.497 136.257 294.145C136.018 293.839 135.714 293.589 135.367 293.416C135.019 293.242 134.637 293.148 134.249 293.141C133.506 293.146 132.782 293.373 132.17 293.794C132.17 293.794 132.271 293.573 132.592 293.312C133.082 292.97 133.662 292.782 134.259 292.77C134.709 292.753 135.157 292.84 135.568 293.024C135.979 293.209 136.342 293.486 136.628 293.834C136.949 294.216 137.211 294.647 137.502 295.039C137.753 295.439 138.142 295.732 138.596 295.862C139.52 296.023 140.363 295.19 141.327 294.919C142.187 294.665 143.11 294.729 143.927 295.099C145.323 295.732 145.684 296.736 145.584 296.726Z" fill="#FAFAFA"/>
<path d="M156.909 292.107C156.589 291.428 156.114 290.833 155.523 290.37C154.888 289.901 154.114 289.657 153.325 289.678C152.847 289.733 152.374 289.82 151.909 289.939C151.338 290.099 150.73 290.064 150.182 289.838C149.661 289.539 149.276 289.05 149.108 288.473C148.927 287.971 148.807 287.469 148.636 287.087C148.487 286.728 148.26 286.407 147.972 286.147C147.684 285.886 147.341 285.693 146.969 285.581C146.252 285.385 145.493 285.41 144.791 285.652C144.791 285.652 144.941 285.461 145.323 285.31C145.881 285.098 146.494 285.07 147.07 285.23C147.51 285.335 147.92 285.539 148.269 285.828C148.617 286.117 148.894 286.483 149.078 286.897C149.278 287.348 149.409 287.83 149.59 288.292C149.719 288.744 150.017 289.129 150.423 289.366C151.266 289.778 152.3 289.206 153.304 289.196C154.199 289.195 155.066 289.507 155.754 290.079C156.087 290.309 156.363 290.611 156.563 290.962C156.763 291.313 156.881 291.704 156.909 292.107Z" fill="#FAFAFA"/>
<path d="M157.491 277.328C157.166 276.655 156.693 276.065 156.106 275.602C155.473 275.128 154.697 274.884 153.907 274.909C153.428 274.954 152.955 275.042 152.491 275.17C151.92 275.332 151.31 275.293 150.765 275.059C150.246 274.761 149.862 274.277 149.69 273.704C149.51 273.202 149.389 272.7 149.218 272.308C149.066 271.952 148.838 271.633 148.55 271.373C148.263 271.113 147.922 270.918 147.552 270.802C146.835 270.606 146.076 270.631 145.373 270.873C145.373 270.873 145.524 270.692 145.905 270.531C146.465 270.324 147.076 270.296 147.652 270.451C148.09 270.561 148.498 270.767 148.846 271.056C149.194 271.344 149.472 271.707 149.66 272.118C149.861 272.57 149.991 273.062 150.172 273.513C150.301 273.968 150.599 274.356 151.005 274.598C151.849 274.999 152.883 274.427 153.887 274.427C154.783 274.416 155.654 274.73 156.337 275.31C156.667 275.54 156.943 275.84 157.142 276.189C157.342 276.538 157.461 276.927 157.491 277.328Z" fill="#FAFAFA"/>
<path d="M152.009 311.344C151.68 310.674 151.207 310.084 150.624 309.617C149.988 309.142 149.209 308.898 148.415 308.924C147.94 308.97 147.469 309.057 147.009 309.185C146.439 309.346 145.831 309.311 145.283 309.085C144.766 308.781 144.382 308.293 144.208 307.72C144.018 307.218 143.907 306.716 143.726 306.324C143.576 305.968 143.35 305.648 143.064 305.388C142.778 305.128 142.439 304.934 142.07 304.818C141.353 304.615 140.591 304.643 139.891 304.898C139.891 304.898 140.042 304.708 140.423 304.547C141.133 304.296 141.911 304.319 142.604 304.613C143.297 304.906 143.855 305.449 144.168 306.133C144.379 306.585 144.51 307.077 144.69 307.529C144.818 307.981 145.112 308.368 145.514 308.613C146.367 309.015 147.401 308.442 148.405 308.442C149.301 308.432 150.172 308.745 150.855 309.326C151.185 309.555 151.461 309.855 151.66 310.204C151.86 310.554 151.979 310.943 152.009 311.344Z" fill="#FAFAFA"/>
</svg>
