<svg width="311" height="263" viewBox="0 0 311 263" fill="none" xmlns="http://www.w3.org/2000/svg">
<path d="M244.263 165.048H40.8868C35.9609 165.048 33.8215 77.5058 37.7088 74.4804L139.397 1.09096C140.305 0.383897 141.424 0 142.575 0C143.726 0 144.844 0.383897 145.753 1.09096L247.441 74.4804C251.328 77.5058 249.189 165.048 244.263 165.048Z" fill="#E06714"/>
<path d="M35.7024 224.122V79.8808C35.7024 78.8027 36.0391 77.7516 36.6656 76.8741C37.292 75.9967 38.1769 75.3369 39.1966 74.9869C40.2163 74.6368 41.3199 74.614 42.3531 74.9217C43.3864 75.2293 44.2978 75.852 44.9599 76.7028L133.133 148.824C133.84 149.732 134.224 150.85 134.224 152.002C134.224 153.153 133.84 154.271 133.133 155.18L44.9599 227.3C44.2978 228.151 43.3864 228.774 42.3531 229.081C41.3199 229.389 40.2163 229.366 39.1966 229.016C38.177 228.666 37.2921 228.006 36.6656 227.129C36.0391 226.252 35.7024 225.2 35.7024 224.122ZM249.447 224.122V79.8808C249.447 78.8027 249.11 77.7516 248.484 76.8741C247.857 75.9967 246.972 75.3369 245.953 74.9869C244.933 74.6368 243.829 74.614 242.796 74.9217C241.763 75.2293 240.852 75.852 240.189 76.7028L152.016 148.824C151.309 149.732 150.925 150.85 150.925 152.002C150.925 153.153 151.309 154.271 152.016 155.18L240.189 227.3C240.852 228.151 241.763 228.774 242.796 229.081C243.829 229.389 244.933 229.366 245.953 229.016C246.972 228.666 247.857 228.006 248.484 227.129C249.11 226.252 249.447 225.2 249.447 224.122Z" fill="#EE781D"/>
<path d="M244.263 229.307H40.8867C39.8086 229.307 38.7574 228.97 37.88 228.344C37.0026 227.717 36.3428 226.832 35.9927 225.813C35.6427 224.793 35.6199 223.689 35.9275 222.656C36.2352 221.623 36.8579 220.711 37.7087 220.049L139.397 146.66C140.305 145.953 141.423 145.569 142.575 145.569C143.726 145.569 144.844 145.953 145.753 146.66L247.441 220.049C248.291 220.711 248.914 221.623 249.222 222.656C249.529 223.689 249.507 224.793 249.156 225.813C248.806 226.832 248.147 227.717 247.269 228.344C246.392 228.97 245.341 229.307 244.263 229.307Z" fill="#F98232"/>
<path d="M35.702 96.1193C55.4197 96.1193 71.404 80.135 71.404 60.4173C71.404 40.6997 55.4197 24.7153 35.702 24.7153C15.9843 24.7153 0 40.6997 0 60.4173C0 80.135 15.9843 96.1193 35.702 96.1193Z" fill="#F9AE2B"/>
<path d="M37.5618 37.0164H33.8428V70.0403H37.5618V37.0164Z" fill="#409CB5"/>
<path d="M35.7024 83.8198C40.1892 83.8198 40.1966 76.8467 35.7024 76.8467C31.2155 76.8467 31.2081 83.8198 35.7024 83.8198Z" fill="#409CB5"/>
<path d="M307.152 144.117L279.453 166.814L224.716 211.665L209.497 242.723C209.315 243.097 209.012 243.398 208.637 243.577C208.262 243.756 207.837 243.804 207.432 243.712L207.344 243.688C206.959 243.58 206.618 243.351 206.375 243.033C206.131 242.716 205.997 242.328 205.993 241.928L206.952 212.492L207.294 201.95L305.055 141.091C305.456 140.86 305.93 140.787 306.382 140.888C306.835 140.99 307.232 141.258 307.497 141.638C307.761 142.019 307.872 142.486 307.808 142.945C307.744 143.404 307.51 143.822 307.152 144.117Z" fill="#3086A3"/>
<path d="M307.769 143.156L307.761 143.185C307.631 143.65 307.325 144.045 306.907 144.286L287.194 155.698L207.291 201.96L173.648 179.052C173.356 178.852 173.127 178.573 172.988 178.247C172.85 177.921 172.808 177.562 172.868 177.213C172.928 176.864 173.086 176.539 173.325 176.278C173.563 176.016 173.872 175.828 174.214 175.737L305.465 140.914L305.519 140.898L305.62 140.875L305.727 140.856L305.825 140.845L305.946 140.838L306.049 140.839L306.063 140.843L306.163 140.85L306.273 140.862C306.343 140.874 306.413 140.889 306.482 140.908C306.574 140.933 306.663 140.966 306.749 141.005C306.789 141.022 306.828 141.042 306.866 141.064C306.908 141.084 306.948 141.107 306.987 141.133L307.109 141.218C307.135 141.235 307.158 141.255 307.18 141.277C307.19 141.282 307.2 141.29 307.206 141.299L307.276 141.362L307.293 141.366L307.353 141.427C307.402 141.481 307.449 141.538 307.492 141.598C307.513 141.625 307.532 141.654 307.55 141.684C307.609 141.778 307.659 141.877 307.7 141.981C307.72 142.029 307.738 142.078 307.752 142.129C307.767 142.171 307.777 142.215 307.788 142.259C307.799 142.303 307.812 142.373 307.822 142.431C307.829 142.482 307.833 142.533 307.835 142.584C307.84 142.646 307.84 142.709 307.837 142.771C307.832 142.81 307.829 142.848 307.828 142.887C307.814 142.978 307.795 143.068 307.769 143.156Z" fill="#409CB5"/>
<mask id="mask0_22_1643" style="mask-type:luminance" maskUnits="userSpaceOnUse" x="157" y="108" width="154" height="155">
<path d="M191.761 108.689L157.977 229.935L276.376 262.925L310.16 141.68L191.761 108.689Z" fill="white"/>
</mask>
<g mask="url(#mask0_22_1643)">
<path d="M280.291 248.532C280.229 248.769 280.121 248.992 279.972 249.187C279.824 249.382 279.638 249.545 279.425 249.667C279.212 249.789 278.977 249.868 278.734 249.898C278.491 249.928 278.244 249.91 278.008 249.844C277.815 249.789 277.632 249.705 277.466 249.594L220.265 210.668L287.194 155.698L304.811 141.261C305.01 141.097 305.242 140.975 305.49 140.905C305.529 140.896 305.568 140.886 305.608 140.879L305.715 140.861L305.814 140.849L305.935 140.842L306.037 140.843L306.052 140.847L306.152 140.855L306.261 140.867C306.332 140.879 306.401 140.894 306.47 140.913C306.562 140.938 306.651 140.971 306.738 141.01C306.778 141.027 306.817 141.047 306.854 141.068C306.896 141.089 306.937 141.112 306.976 141.138L307.098 141.223C307.123 141.24 307.147 141.26 307.169 141.281C307.179 141.287 307.188 141.295 307.195 141.304L307.265 141.367L307.281 141.371L307.341 141.432C307.391 141.486 307.437 141.543 307.48 141.603C307.502 141.63 307.521 141.659 307.538 141.689C307.598 141.783 307.648 141.882 307.688 141.986C307.708 142.034 307.726 142.083 307.741 142.133C307.755 142.176 307.766 142.219 307.777 142.263C307.787 142.307 307.801 142.378 307.81 142.437C307.818 142.487 307.822 142.538 307.824 142.589C307.828 142.651 307.829 142.713 307.826 142.775C307.82 142.814 307.817 142.852 307.817 142.891C307.807 142.981 307.79 143.071 307.768 143.159L307.761 143.185L280.291 248.532Z" fill="#409CB5"/>
<path d="M237.286 222.25L208.945 243.393C208.719 243.561 208.458 243.676 208.18 243.728C207.903 243.779 207.618 243.767 207.346 243.691C207.095 243.622 206.863 243.5 206.664 243.332C206.344 243.069 206.123 242.705 206.035 242.299C205.948 241.894 206 241.471 206.183 241.099L220.268 210.669L237.286 222.25Z" fill="#4469A0"/>
</g>
<path d="M220.265 210.668L237.286 222.251L233.161 225.328L218.712 214.022L220.265 210.668Z" fill="#4469A0"/>
</svg>
