<svg width="405" height="272" viewBox="0 0 405 272" fill="none" xmlns="http://www.w3.org/2000/svg">
<path d="M308.236 207.204C358.51 207.204 399.265 163.144 399.265 108.794C399.265 54.4442 358.51 10.3848 308.236 10.3848C257.962 10.3848 217.207 54.4442 217.207 108.794C217.207 163.144 257.962 207.204 308.236 207.204Z" fill="#F9AE2B"/>
<path d="M282.79 163.958C310.97 163.958 333.815 139.26 333.815 108.795C333.815 78.3295 310.97 53.6323 282.79 53.6323C254.61 53.6323 231.765 78.3295 231.765 108.795C231.765 139.26 254.61 163.958 282.79 163.958Z" stroke="#4D76B8" stroke-width="3" stroke-miterlimit="10"/>
<path d="M316.108 271.434C358.394 271.434 392.673 260.106 392.673 246.133C392.673 232.16 358.394 220.832 316.108 220.832C273.822 220.832 239.542 232.16 239.542 246.133C239.542 260.106 273.822 271.434 316.108 271.434Z" fill="#1A5E70"/>
<path d="M347.22 197.748V232.947C347.22 233.99 347.015 235.023 346.615 235.987C346.216 236.951 345.631 237.827 344.894 238.565C344.156 239.302 343.28 239.887 342.316 240.286C341.352 240.686 340.319 240.891 339.276 240.891H305.131C303.699 240.891 302.293 240.504 301.063 239.77C299.833 239.037 298.824 237.984 298.143 236.724C297.462 235.464 297.134 234.043 297.195 232.612C297.255 231.182 297.702 229.794 298.487 228.596L312.559 207.095C324.646 206.479 336.462 203.292 347.22 197.748Z" fill="#3086A3"/>
<path d="M342.767 87.6606C334.896 100.844 301.952 109.951 289.92 102.767C277.887 95.5838 296.584 77.9726 304.455 64.7887C312.325 51.6048 323.197 43.5988 335.23 50.7822C347.263 57.9656 350.637 74.4767 342.767 87.6606Z" stroke="#E06714" stroke-miterlimit="10"/>
<path d="M342.767 87.6606C334.896 100.844 301.952 109.951 289.92 102.767C277.887 95.5838 296.584 77.9726 304.454 64.7887C312.325 51.6048 323.197 43.5988 335.23 50.7822C347.263 57.9656 350.637 74.4767 342.767 87.6606ZM300.076 171.208C287.01 163.144 278.39 130.07 285.749 118.144C293.109 106.218 310.443 125.173 323.51 133.237C336.576 141.3 344.422 152.289 337.062 164.215C329.702 176.141 313.143 179.272 300.076 171.208Z" fill="#EE781D"/>
<path d="M240.379 131.7C255.016 136.342 285.705 121.296 289.942 107.938C294.178 94.5797 268.504 93.8093 253.868 89.1677C239.232 84.5261 225.785 85.75 221.549 99.1084C217.313 112.467 225.743 127.059 240.379 131.7Z" fill="#EE781D"/>
<path d="M282.79 126.447C291.808 126.447 299.118 118.543 299.118 108.794C299.118 99.0453 291.808 91.1421 282.79 91.1421C273.772 91.1421 266.462 99.0453 266.462 108.794C266.462 118.543 273.772 126.447 282.79 126.447Z" fill="#409CB5"/>
<path d="M252.416 186.404C243.285 191.479 237.03 192.818 234.322 190.277C226.114 182.574 252.416 141.009 292.589 98.2C332.762 55.3912 372.575 26.5037 380.783 34.207C383.065 36.3485 382.763 41.1843 379.898 48.3432" stroke="#4D76B8" stroke-width="3" stroke-miterlimit="10"/>
<path d="M380.256 168.721C384.511 177.927 385.345 184.093 382.67 186.579C374.424 194.242 334.753 165.161 294.789 122.157C254.825 79.1528 228.725 37.46 236.971 29.7968C239.316 27.6179 244.287 28.3299 251.486 31.8758" stroke="#4D76B8" stroke-width="3" stroke-miterlimit="10"/>
<path d="M211.006 112.242C211.006 112.242 374.874 101.733 404 110.559" stroke="#4D76B8" stroke-width="3" stroke-miterlimit="10"/>
<path d="M311.47 207.205C308.895 213.026 306.117 216.03 303.31 216.03C292.053 216.03 282.79 167.722 282.79 109.015C282.79 50.3082 292.053 2 303.31 2C306.046 2 308.753 4.85187 311.274 10.3875" stroke="#4D76B8" stroke-width="3" stroke-miterlimit="10"/>
<path d="M308.236 207.204C358.51 207.204 399.265 163.144 399.265 108.794C399.265 54.4442 358.51 10.3848 308.236 10.3848C257.962 10.3848 217.207 54.4442 217.207 108.794C217.207 163.144 257.962 207.204 308.236 207.204Z" stroke="#4D76B8" stroke-width="3" stroke-miterlimit="10"/>
<path d="M29.8542 62.0162L32.1377 61.9199C32.9003 61.9193 33.6644 61.9632 34.4319 61.9836C35.1957 62.0454 35.9631 62.1194 36.7292 62.2144C37.4885 62.3485 38.2591 62.4574 39.0054 62.6661C42.0472 63.3617 44.8225 64.7886 47.597 65.693C50.3814 66.6087 53.2873 67.1018 56.2178 67.1559C59.1551 67.2846 62.0977 67.0948 64.9941 66.5897C66.4364 66.3285 67.856 65.9547 69.24 65.4719C70.6371 64.9877 72.0345 64.4012 73.4723 63.8727C76.3555 62.781 79.3847 62.123 82.461 61.9204C85.5099 61.6868 88.5743 61.7524 91.6103 62.1163L92.7508 62.2736L93.8808 62.5037C94.6415 62.631 95.3784 62.8569 96.1271 63.0458C97.6027 63.4895 99.044 64.0347 100.45 64.6011C101.855 65.1597 103.25 65.6763 104.661 66.0907C105.375 66.265 106.077 66.4768 106.801 66.5916L107.877 66.8028L108.967 66.945C111.896 67.2597 114.849 67.2692 117.78 66.9732C118.143 66.9332 118.509 66.9044 118.871 66.8561L119.946 66.673C120.668 66.5739 121.364 66.3748 122.068 66.2131C123.472 65.8309 124.846 65.3448 126.178 64.7586C127.536 64.1705 128.913 63.5311 130.374 62.9599C131.843 62.3747 133.36 61.9167 134.908 61.5911C137.986 60.9974 141.128 60.8088 144.254 61.0301C145.816 61.1191 147.369 61.3122 148.905 61.6084C150.443 61.9246 151.95 62.3734 153.41 62.9496C156.335 64.078 158.887 65.6572 161.716 66.5411C162.41 66.8039 163.138 66.9452 163.85 67.1648C164.573 67.3351 165.304 67.4875 166.039 67.6289C166.78 67.7292 167.522 67.8541 168.27 67.9355L170.524 68.1428V68.3816C167.46 68.6281 164.376 68.3988 161.382 67.7017C158.353 66.9869 155.555 65.6106 152.776 64.7197C149.99 63.825 147.083 63.3603 144.156 63.3418C141.233 63.2335 138.307 63.4815 135.443 64.0805C134.03 64.3876 132.644 64.8062 131.297 65.3321C129.937 65.8602 128.567 66.4948 127.127 67.0588C125.671 67.6524 124.173 68.137 122.645 68.5088C121.871 68.6672 121.102 68.8605 120.321 68.9487L119.153 69.1144C118.764 69.1562 118.374 69.1774 117.984 69.2094C114.881 69.4492 111.761 69.3179 108.689 68.8185C107.145 68.5684 105.628 68.1739 104.158 67.6403C102.698 67.0965 101.293 66.4576 99.9279 65.7994C98.5632 65.1493 97.2049 64.5386 95.8096 64.0228C94.4086 63.5179 92.9625 63.148 91.4911 62.918C88.5259 62.4665 85.5157 62.3903 82.5314 62.6913C82.1592 62.7276 81.7863 62.7614 81.4168 62.8146L80.3153 63.0126C79.5826 63.142 78.8569 63.3084 78.141 63.5114C76.7161 63.9371 75.3249 64.4685 73.9791 65.1013C72.6184 65.7244 71.2689 66.4128 69.8458 67.0277C68.4146 67.6575 66.931 68.161 65.4121 68.5323C62.3685 69.2194 59.2423 69.4672 56.1285 69.2681C54.5698 69.1959 53.0176 69.0194 51.4824 68.7398C49.9444 68.4366 48.4358 68 46.9736 67.4349C45.5098 66.8952 44.1302 66.2084 42.7724 65.5773C41.4339 64.9339 40.0588 64.3696 38.6542 63.8873C37.9607 63.6231 37.2343 63.4801 36.5234 63.2588C35.8014 63.0866 35.071 62.9328 34.337 62.7894C33.5967 62.6872 32.8557 62.5605 32.1082 62.4773L29.8542 62.2549L29.8542 62.0162ZM70.3352 132.44L72.6187 132.343C73.3813 132.343 74.1453 132.387 74.9129 132.407C75.6767 132.469 76.4442 132.543 77.2103 132.638C77.9696 132.772 78.7399 132.881 79.4862 133.09C82.5283 133.785 85.3036 135.212 88.0781 136.116C90.8623 137.032 93.7682 137.525 96.6987 137.579C99.636 137.708 102.579 137.518 105.475 137.013C106.917 136.752 108.337 136.378 109.721 135.895C111.118 135.411 112.515 134.824 113.953 134.296C116.836 133.204 119.866 132.547 122.942 132.344C125.991 132.11 129.055 132.176 132.091 132.54L133.232 132.697L134.362 132.927C135.123 133.054 135.859 133.28 136.608 133.469C138.084 133.913 139.525 134.458 140.931 135.025C142.336 135.583 143.731 136.1 145.142 136.514C145.856 136.688 146.558 136.9 147.282 137.015L148.358 137.226L149.448 137.368C152.376 137.683 155.33 137.693 158.261 137.397C158.624 137.357 158.99 137.328 159.352 137.279L160.427 137.096C161.149 136.997 161.845 136.798 162.549 136.637C163.953 136.254 165.327 135.768 166.659 135.182C168.017 134.594 169.394 133.955 170.854 133.383C172.324 132.798 173.841 132.34 175.389 132.014C178.467 131.421 181.609 131.232 184.735 131.454C186.297 131.543 187.85 131.736 189.386 132.032C190.923 132.348 192.431 132.797 193.891 133.373C196.817 134.501 199.368 136.081 202.197 136.965C202.891 137.227 203.619 137.368 204.331 137.588C205.054 137.759 205.785 137.911 206.52 138.052C207.261 138.153 208.003 138.278 208.75 138.359L211.005 138.566V138.805C207.941 139.052 204.857 138.822 201.863 138.125C198.834 137.41 196.036 136.034 193.257 135.143C190.471 134.248 187.564 133.784 184.637 133.765C181.714 133.657 178.787 133.905 175.924 134.504C174.511 134.811 173.124 135.23 171.778 135.755C170.418 136.283 169.048 136.918 167.608 137.482C166.152 138.076 164.654 138.56 163.126 138.932C162.352 139.09 161.583 139.284 160.802 139.372L159.634 139.538C159.245 139.58 158.855 139.601 158.465 139.633C155.362 139.873 152.242 139.741 149.169 139.242C147.626 138.992 146.109 138.597 144.639 138.064C143.179 137.52 141.774 136.881 140.409 136.223C139.044 135.573 137.686 134.962 136.291 134.446C134.89 133.941 133.443 133.571 131.972 133.342C129.007 132.89 125.997 132.814 123.012 133.115C122.64 133.151 122.267 133.185 121.898 133.238L120.796 133.436C120.063 133.566 119.338 133.732 118.622 133.935C117.197 134.361 115.806 134.892 114.46 135.525C113.099 136.148 111.75 136.836 110.327 137.451C108.895 138.081 107.412 138.584 105.893 138.956C102.849 139.643 99.7232 139.891 96.6095 139.692C95.0508 139.619 93.4986 139.443 91.9634 139.163C90.4254 138.86 88.9167 138.423 87.4544 137.859C85.9908 137.319 84.6109 136.632 83.2534 136.001C81.9149 135.357 80.5398 134.793 79.1352 134.311C78.4417 134.046 77.7151 133.904 77.0042 133.682C76.2823 133.51 75.552 133.356 74.818 133.213C74.0777 133.111 73.3367 132.984 72.5892 132.901L70.3352 132.678L70.3352 132.44ZM0 197.628L2.28353 197.532C3.04613 197.531 3.81029 197.575 4.57775 197.595C5.34152 197.657 6.10897 197.731 6.87507 197.826C7.63437 197.96 8.40494 198.069 9.15103 198.278C12.1931 198.973 14.9684 200.401 17.7429 201.305C20.5271 202.221 23.433 202.714 26.3635 202.768C29.3008 202.897 32.2435 202.707 35.1399 202.201C36.5822 201.94 38.0019 201.567 39.3858 201.084C40.783 200.6 42.1803 200.013 43.6181 199.484C46.5013 198.393 49.5306 197.735 52.6069 197.532C55.6557 197.299 58.7201 197.364 61.7562 197.728L62.8967 197.886L64.0267 198.115C64.7873 198.243 65.5243 198.469 66.2729 198.658C67.7486 199.101 69.1896 199.647 70.5957 200.213C72.0009 200.772 73.3962 201.288 74.807 201.703C75.5209 201.877 76.2225 202.089 76.9468 202.204L78.0224 202.415L79.1126 202.557C82.0414 202.872 84.995 202.881 87.9257 202.585C88.2893 202.545 88.6551 202.516 89.0165 202.468L90.0917 202.285C90.8137 202.186 91.5097 201.987 92.2142 201.825C93.6182 201.443 94.9919 200.957 96.3237 200.371C97.6818 199.782 99.0589 199.143 100.519 198.572C101.989 197.987 103.506 197.529 105.054 197.203C108.131 196.609 111.273 196.421 114.4 196.642C115.961 196.731 117.515 196.924 119.051 197.22C120.588 197.537 122.096 197.985 123.556 198.562C126.481 199.69 129.033 201.269 131.862 202.153C132.556 202.416 133.284 202.557 133.996 202.777C134.719 202.947 135.45 203.099 136.185 203.241C136.926 203.341 137.668 203.466 138.415 203.547L140.67 203.755V203.994C137.606 204.24 134.522 204.011 131.528 203.314C128.499 202.599 125.701 201.222 122.922 200.332C120.135 199.437 117.229 198.972 114.302 198.954C111.378 198.845 108.452 199.093 105.589 199.693C104.176 200 102.789 200.418 101.443 200.944C100.083 201.472 98.7127 202.107 97.2726 202.671C95.8166 203.264 94.3185 203.749 92.7907 204.121C92.0166 204.279 91.248 204.472 90.4664 204.561L89.2989 204.726C88.9095 204.768 88.5196 204.789 88.1302 204.821C85.0271 205.061 81.9065 204.93 78.8344 204.431C77.2908 204.18 75.774 203.786 74.3041 203.252C72.8434 202.709 71.4392 202.069 70.0737 201.411C68.709 200.761 67.3507 200.15 65.9555 199.635C64.5544 199.13 63.1083 198.76 61.6369 198.53C58.6717 198.078 55.6615 198.002 52.6773 198.303C52.305 198.339 51.9322 198.373 51.5626 198.426L50.4612 198.625C49.7284 198.754 49.0027 198.92 48.2869 199.123C46.8619 199.549 45.4707 200.08 44.1249 200.713C42.7643 201.336 41.4147 202.025 39.9917 202.64C38.5604 203.269 37.0767 203.773 35.5577 204.144C32.5143 204.831 29.3881 205.079 26.2744 204.88C24.7157 204.808 23.1635 204.631 21.6283 204.352C20.0903 204.048 18.5816 203.612 17.1193 203.047C15.6557 202.507 14.276 201.82 12.9183 201.189C11.5798 200.546 10.2047 199.982 8.80006 199.499C8.10662 199.235 7.38016 199.092 6.66924 198.871C5.94725 198.698 5.21686 198.545 4.48286 198.401C3.7426 198.299 3.00157 198.172 2.25412 198.089L0.000119915 197.867L0 197.628Z" fill="#4D76B8"/>
</svg>
