<svg width="65" height="65" viewBox="0 0 65 65" fill="none" xmlns="http://www.w3.org/2000/svg">
<path d="M7 50.5C7 51.5388 7.41265 52.535 8.14717 53.2695C8.88168 54.004 9.8779 54.4167 10.9167 54.4167H34.4167L42.25 62.25V30.9167C42.25 29.8779 41.8374 28.8817 41.1028 28.1472C40.3683 27.4126 39.3721 27 38.3333 27H10.9167C9.8779 27 8.88168 27.4126 8.14717 28.1472C7.41265 28.8817 7 29.8779 7 30.9167V50.5Z" stroke="#C15510" stroke-width="4" stroke-linecap="round" stroke-linejoin="round"/>
<path d="M58.125 29.375C58.125 30.4138 57.7124 31.41 56.9778 32.1445C56.2433 32.879 55.2471 33.2917 54.2083 33.2917H30.7083L22.875 41.125V9.79167C22.875 8.7529 23.2876 7.75668 24.0222 7.02216C24.7567 6.28765 25.7529 5.875 26.7917 5.875H54.2083C55.2471 5.875 56.2433 6.28765 56.9778 7.02216C57.7124 7.75668 58.125 8.7529 58.125 9.79167V29.375Z" stroke="#DC6B19" stroke-width="4" stroke-linecap="round" stroke-linejoin="round"/>
<path d="M32.6667 19.5834H32.6855" stroke="#DC6B19" stroke-width="5" stroke-linecap="round" stroke-linejoin="round"/>
<path d="M40.5 19.5834H40.5188" stroke="#DC6B19" stroke-width="5" stroke-linecap="round" stroke-linejoin="round"/>
<path d="M48.3333 19.5834H48.352" stroke="#DC6B19" stroke-width="5" stroke-linecap="round" stroke-linejoin="round"/>
</svg>
