<svg width="251" height="57" viewBox="0 0 251 57" fill="none" xmlns="http://www.w3.org/2000/svg">
<g clip-path="url(#clip0_10_694)">
<path d="M6.03067 44.0078C6.03067 44.9027 6.38618 45.761 7.019 46.3938C7.65181 47.0266 8.51009 47.3821 9.40503 47.3821H29.6512L36.3999 54.1308V27.136C36.3999 26.241 36.0444 25.3827 35.4116 24.7499C34.7788 24.1171 33.9205 23.7616 33.0255 23.7616H9.40503C8.51009 23.7616 7.65181 24.1171 7.019 24.7499C6.38618 25.3827 6.03067 26.241 6.03067 27.136V44.0078Z" stroke="#C15510" stroke-width="4" stroke-linecap="round" stroke-linejoin="round"/>
<path d="M50.077 25.8077C50.077 26.7026 49.7215 27.5609 49.0887 28.1937C48.4559 28.8265 47.5976 29.182 46.7026 29.182H26.4565L19.7078 35.9308V8.93588C19.7078 8.04095 20.0633 7.18267 20.6961 6.54985C21.3289 5.91704 22.1872 5.56152 23.0821 5.56152H46.7026C47.5976 5.56152 48.4559 5.91704 49.0887 6.54985C49.7215 7.18267 50.077 8.04095 50.077 8.93588V25.8077Z" stroke="#DC6B19" stroke-width="4" stroke-linecap="round" stroke-linejoin="round"/>
<path d="M28.1436 17.3718H28.1597" stroke="#DC6B19" stroke-width="5" stroke-linecap="round" stroke-linejoin="round"/>
<path d="M34.8923 17.3718H34.9085" stroke="#DC6B19" stroke-width="5" stroke-linecap="round" stroke-linejoin="round"/>
<path d="M41.6411 17.3718H41.6573" stroke="#DC6B19" stroke-width="5" stroke-linecap="round" stroke-linejoin="round"/>
</g>
<path d="M93.8171 41H87.419L76.718 24.7988V41H70.3198V14.7339H76.718L87.419 31.0099V14.7339H93.8171V41ZM118.136 30.2241C118.136 30.8228 118.098 31.4464 118.024 32.095H103.544C103.643 33.392 104.055 34.3898 104.778 35.0882C105.527 35.7617 106.437 36.0985 107.51 36.0985C109.106 36.0985 110.216 35.425 110.84 34.078H117.649C117.3 35.4499 116.664 36.6847 115.741 37.7822C114.843 38.8798 113.708 39.7403 112.336 40.3639C110.964 40.9875 109.43 41.2993 107.734 41.2993C105.689 41.2993 103.868 40.8628 102.271 39.9898C100.675 39.1167 99.4278 37.8695 98.5298 36.2481C97.6318 34.6268 97.1828 32.731 97.1828 30.5609C97.1828 28.3908 97.6194 26.495 98.4924 24.8736C99.3904 23.2523 100.638 22.0051 102.234 21.132C103.83 20.259 105.664 19.8225 107.734 19.8225C109.755 19.8225 111.551 20.2465 113.122 21.0946C114.694 21.9427 115.916 23.1525 116.789 24.724C117.687 26.2955 118.136 28.1288 118.136 30.2241ZM111.588 28.5404C111.588 27.4429 111.214 26.5698 110.466 25.9213C109.717 25.2727 108.782 24.9485 107.659 24.9485C106.587 24.9485 105.676 25.2603 104.928 25.8839C104.205 26.5075 103.756 27.393 103.581 28.5404H111.588ZM133.859 41L129.855 35.2005L126.488 41H119.566L126.45 30.3364L119.379 20.1218H126.562L130.566 25.8839L133.933 20.1218H140.855L133.859 30.6357L141.042 41H133.859ZM155.144 35.5747V41H151.889C149.569 41 147.761 40.4388 146.464 39.3163C145.167 38.1688 144.518 36.3105 144.518 33.7413V25.4349H141.974V20.1218H144.518V15.0332H150.916V20.1218H155.107V25.4349H150.916V33.8161C150.916 34.4397 151.066 34.8887 151.365 35.1631C151.665 35.4375 152.163 35.5747 152.862 35.5747H155.144Z" fill="#C15510"/>
<path d="M157.623 27.8295C157.623 25.2353 158.184 22.928 159.307 20.9075C160.429 18.8621 161.988 17.2782 163.984 16.1557C166.004 15.0082 168.287 14.4345 170.831 14.4345C173.949 14.4345 176.618 15.2577 178.838 16.904C181.058 18.5503 182.542 20.7953 183.291 23.6389H176.256C175.732 22.5414 174.984 21.7057 174.011 21.132C173.063 20.5583 171.978 20.2715 170.756 20.2715C168.786 20.2715 167.189 20.9574 165.967 22.3293C164.745 23.7013 164.133 25.5347 164.133 27.8295C164.133 30.1244 164.745 31.9578 165.967 33.3297C167.189 34.7016 168.786 35.3876 170.756 35.3876C171.978 35.3876 173.063 35.1007 174.011 34.527C174.984 33.9533 175.732 33.1177 176.256 32.0201H183.291C182.542 34.8638 181.058 37.1087 178.838 38.755C176.618 40.3764 173.949 41.1871 170.831 41.1871C168.287 41.1871 166.004 40.6258 163.984 39.5034C161.988 38.3559 160.429 36.772 159.307 34.7515C158.184 32.731 157.623 30.4237 157.623 27.8295ZM200.042 19.8973C202.437 19.8973 204.358 20.6955 205.805 22.2919C207.251 23.8634 207.975 26.0335 207.975 28.8023V41H201.614V29.6629C201.614 28.266 201.252 27.181 200.529 26.4077C199.805 25.6344 198.833 25.2478 197.61 25.2478C196.388 25.2478 195.415 25.6344 194.692 26.4077C193.969 27.181 193.607 28.266 193.607 29.6629V41H187.209V13.312H193.607V22.928C194.255 22.0051 195.141 21.2692 196.263 20.7204C197.386 20.1717 198.646 19.8973 200.042 19.8973ZM211.149 30.5235C211.149 28.3783 211.548 26.495 212.346 24.8736C213.169 23.2523 214.279 22.0051 215.676 21.132C217.073 20.259 218.632 19.8225 220.353 19.8225C221.825 19.8225 223.109 20.1218 224.207 20.7204C225.329 21.3191 226.19 22.1048 226.789 23.0777V20.1218H233.187V41H226.789V38.0441C226.165 39.0169 225.292 39.8027 224.169 40.4013C223.072 41 221.787 41.2993 220.316 41.2993C218.619 41.2993 217.073 40.8628 215.676 39.9898C214.279 39.0918 213.169 37.8321 212.346 36.2107C211.548 34.5644 211.149 32.6687 211.149 30.5235ZM226.789 30.5609C226.789 28.9645 226.34 27.7048 225.442 26.7819C224.569 25.8589 223.496 25.3975 222.224 25.3975C220.952 25.3975 219.867 25.8589 218.969 26.7819C218.096 27.6799 217.659 28.9271 217.659 30.5235C217.659 32.1199 218.096 33.392 218.969 34.3399C219.867 35.2629 220.952 35.7243 222.224 35.7243C223.496 35.7243 224.569 35.2629 225.442 34.3399C226.34 33.417 226.789 32.1573 226.789 30.5609ZM249.452 35.5747V41H246.197C243.877 41 242.068 40.4388 240.771 39.3163C239.474 38.1688 238.826 36.3105 238.826 33.7413V25.4349H236.281V20.1218H238.826V15.0332H245.224V20.1218H249.415V25.4349H245.224V33.8161C245.224 34.4397 245.374 34.8887 245.673 35.1631C245.972 35.4375 246.471 35.5747 247.17 35.5747H249.452Z" fill="#DC6B19"/>
<defs>
<clipPath id="clip0_10_694">
<rect width="56" height="56" fill="white" transform="translate(0 0.5)"/>
</clipPath>
</defs>
</svg>
